<?xml version="1.0" encoding="utf-8"?>
<!-- Generator: Adobe Illustrator 25.2.3, SVG Export Plug-In . SVG Version: 6.00 Build 0)  -->
<svg version="1.1" xmlns="http://www.w3.org/2000/svg" xmlns:xlink="http://www.w3.org/1999/xlink" x="0px" y="0px"
	 viewBox="0 0 350 450" style="enable-background:new 0 0 350 450;" xml:space="preserve">
<style type="text/css">
	.st0{fill:none;stroke:#003769;stroke-width:5;stroke-linecap:round;stroke-linejoin:round;stroke-miterlimit:10;}
	.st1{fill:#4092E8;}
	.st2{fill:#FFAC2F;}
	.st3{fill:#FFFFFF;}
	.st4{fill:none;stroke:#003769;stroke-width:4;stroke-linecap:round;stroke-linejoin:round;stroke-miterlimit:10;}
	.st5{fill:#FE450E;}
	.st6{fill:#003769;stroke:#003769;stroke-width:3;stroke-linecap:round;stroke-linejoin:round;stroke-miterlimit:10;}
	.st7{fill:#003769;}
	.st8{fill:none;stroke:#FFFFFF;stroke-width:4;stroke-linecap:round;stroke-linejoin:round;stroke-miterlimit:10;}
	.st9{fill:none;stroke:#FFFFFF;stroke-linecap:round;stroke-linejoin:round;stroke-miterlimit:10;}
	.st10{fill:none;stroke:#003769;stroke-width:5.6325;stroke-linecap:round;stroke-linejoin:round;stroke-miterlimit:10;}
	.st11{fill:#FE450E;stroke:#003769;stroke-width:4;stroke-linecap:round;stroke-linejoin:round;stroke-miterlimit:10;}
	.st12{fill:#FFAC2F;stroke:#003769;stroke-width:4;stroke-linecap:round;stroke-linejoin:round;stroke-miterlimit:10;}
	.st13{fill:#003769;stroke:#003769;stroke-width:4;stroke-linecap:round;stroke-linejoin:round;stroke-miterlimit:10;}
	.st14{fill:#FFFFFF;stroke:#003769;stroke-width:4;stroke-linecap:round;stroke-linejoin:round;stroke-miterlimit:10;}
	.st15{fill:none;stroke:#003769;stroke-width:2;stroke-linecap:round;stroke-linejoin:round;stroke-miterlimit:10;}
	.st16{fill:none;stroke:#003769;stroke-width:2;stroke-miterlimit:10;}
	.st17{fill:#89E2F5;}
	.st18{fill:#003769;stroke:#003769;stroke-width:5.6325;stroke-linecap:round;stroke-linejoin:round;stroke-miterlimit:10;}
	.st19{fill:#4092E8;stroke:#003769;stroke-width:4;stroke-linecap:round;stroke-linejoin:round;stroke-miterlimit:10;}
	.st20{fill:none;stroke:#FFFFFF;stroke-width:2;stroke-linecap:round;stroke-linejoin:round;stroke-miterlimit:10;}
</style>
<g id="Calque_5">
</g>
<g id="Calque_2">
	<path class="st1" d="M199.8,300.2l5.1-36.1l-4.8-15.6l-6.1-5.1l-11.3,0.3l-2.8,6.5l4.6,12.8l0.7,9.8l-6.8,8.3l-9.8,0.8l-8.8-2.3
		l-6.3-5.5l-2.5-7l-2.2-3.6h-7.8l-4,9.1l-5,7.5l-7.1,6l-8.3,0.3l-7.9-2.6l-3.8-6.5l1.8-12.1l0.3-6.3l-3.8-8.8l-15.8,2.8l-21.2,13
		l-10,15.3l-9.9,25.6l-6,26.1L37,364c0,0,3.5,78.4,3.3,79.1c14.2,6.8,31.2,7.5,45.9,1.8c4.7-1.8,9.3-4.3,14.3-4.7
		c4.7-0.4,9.3,1,13.8,2.3c10.5,2.8,21.3,4.7,32.1,4.4s21.8-2.9,31-8.6c4.8-2.9,9.4-7.3,9.4-12.9l0,0l8.3,0.1"/>
	<polygon class="st2" points="134.1,281.9 141,304.3 146.1,296.8 153.4,283.4 156,276.9 150.4,266.7 147,264.4 147.1,264.3 
		140.3,265.5 	"/>
	<polygon class="st3" points="163.9,285.6 159.5,307.6 163.9,321.8 167.2,336.5 160.9,359.3 155.8,371.5 154.7,390.8 152.5,414 
		150.5,431.7 148.8,448.8 121.8,445.6 122,446.4 122,446.2 124.3,420.9 124.3,395.7 122.6,378.8 119.4,358.2 113.2,344.4 
		108.9,331.8 110.8,319.2 116.7,303.1 122,288 131.6,280.9 132,280.7 135.1,286 141.2,304.7 148,290.5 157.2,277.9 	"/>
	<path class="st4" d="M104.7,249.9c-17.3-0.8-32.7,8.9-43.5,22.4s-20.5,49.3-22.3,66.9c-2.5,25.6,1,63.4,1.4,102.9"/>
	<path class="st4" d="M183.3,323.5c-2.9,34-1.9,68.4,3.1,102.2"/>
	<path class="st4" d="M180.4,245.1c3.5-4.1,9.4-4.2,14.2-1.9c4.8,2.3,8,7.2,9.5,12.3c1.4,5.1,2,10.7,0.8,15.9
		c-9.5,40.6-7.1,144.1-9.5,154.2"/>
	<path class="st4" d="M133.3,279.8c8.2,21.3,8.6,45,8.3,68.1c-0.4,33-1.9,66-4.6,98.9"/>
	<path class="st4" d="M156.5,278c-7.2,10.3-12.7,21.9-16,34"/>
	<path class="st4" d="M96.8,320.9c-4.7,41-0.1,72.9,0,114.1"/>
	<path class="st4" d="M122.8,288.3c-3.5,10.7-7,21.3-10.5,32c-1.2,3.5-2.3,7.1-2.6,10.8c-0.6,8,3.1,15.6,5.9,23.1
		c10.4,27.9,9.5,59,8.5,89.1"/>
	<path class="st4" d="M164.7,282.9c-4,17.2-5.8,25.5-3.3,35c1.1,4.2,6.5,20,5.8,24.5c-2,12.9-8.7,25.8-10.6,35.2
		c-3.8,18.6-1.3,38.6-5.1,69.2"/>
	<path class="st2" d="M78.7,67.4c0.1-4.1,0.1-8.4-1.5-12.2c-1.6-3.8-5.3-7-9.4-6.8c-3.2,0.2-6,2.6-6.8,5.7c-0.7,3.1,0.7,6.5,3.4,8.2
		c-3.5-2.1-7.5,1-11.5,0c-1.1-0.3-2.6-1.2-3.7-1.3c-2.2-0.3-4,2.4-5.6,3.9c-1.9,1.8-3.7,3.5-4.9,5.8c-1.2,2.2-1.6,5.1-0.4,7.3
		c0.6,1.2,1.7,2.2,1.9,3.5c0.5,2.6-2.1,4.6-3.4,6.9c-1.6,2.9-1.1,6.6-0.2,9.8c0.9,3.2,2.1,6.6,1.5,9.9c-0.7,4.3-4.2,7.9-4.2,12.3
		c0,1.9,0.6,4.1-0.6,5.5c-1.7,2-5.1,0.5-7.6,1.5c-1.8,0.7-2.8,2.6-3,4.5c-0.2,1.9,0.3,3.8,0.8,5.6c0.8,2.7,1.5,5.5,3.1,7.9
		s4.1,4.2,7.1,4.3c-1.5,1.2-2.3,3.1-2.2,5s1.1,3.7,2.6,4.8l3.8,2l-2.8,10.7l9.4-0.8l-0.8,15.3l3.2,5.5l6.9,0.4l7.3,0l-1.5,6.9l5,5.9
		l5.6,5.7l5.2-5l4.2,2.2l2,4.8l9.1-2l1.7,4.2l10.1,0.1l8.7,1.1l4.5,2.2l7.2-1.3l5.7-2.7l-1.7,10.1l4.8,6.1l4.2,4.1l7.4,1.8l5.5,1.3
		h5.8l2.6-13.3l2.8-8.8l7.4,3.6l6.8-3.3l3.2,3.1l15.8-2l0.6-6l6.2,0l5.2-2.3l3-4.1l6.3,2.3l-1.8-8.2l-2.3-4.5l7.4-6.1l3.9-8.2
		l-1-6.4l-0.9-5.4l3.9-6l6.1-7.1l1.8-7.4l0.5-10.4l13.3-1.5l-1.3-17l-7.8,0l0.2-11.3l-5.4-0.3l-3.7-6.7l0.1,0.7l-3.8-3.5l0.3-8.7
		l-1.1-6.8l-8.7-7.4l-6.5-5.1L205.6,59l-2.2-6.1l-0.7-11.3l-14.1,5.7L180,49l-5.4-3.4l-5-5.5l-4.7,0.3l1.4-17.1l-8.9-3.7l-7.6,2.6
		l-5.1,7.5l-3.2,5.3l-7.5,2.5l-9.7,2.7l-8.4-4.5l-6.8-1.4l-6,7.7l-7.4,2.9l-6.4,2l-5.1,6.5l-4.2,4.5l-3.5,2.8L78.7,67.4z"/>
	<polygon class="st5" points="139,238.3 129.8,230.2 114.7,225.5 104.4,229.5 105.8,243 107.1,253.6 105.3,265.5 104.9,276.6 
		111.5,283.6 126.1,283.4 133.4,276.3 138.9,267.1 143.9,262.8 150,263.5 152.9,272.6 160.7,279.8 171.6,282.2 180.5,278.4 
		184.6,270.9 183.4,260.6 181.2,250.5 181.4,242.5 184.1,233.4 181.3,226.6 173.3,224.6 165.5,229 157.3,235.1 149.8,240 	"/>
	<path class="st4" d="M137.3,238.5c-2.8,1.4-4.8,4.3-5.6,7.4c-0.8,3.1-0.5,6.4,0.2,9.5c0.5,2.2,1.3,4.5,3.2,5.8
		c1.5,1,3.5,1.2,5.3,1.2c2.9,0,5.8-0.1,8.7-0.4c1.8-0.2,3.7-0.6,4.8-2c0.8-1,0.9-2.4,0.9-3.7c0.1-2.6,0.1-5.2,0-7.8
		c-0.1-2.6-0.4-5.3-1.9-7.4C151.3,239,140.1,237.1,137.3,238.5z"/>
	<path class="st4" d="M155.3,252.3c1.9-3.3,5.3-5.6,9-6.2c1.6-0.2,3.2-0.2,4.6,0.5c1.4,0.7,2.6,2.1,2.7,3.6c0.1,1.5-0.9,3.1-2.3,3.6
		c-1.4,0.6-3.2,0.1-4.2-1.2"/>
	<path class="st4" d="M155.1,255.5c4.6-0.3,9.2,3.2,10.2,7.8"/>
	<path class="st4" d="M130.8,245.5c-2.9-2-5.5-1.8-9-1.2c-1.7,0.3-3.5,0.8-4.7,2.1c-0.4,0.5-0.8,1.1-0.9,1.7
		c-0.1,0.7,0.1,1.4,0.7,1.8c0.4,0.3,1,0.4,1.6,0.5c1.4,0.1,2.9-0.1,4.2-0.5"/>
	<path class="st4" d="M131.4,252.8c-4.7,0.7-8.8,4.5-10,9.1"/>
	<path class="st4" d="M151.8,239.8c6.3-6.4,12.6-12.6,21.3-14.8c3.3-0.8,7.2-0.7,9.4,1.9c1.5,1.8,1.7,4.3,1.3,6.6
		c-0.4,2.3-1.4,4.4-2.1,6.6c-1.6,5-1.6,10.4-0.1,15.4c1.1,3.8,3.2,7.5,3.5,11.5c0.5,6.2-3.7,12.3-9.5,14.7
		c-5.8,2.4-12.7,1.1-17.7-2.7c-5-3.8-7.9-9.8-8.6-16"/>
	<path class="st4" d="M138.3,237.7c-1.1-3.5-3.7-5.7-7-7.6c-3.2-1.9-6.8-2.9-10.4-3.9c-4-1.2-8.6-2.3-12.3-0.3
		c-3.1,1.7-4.7,5.2-5,8.7c-0.3,3.5,0.6,7,1.5,10.3s1.9,6.8,1.9,10.3c0,3.7-1.2,7.2-2.1,10.8c-0.9,3.6-1.4,7.4-0.1,10.9
		c1.9,5.2,7.7,8.4,13.2,8.2c5.6-0.2,10.7-3.3,14.4-7.5c3.7-4.2,6.1-9.3,8-14.5"/>
	<path class="st4" d="M141.9,49.2c-0.2-5.7-0.4-11.5,1.4-16.9c1.7-5.4,5.8-10.4,11.4-11.6c2.6-0.6,5.3-0.3,7.9,0.2
		c1.3,0.3,2.8,0.7,3.6,1.8c1,1.3,0.8,3.2,0.5,4.9c-1.5,8-2.9,16-4.4,23.9"/>
	<path class="st4" d="M184.2,54.1c4.4-6.4,10.9-11.4,18.3-13.8c-0.1,7-1.3,14-3.4,20.6"/>
	<path class="st4" d="M222.8,110.9c4.1-1.2,8.1-2.3,12.2-3.5c0.5-0.1,1.1-0.3,1.5,0.1c0.3,0.3,0.4,0.7,0.4,1.1
		c0.3,3.5-0.1,7.1-1.2,10.4"/>
	<path class="st4" d="M224.6,119.2c6.7,0.7,13.4,0.5,20-0.6c0.6,4,1.1,8,1.7,12c0.2,1.7,0.4,3.7-0.6,5.1c-0.9,1.3-2.6,1.8-4.2,2.1
		c-8.4,1.6-17.5-1.4-23.4-7.7"/>
	<path class="st4" d="M204.6,189.2c3.5,1.5,6.1,4.6,7.7,8c1.5,3.5,2,7.3,2.2,11.1c-5.3-1.6-10.6-3.3-15.9-4.9"/>
	<path class="st4" d="M189.1,199.6c2.1,5.9,3.7,12.1,4.7,18.4c-4.8,0.7-9.6,1.4-14.4,2.1c-0.7,0.1-1.5,0.2-2-0.2
		c-0.7-0.5-1-1.6-1.1-2.5c-0.6-3.5-1.1-6.9-1.7-10.4"/>
	<path class="st4" d="M71.8,184c-5.1,4.2-9.5,9-13.2,14.5c2.8,3.5,5.5,7,8.3,10.5c0.6,0.7,1.2,1.5,2.1,1.8c1.8,0.6,3.6-1,4.8-2.4
		c3.6-4.4,6.5-9.4,8.7-14.7"/>
	<path class="st4" d="M84.9,199.1c-1.5,4.9-3.1,9.8-4.6,14.7c6.3,0.1,12.7-2.9,16.5-8"/>
	<path class="st4" d="M42.1,154.3c-5,4.7-7.6,12-6.6,18.8c5.1-1.3,10.1-2.5,15.2-3.8"/>
	<path class="st4" d="M43.7,125.8c-5.9,0.8-11.8,1.5-17.7,2.3c-1.1,0.1-2.3,0.3-3,1.2c-0.7,1-0.4,2.3-0.1,3.5
		c0.8,3.1,1.7,6.3,2.5,9.4c0.5,1.8,1,3.6,2.2,4.9c2.2,2.3,5.9,2.3,9.1,1.7c4.8-0.9,9.4-2.5,13.6-4.9"/>
	<path class="st4" d="M56,86.5c-4.3-2.5-9-4.3-13.8-5.4c-1.3-0.3-2.6-0.6-3.7-1.3c-1.7-1.2-2.4-3.5-2.2-5.5
		c0.3-4.3,3.5-7.7,6.6-10.7c1.6-1.6,3.5-3.4,5.8-3.7c2.8-0.3,5.4,1.6,7.5,3.5c3.9,3.3,7.9,6.7,10.5,11.2"/>
	<path class="st4" d="M70.5,70.8c-3.1-5.3-6.3-10.7-9.4-16c-0.2-0.4-0.5-0.8-0.6-1.3c-0.2-0.9,0.3-1.8,1-2.5s1.5-1,2.4-1.4
		c1.4-0.6,2.8-1.2,4.2-1.4c1.5-0.2,3.1,0,4.2,1c1,0.8,1.5,2,2,3.1c1.7,4.1,2.8,8.4,3.1,12.9"/>
	<path class="st4" d="M126.1,225.9c2-5,2.4-7.1,2-11.8c-3.6,2.5-7.9,5.2-12.2,4.2c-2.3-0.5-4.3-1.9-6.5-2.6
		c-3.6-1.1-7.4-0.1-11.2,0.2c-3.7,0.3-8.1-0.4-10.1-3.6"/>
	<path class="st4" d="M155.1,235.2c1-4.7,2.8-12.6,4.8-19.8c1.3,1.4,2.7,2.6,4.3,3.5c1.4,0.8,3.2,1.5,4.7,0.8
		c0.8-0.4,1.4-1.2,2.1-1.8c1.4-1.3,2.5-1.9,4.4-1.6"/>
	<path class="st4" d="M193.6,212.8c0.6-1,2-1.4,3.2-1.4c1.2,0,2.4,0.3,3.6,0.2c3.1-0.2,5.7-2.4,5.7-5.4"/>
	<path class="st4" d="M212.2,195.1c2.5-2.3,5.1-4.7,7-7.6c1.9-2.9,3.1-6.4,2.6-9.8c-0.5-3.3-2.6-6.6-1.9-9.9c0.8-3.9,4.8-6,7.5-8.8
		c2.7-2.8,4.2-6.6,4.9-10.5c0.7-3.8,0.6-6.6,0.6-10.5"/>
	<path class="st4" d="M201.7,53.5c1.7-0.1,3.1,1.5,3.5,3.2c0.4,1.7,0.1,3.4,0.1,5.1c-0.1,6.5,3.7,12.9,9.4,15.9
		c1.8,0.9,3.7,1.6,5.5,2.5c1.8,1,3.4,2.5,3.9,4.4c1.1,4.2-3,8.5-1.7,12.6c0.7,2.4,3,3.8,5,5.4s3.6,2.9,2.8,5.3"/>
	<path class="st4" d="M164.7,41.6c1.1-1.6,3.7-1.7,5.4-0.7c1.7,1,2.9,2.8,4,4.4c1.2,1.6,2.6,3.2,4.6,3.7c2.2,0.6,4.4-0.4,6.5-1.3
		c2.1-0.9,3.2-2,5.3-1.2"/>
	<path class="st4" d="M76.7,58.5c3.9,0.9,6.4-2.4,8.8-5.5c2.4-3.2,4.7-6.9,8.5-8c1.8-0.5,3.7-0.4,5.5-1.1c4.8-1.9,6.5-9.1,11.7-9.6
		c4.8-0.5,8.1,5.6,12.9,6.1c3.2,0.4,6-1.7,8.8-3.2c2.8-1.5,6.7-2.3,8.8,0.1"/>
	<path class="st4" d="M57.2,63c0.3-1.5,2.1-2.2,3.7-2.2c1.6,0.1,2.2,0.7,3.7,0.3"/>
	<path class="st4" d="M44.1,81.6c-5.4,0.9-9.3,7.2-7.7,12.5c0.6,2,1.9,3.8,2.5,5.9c1.4,4.5-0.7,9.3-2.9,13.5s-4.6,8.7-3.9,13.4"/>
	<path class="st4" d="M34,149.4c-1,1.2-1.9,2.4-2.3,3.8c-0.4,1.5,0,3.2,1.3,4c0.6,0.4,1.3,0.5,1.8,1c0.5,0.5,0.6,1.2,0.8,1.9
		c0.2,0.7,0.6,1.4,1.3,1.5"/>
	<path class="st4" d="M44.3,171.3c0.5,2.6,0,5.2-0.5,7.8c-0.5,2.6-1,5.2-0.5,7.8c0.5,2.6,2.1,5.1,4.7,5.8c1.6,0.5,3.4,0.1,5-0.4
		c1.6-0.5,3.3-1.1,5-1.1c1.7,0,3.5,0.7,4.3,2.3"/>
	<path class="st4" d="M76,205.6c0.7,0,1.4,0.5,1.8,1.1c0.3,0.6,0.4,1.3,0.7,1.9c0.5,1.1,1.4,1.2,2.6,1"/>
	<path class="st4" d="M149.1,135c1.8-2.6,4-4.9,6.8-6.3s6.1-2,9-1.1s5.6,3.3,6.2,6.4c1,4.5-2.3,9.1-6.5,11.1c-4.2,2-9,2-13.6,2"/>
</g>
<g id="Calque_4">
</g>
<g id="Calque_9">
</g>
<g id="Calque_6">
	<path class="st10" d="M88.8,115.8c4.6,6.1,12.3,9.7,19.9,9.2c7.6-0.5,14.8-5.1,18.5-11.8"/>
	<path class="st10" d="M171.4,114.6c4.6,6.1,12.3,9.7,19.9,9.2s14.8-5.1,18.5-11.8"/>
	<path class="st18" d="M74.2,93.5C83,78,99.2,67,116.9,64.5c2-0.3,4.1-0.4,6,0.3c1.9,0.7,3.5,2.5,3.5,4.5c-0.1,3-3.5,4.6-6.3,5.5
		c-9.1,3.1-18.2,6.1-27.4,9.2C85.2,86.5,77.1,89.5,74.2,93.5z"/>
	<path class="st18" d="M208.9,90.7c-5.9-6.4-12.1-12.7-19.3-17.5s-15.7-8.1-24.4-8c-2.6,0-5.5,0.6-6.7,2.9c-1.1,2.2,0.2,5,2.2,6.5
		s4.5,1.9,7,2.4C181.9,79.7,195.8,84.6,208.9,90.7z"/>
	<g>
		<path class="st11" d="M183.7,156.9c-18.4,14-45.6,15.1-65.5,4.3c-4.3,5.6-4.3,13.8-0.7,19.8c3.6,6,10.2,9.9,17.1,11.1
			c6.9,1.1,14.1-0.2,20.6-2.9C168.7,183.6,179.7,172.2,183.7,156.9z"/>
		<path class="st7" d="M148,172.8c5.1,3.6,9.3,8.3,12.4,13.8c7.3-4.7,13.6-11,18.2-18.3c1.7-2.7,3.3-5.8,3-9
			c-10.9,5.8-22.9,9.7-35.2,11.3C146.7,171.7,147.5,172.7,148,172.8z"/>
		<path class="st3" d="M167.9,167.3l-3.1,9.2c0,0-47.1-1.9-47.2-1.8c-1.5-3.6-1.2-8.3,1.4-10.8C133.9,171.6,152.7,172,167.9,167.3z"
			/>
	</g>
</g>
<g id="Calque_7">
</g>
</svg>
