<?xml version="1.0" encoding="utf-8"?>
<!-- Generator: Adobe Illustrator 25.2.3, SVG Export Plug-In . SVG Version: 6.00 Build 0)  -->
<svg version="1.1" xmlns="http://www.w3.org/2000/svg" xmlns:xlink="http://www.w3.org/1999/xlink" x="0px" y="0px"
	 viewBox="0 0 350 450" style="enable-background:new 0 0 350 450;" xml:space="preserve">
<style type="text/css">
	.st0{fill:none;stroke:#003769;stroke-width:5;stroke-linecap:round;stroke-linejoin:round;stroke-miterlimit:10;}
	.st1{fill:#4092E8;}
	.st2{fill:#FFAC2F;}
	.st3{fill:#FFFFFF;}
	.st4{fill:none;stroke:#003769;stroke-width:4;stroke-linecap:round;stroke-linejoin:round;stroke-miterlimit:10;}
	.st5{fill:#FE450E;}
	.st6{fill:#003769;stroke:#003769;stroke-width:3;stroke-linecap:round;stroke-linejoin:round;stroke-miterlimit:10;}
	.st7{fill:#003769;}
	.st8{fill:none;stroke:#FFFFFF;stroke-width:4;stroke-linecap:round;stroke-linejoin:round;stroke-miterlimit:10;}
	.st9{fill:none;stroke:#FFFFFF;stroke-linecap:round;stroke-linejoin:round;stroke-miterlimit:10;}
	.st10{fill:none;stroke:#003769;stroke-width:5.6325;stroke-linecap:round;stroke-linejoin:round;stroke-miterlimit:10;}
	.st11{fill:#FE450E;stroke:#003769;stroke-width:4;stroke-linecap:round;stroke-linejoin:round;stroke-miterlimit:10;}
	.st12{fill:#FFAC2F;stroke:#003769;stroke-width:4;stroke-linecap:round;stroke-linejoin:round;stroke-miterlimit:10;}
	.st13{fill:#003769;stroke:#003769;stroke-width:4;stroke-linecap:round;stroke-linejoin:round;stroke-miterlimit:10;}
	.st14{fill:#FFFFFF;stroke:#003769;stroke-width:4;stroke-linecap:round;stroke-linejoin:round;stroke-miterlimit:10;}
	.st15{fill:none;stroke:#003769;stroke-width:2;stroke-linecap:round;stroke-linejoin:round;stroke-miterlimit:10;}
	.st16{fill:none;stroke:#003769;stroke-width:2;stroke-miterlimit:10;}
	.st17{fill:#89E2F5;}
	.st18{fill:#003769;stroke:#003769;stroke-width:5.6325;stroke-linecap:round;stroke-linejoin:round;stroke-miterlimit:10;}
	.st19{fill:#4092E8;stroke:#003769;stroke-width:4;stroke-linecap:round;stroke-linejoin:round;stroke-miterlimit:10;}
	.st20{fill:none;stroke:#FFFFFF;stroke-width:2;stroke-linecap:round;stroke-linejoin:round;stroke-miterlimit:10;}
</style>
<g id="Calque_5">
</g>
<g id="Calque_2">
	<path class="st1" d="M275.1,268.9l-47.4-14.1l-7.3,52.8l-10.7-44.4l-9.2-15.4l-8.3-4.1l4.6,12.8l0.7,9.8l-6.8,8.3l-9.8,0.8
		l-8.8-2.3l-6.3-5.5l-2.5-7l-2.2-3.6h-7.8l-4,9.1l-5,7.5l-7.1,6l-8.3,0.3l-7.9-2.6l-3.8-6.5l1.8-12.1l0.3-6.3l-1.2-4l-17.1,8.4
		l-19.4,8.2l-13.2,9.8l-9.9,25.6l-6,26.1l-3.4,31.2c0,0,3.5,78.4,3.3,79.1c14.2,6.8,31.2,7.5,45.9,1.8c4.7-1.8,9.3-4.3,14.3-4.7
		c4.7-0.4,9.3,1,13.8,2.3c10.5,2.8,21.3,4.7,32.1,4.4c10.8-0.3,21.8-2.9,31-8.6c4.8-2.9,9.4-7.3,9.4-12.9l-2.5-22l-1.8-28.9
		c0,0,18.5,7.2,17.4,8c23.6,4.4,25.9-3.9,32.9-14c5.9-8.5,14.8-26.6,16.5-30.5c2.4-5.5,8-19,9.5-24c2.5-8.4,13.1-29.1,8.2-31.1"/>
	<path class="st2" d="M74.4,72.6c-0.4-4.1-0.9-8.3-3-11.9c-2-3.6-6.1-6.4-10.1-5.6c-3.1,0.6-5.7,3.3-6,6.5c-0.4,3.1,1.5,6.4,4.4,7.7
		c-3.7-1.7-7.3,1.9-11.4,1.4c-1.1-0.1-2.7-0.9-3.9-0.9c-2.2,0-3.7,2.9-5.1,4.6c-1.6,2-3.3,4-4.2,6.3c-0.9,2.4-1,5.2,0.4,7.3
		c0.8,1.1,1.9,2,2.3,3.3c0.8,2.5-1.5,4.8-2.5,7.2c-1.3,3.1-0.3,6.7,1,9.8c1.3,3.1,2.8,6.3,2.7,9.6c-0.2,4.3-3.3,8.4-2.7,12.7
		c0.2,1.9,1.1,4,0.1,5.6c-1.5,2.2-5,1.1-7.3,2.4c-1.7,0.9-2.5,3-2.4,4.9s0.8,3.7,1.5,5.5c1.1,2.6,2.2,5.3,4.1,7.4s4.6,3.7,7.6,3.4
		c-1.3,1.4-1.9,3.4-1.6,5.2c0.3,1.9,1.5,3.6,3.2,4.5l4,1.5l-1.5,11l9.2-1.9l1,15.3l3.8,5.1l6.9-0.4l7.3-0.9l-0.7,7.1l5.7,5.3l6.2,5
		l4.6-5.6l4.4,1.7l2.6,4.5l8.8-3.1l2.2,4l10-1.1l8.8,0l4.7,1.7l7-2.1l5.3-3.4l-0.5,10.3l5.5,5.5l4.7,3.6l7.6,0.9l5.7,0.6l4.8-5.8
		l2-8.4l1.7-9.1l7.8,2.7l6.3-4.1l3.6,2.7l15.5-3.9l-0.1-6l6.2-0.7l4.9-2.9l2.5-4.4l6.5,1.6l-2.8-7.9l-2.8-4.2l6.6-7l2.9-8.6
		l-1.8-6.2l-1.6-5.3l3.2-6.5l5.2-7.8l0.9-7.6l-0.7-10.4l13-3.1l-3.3-16.8l-7.8,0.9l-1.2-11.3l-5.4,0.4l-4.5-6.2l0.2,0.6l-4.2-3
		l-0.8-8.6l-1.9-6.6l-9.5-6.3l-7-4.3l-3.6-11l-2.9-5.8l-2-11.1l-13.3,7.3l-8.3,2.8l-5.8-2.8l-5.6-4.9l-4.6,0.8l-0.7-17.2l-9.3-2.6
		l-7.2,3.5l-4.1,8l-2.6,5.6l-7.2,3.4l-9.3,3.9l-8.9-3.5l-6.9-0.6l-5,8.3l-7,3.7l-6.1,2.7l-4.3,7l-3.6,5l-3.1,3.2L74.4,72.6z"/>
	<polygon class="st5" points="150.7,233.3 141.1,225.7 125.9,221.6 115.7,226 117.7,239.5 119.4,250 118.2,262 118.2,273 125,279.8 
		139.7,279 146.6,271.6 151.8,262.2 156.6,257.7 162.7,258.1 166,267.1 174.1,274 185.1,275.9 193.8,271.8 197.6,264.1 195.9,253.8 
		193.3,243.8 193.2,235.8 195.5,226.6 192.4,220 184.4,218.3 176.7,223 168.8,229.4 161.5,234.6 	"/>
	<polygon class="st2" points="146.3,275.5 153.3,297.9 158.4,290.4 165.6,277 168.3,270.5 162.6,260.3 159.3,258 159.3,257.9 
		152.5,259.1 	"/>
	<polygon class="st3" points="176.1,279.2 171.8,301.2 176.1,315.4 179.4,330.1 173.2,352.9 168.1,365.1 166.9,384.4 164.8,407.6 
		162.8,425.3 161,442.4 134,439.2 134.2,440 134.2,439.8 136.6,414.5 136.6,389.3 134.8,372.4 131.7,351.8 125.4,338 121.1,325.4 
		123.1,312.8 128.9,296.7 134.2,281.6 143.8,274.5 144.2,274.3 147.3,279.6 153.4,298.3 160.3,284.1 169.5,271.5 	"/>
	<path class="st4" d="M148.9,233.7c-2.8,1.6-4.6,4.5-5.3,7.6c-0.7,3.1-0.3,6.4,0.6,9.5c0.6,2.2,1.5,4.5,3.4,5.6c1.6,1,3.5,1,5.4,1
		c2.9-0.1,5.8-0.3,8.7-0.8c1.8-0.3,3.7-0.7,4.7-2.2c0.7-1.1,0.8-2.4,0.8-3.7c0-2.6-0.1-5.2-0.4-7.8c-0.2-2.6-0.6-5.2-2.2-7.3
		C163,233.6,151.7,232.2,148.9,233.7z"/>
	<path class="st4" d="M167.5,246.7c1.7-3.3,5-5.8,8.7-6.6c1.5-0.3,3.2-0.3,4.6,0.3c1.4,0.6,2.7,2,2.8,3.5c0.2,1.5-0.8,3.1-2.2,3.7
		c-1.4,0.6-3.2,0.2-4.2-1"/>
	<path class="st4" d="M167.5,249.9c4.6-0.4,9.3,2.8,10.5,7.3"/>
	<path class="st4" d="M142.8,240.9c-3-1.9-5.6-1.6-9-0.8c-1.7,0.4-3.5,0.9-4.6,2.3c-0.4,0.5-0.8,1.1-0.8,1.8s0.2,1.4,0.7,1.7
		c0.5,0.3,1,0.4,1.6,0.4c1.4,0,2.8-0.2,4.2-0.7"/>
	<path class="st4" d="M143.7,248.2c-4.7,0.9-8.6,4.8-9.6,9.5"/>
	<path class="st4" d="M163.5,234.3c6-6.7,12.1-13.1,20.7-15.7c3.2-1,7.2-1,9.5,1.5c1.5,1.7,1.9,4.3,1.5,6.5
		c-0.3,2.3-1.2,4.5-1.8,6.7c-1.4,5-1.2,10.5,0.5,15.4c1.3,3.8,3.5,7.3,4,11.3c0.7,6.2-3.2,12.5-8.9,15.1s-12.7,1.6-17.8-2
		c-5.1-3.6-8.3-9.5-9.2-15.7"/>
	<path class="st4" d="M149.9,232.8c-1.3-3.5-4-5.6-7.3-7.3s-6.9-2.6-10.5-3.5c-4.1-1-8.7-1.9-12.3,0.3c-3,1.8-4.5,5.4-4.7,8.9
		s0.9,6.9,1.9,10.3c1.1,3.3,2.2,6.7,2.3,10.2c0.1,3.7-0.9,7.3-1.6,10.9c-0.7,3.6-1.1,7.5,0.3,10.9c2.1,5.1,8,8.1,13.6,7.7
		c5.5-0.4,10.6-3.7,14.1-8c3.5-4.3,5.7-9.5,7.4-14.8"/>
	<path class="st4" d="M135,46.9c-0.9-5.6-1.8-11.4-0.7-16.9c1.1-5.6,4.5-11,9.9-12.9c2.5-0.9,5.2-0.9,7.9-0.7
		c1.4,0.1,2.8,0.3,3.8,1.3c1.2,1.2,1.1,3.1,1,4.8c-0.5,8.1-1,16.2-1.5,24.3"/>
	<path class="st4" d="M177.6,46.7c3.6-6.9,9.5-12.6,16.5-15.9c0.7,6.9,0.4,14-0.9,20.9"/>
	<path class="st4" d="M222.7,98.5c3.9-1.6,7.8-3.3,11.7-4.9c0.5-0.2,1.1-0.4,1.5-0.1c0.4,0.2,0.5,0.7,0.6,1.1
		c0.8,3.4,0.8,7.1,0,10.5"/>
	<path class="st4" d="M225.5,106.4c6.7-0.1,13.4-1.1,19.8-3c1,3.9,2.1,7.8,3.1,11.7c0.4,1.7,0.8,3.6,0,5.1c-0.8,1.4-2.4,2.1-3.9,2.6
		c-8.2,2.6-17.6,0.7-24.1-4.8"/>
	<path class="st4" d="M214,178.3c3.7,1,6.7,3.8,8.6,7.1s2.9,7,3.5,10.8c-5.5-1-10.9-2-16.4-2.9"/>
	<path class="st4" d="M199.9,190.6c2.8,5.6,5.1,11.6,6.9,17.7c-4.7,1.3-9.4,2.6-14.1,3.8c-0.7,0.2-1.4,0.4-2.1,0
		c-0.8-0.4-1.1-1.4-1.4-2.4c-1-3.4-2-6.7-3-10.1"/>
	<path class="st4" d="M81.6,189.2c-4.5,4.7-8.4,10.1-11.4,15.9c3.2,3.1,6.4,6.3,9.5,9.4c0.7,0.7,1.4,1.4,2.3,1.6
		c1.9,0.4,3.5-1.4,4.5-3c3.1-4.8,5.4-10.1,6.8-15.7"/>
	<path class="st4" d="M96.4,202.5c-0.9,5-1.9,10.1-2.8,15.1c6.3-0.7,12.2-4.4,15.4-9.9"/>
	<path class="st4" d="M48.5,163.2c-4.4,5.3-6.1,12.8-4.3,19.5c4.9-1.9,9.7-3.7,14.6-5.6"/>
	<path class="st4" d="M46.7,134.7c-5.8,1.5-11.5,2.9-17.3,4.4c-1.1,0.3-2.3,0.6-2.8,1.6c-0.6,1.1-0.1,2.4,0.3,3.5c1.2,3,2.4,6,3.6,9
		c0.7,1.7,1.4,3.4,2.8,4.6c2.5,2.1,6.1,1.6,9.2,0.6c4.6-1.4,9-3.6,12.9-6.5"/>
	<path class="st4" d="M54.2,94.2c-4.6-1.9-9.4-3.2-14.3-3.7c-1.3-0.1-2.7-0.2-3.8-0.9c-1.8-1-2.8-3.2-2.9-5.2
		c-0.2-4.3,2.6-8.1,5.2-11.5c1.4-1.8,3-3.8,5.3-4.3c2.8-0.7,5.5,1,7.9,2.5c4.3,2.8,8.7,5.7,11.7,9.8"/>
	<path class="st4" d="M66.7,77C63,72,59.2,67.1,55.5,62.2c-0.3-0.4-0.6-0.8-0.7-1.2c-0.3-0.9,0.1-1.9,0.7-2.6s1.4-1.2,2.2-1.6
		c1.3-0.7,2.6-1.5,4-1.9c1.4-0.4,3.1-0.3,4.3,0.5c1.1,0.7,1.8,1.8,2.4,2.9c2.2,3.9,3.7,8.1,4.6,12.4"/>
	<path class="st4" d="M140.5,224.2c1.3-5.2,1.5-7.4,0.6-11.9c-3.3,2.9-7.2,6.1-11.6,5.7c-2.3-0.2-4.5-1.4-6.7-1.8
		c-3.7-0.6-7.4,0.8-11.1,1.6c-3.7,0.8-8.1,0.6-10.4-2.3"/>
	<path class="st4" d="M169.7,227.8c0.5-4.8,2-10.7,3.1-18.1c1.4,1.2,3,2.2,4.7,3c1.5,0.7,3.4,1.1,4.8,0.2c0.8-0.5,1.3-1.3,1.9-2
		c1.3-1.4,2.3-2.2,4.2-2.1"/>
	<path class="st4" d="M206,203.1c0.5-1.1,1.8-1.6,3-1.8c1.2-0.2,2.4,0,3.6-0.2c3-0.6,5.3-3,5-6.1"/>
	<path class="st4" d="M222.3,183.3c2.2-2.6,4.5-5.3,6-8.4s2.3-6.7,1.4-10c-0.9-3.3-3.3-6.2-3.1-9.6c0.3-3.9,4.1-6.5,6.4-9.7
		c2.3-3.1,3.4-7.1,3.6-11c0.2-3.9-0.2-6.7-0.7-10.5"/>
	<path class="st4" d="M194.9,44c1.7-0.3,3.3,1.2,3.9,2.8c0.6,1.6,0.5,3.4,0.7,5.1c0.7,6.5,5.2,12.4,11.3,14.7
		c1.9,0.7,3.9,1.1,5.8,1.9c1.9,0.8,3.7,2,4.4,3.9c1.6,4-2,8.8-0.2,12.7c1,2.3,3.5,3.4,5.6,4.7s3.9,2.5,3.4,4.9"/>
	<path class="st4" d="M156.7,36.6c0.9-1.8,3.5-2.1,5.3-1.3c1.8,0.8,3.2,2.4,4.5,3.9c1.4,1.5,3,2.9,5,3.2c2.2,0.3,4.3-1,6.3-2.1
		s2.9-2.4,5.1-1.8"/>
	<path class="st4" d="M71.4,63.9c3.9,0.4,6.1-3.1,8.1-6.5c2-3.4,3.8-7.4,7.5-9c1.7-0.8,3.7-0.9,5.3-1.8c4.5-2.5,5.4-9.8,10.5-10.9
		c4.7-1,8.7,4.6,13.5,4.5c3.2,0,5.7-2.4,8.3-4.3s6.4-3.1,8.8-1"/>
	<path class="st4" d="M52.6,70.8c0.1-1.6,1.9-2.5,3.4-2.6c1.6-0.1,2.2,0.4,3.7-0.1"/>
	<path class="st4" d="M41.8,90.8c-5.3,1.6-8.3,8.2-6.1,13.3c0.9,1.9,2.4,3.6,3.2,5.5c1.9,4.3,0.4,9.3-1.2,13.8s-3.5,9.2-2.3,13.8"/>
	<path class="st4" d="M39.9,159.3c-0.8,1.3-1.6,2.6-1.8,4.1c-0.2,1.5,0.4,3.2,1.8,3.8c0.6,0.3,1.4,0.3,1.9,0.7
		c0.5,0.4,0.7,1.2,1,1.8c0.3,0.6,0.8,1.3,1.4,1.3"/>
	<path class="st4" d="M52.8,179.8c0.8,2.5,0.6,5.2,0.5,7.8c-0.2,2.6-0.4,5.3,0.4,7.8c0.8,2.5,2.7,4.8,5.3,5.2c1.7,0.3,3.4-0.3,5-1
		s3.1-1.4,4.8-1.6c1.7-0.2,3.6,0.3,4.5,1.8"/>
	<path class="st4" d="M88.4,210.1c0.7,0,1.4,0.3,1.9,0.9c0.4,0.5,0.6,1.2,0.9,1.8c0.7,1.1,1.5,1,2.7,0.7"/>
	<path class="st4" d="M195.6,317.1c-2.9,34-1.9,68.4,3.1,102.2"/>
	<path class="st4" d="M145.5,273.4c8.2,21.3,8.6,45,8.3,68.1c-0.4,33-1.9,66-4.6,98.9"/>
	<path class="st4" d="M168.8,271.6c-7.2,10.3-12.7,21.9-16,34"/>
	<path class="st4" d="M109.1,314.5c-4.7,41-0.1,72.9,0,114.1"/>
	<path class="st4" d="M135.1,281.9c-3.5,10.7-7,21.3-10.5,32c-1.2,3.5-2.3,7.1-2.6,10.8c-0.6,8,3.1,15.6,5.9,23.1
		c10.4,27.9,9.5,59,8.5,89.1"/>
	<path class="st4" d="M176.9,276.5c-4,17.2-5.8,25.5-3.3,35c1.1,4.2,6.5,20,5.8,24.5c-2,12.9-8.7,25.8-10.6,35.2
		c-3.8,18.6-1.3,38.6-5.1,69.2"/>
	<g>
		<g>
			<g>
				<polyline class="st1" points="269.9,244.4 267.9,234.1 258.2,226.2 241.5,217.8 				"/>
				<polygon class="st2" points="242.9,211.8 241.5,247.9 254.4,247.6 262.2,245.8 267.2,243.4 272.3,237.7 272.9,234.8 
					260.7,221.3 260.3,211.3 257,202.6 249.3,198.2 244.9,198.4 				"/>
				<polygon class="st2" points="269.3,183.3 260.4,189.1 257.8,197.9 264.2,205.3 269.3,208.2 272.3,215.2 276.4,217 279.3,223.1 
					287.1,225.7 294.1,221 298.2,215 292.6,208.4 288.8,206.3 288.8,201.9 285.4,197.2 280.6,195.5 280.3,189.2 275.5,183.9 				"/>
				<polygon class="st1" points="261,176.6 245.2,187.9 239.8,195.2 243.4,200.1 248.9,198.1 255.7,201.1 260.7,205.1 261.6,216.5 
					260.3,220.8 266.2,227.4 277.2,238.5 285.4,247.2 291.8,247.5 295.1,246.5 298.1,250.1 303.8,247.2 306.6,243.2 305.3,238.8 
					304.8,235.1 305.9,230.7 302,225.2 298.1,221.4 294.6,220.3 289.1,225.5 282,224 278.3,219.2 276.2,215.2 270.3,212.2 
					267.3,205.6 261.7,201.8 258.2,196.6 259.5,191.5 265.2,184.9 268.8,181.6 266.6,177.5 				"/>
				<path class="st4" d="M240.4,245.5c1-8.5,2.9-35.5,3.9-44c0.2-1.4,0.1-2,1.2-2.8c1-0.7,2.4-0.6,3.7-0.4c3.1,0.6,6.2,1.8,8.4,4
					c3.1,3.2,3.8,8,3,12.4s-2.9,8.3-5,12.2"/>
				<path class="st4" d="M269,203.3c3.9-2.1,7.3-5.1,9.9-8.6c1.2-1.5,2.2-3.3,2-5.3c-0.2-2.5-2.5-4.4-4.8-5.5
					c-1.8-0.9-3.7-1.5-5.7-1.3c-2.9,0.3-5.3,2.3-7.5,4.2c-1.3,1.2-2.7,2.4-3.7,3.9c-1,1.5-1.7,3.3-1.4,5.1c0.3,2.1,1.8,3.9,3.2,5.5
					c1.1,1.3,2.3,2.6,3.9,3.1C266.6,205,268.7,204.5,269,203.3z"/>
				<path class="st4" d="M274.7,199.4c1.3-1,2.7-2,4.3-2.7c1.6-0.6,3.3-0.9,4.9-0.3c1.6,0.6,2.7,1.9,3.8,3.2
					c0.9,1.1,1.9,2.4,1.8,3.9c-0.1,1.8-1.6,3.1-3,4.2c-2,1.6-4.1,3.3-6.1,4.9c-1.7,1.4-3.7,2.8-5.9,2.5c-2.3-0.4-3.7-2.6-4.8-4.6
					c-0.8-1.4-1.7-3-1.4-4.7c0.3-1.7,1.6-2.9,3-3.9C272.7,201.1,274,200,274.7,199.4z"/>
				<path class="st4" d="M282.8,210.9c1.7-2.4,4.9-3.7,7.9-3.3c2.9,0.5,5.6,2.7,6.5,5.5c0.3,1,0.4,2,0.2,3c-0.3,1-1,1.8-1.6,2.6
					c-1.6,1.7-3.3,3.3-5.2,4.7c-1.5,1.1-3.1,2.1-4.9,2.1c-3.1,0.1-5.5-2.6-7.4-5c-0.8-1-1.7-2.2-1.4-3.5c0.2-0.8,0.8-1.4,1.5-2
					C280,213.5,282,212.1,282.8,210.9z"/>
				<path class="st4" d="M259.3,219.7c7.7,8.3,15.3,16.6,23,24.9c1.2,1.3,2.6,2.8,4.4,3c2,0.3,3.9-0.9,5.5-2.1c3.8-2.8,7.5-5.8,11-9
					c1.4-1.3,2.9-2.9,2.8-4.8c-0.1-1.5-1.2-2.8-2.2-3.9c-2.9-3.2-4.7-5.9-7.6-9.1"/>
				<path class="st4" d="M244.5,199.7c-1.2-0.6-2.5-1.2-3.4-2.2s-1.5-2.4-1.1-3.7c0.3-1,1.2-1.8,2-2.5c5.4-4.6,10.8-9.2,16.2-13.8
					c1.1-0.9,2.3-1.9,3.7-1.8c3.7,0.2,5.1,3.5,7.2,7"/>
				<g>
					<path class="st7" d="M223.8,151.2c-5.3,6.5-8.3,14.9-6.5,22.9c1.8,7.9,9.1,14.8,17.7,15c6.4,0.2,12.5-3.2,17-7.7
						c4.8-4.8,8.1-11.1,8-17.6c-0.1-8.2-5.9-16-14.1-18.7C237.7,142.3,228.6,145.3,223.8,151.2z"/>
					<path class="st9" d="M249.7,156.7c-1.4-2.9-4.6-4.3-7.8-4.9c-4.5-0.9-9.3-0.4-13.6,1.3"/>
					<path class="st9" d="M248.4,159.8c-6.8-4.6-16.6-4.4-23.3,0.5"/>
					<path class="st9" d="M246.3,164.3c-7.5-2.6-16.2-1.1-22.4,3.8"/>
					<path class="st9" d="M235,149c-5.4,5.2-7.6,13.5-5.5,20.7"/>
					<path class="st9" d="M240.2,149.8c-4.9,4.7-7,12.1-5.4,18.7"/>
					<path class="st9" d="M244.3,150.8c-4.1,4.9-5.7,11.7-4.3,17.9"/>
					<path class="st9" d="M250.6,152.8c-4.1,4.4-6.4,10.4-6.3,16.4"/>
				</g>
			</g>
			<path class="st4" d="M293,245c1.1,0.7,1.9,1.9,2.7,2.9c0.9,1,2.1,1.9,3.5,1.7c1-0.1,1.8-0.8,2.5-1.5c1.2-1.1,2.3-2.1,3.5-3.2
				c0.6-0.6,1.3-1.2,1.6-2c0.5-1.2,0-2.7-0.8-3.7s-2-1.8-3.1-2.5"/>
		</g>
		<path class="st4" d="M261.4,245.5c7.2,1.8,11-8.9,10.9-12.1"/>
	</g>
	<path class="st4" d="M194,245.3c11.9,4.4,22.4,33.8,23.7,46.5c1.5,14.6-0.9,26.2,0.3,48c2.9-25.1,7-59.2,9.1-86.2
		c11.8,4.9,32.5,7.6,44.2,12.6c2.9,1.2,6,2.6,7.3,5.4c1.2,2.6,0.7,5.6,0.1,8.4c-4.5,20.7-16.3,48.7-25.1,67.9
		c-5.4,11.7-12.9,24.2-25.4,27.5c-11.6,3.1-23.6-2.9-33.9-9.2"/>
	<path class="st4" d="M231.1,254.5c-0.1-3.1,0.6-6.2,1.9-9c13,1.9,26.1,3.7,39.1,5.6c0.9,0.1,2,0.3,2.6,1.1c0.5,0.7,0.5,1.6,0.4,2.5
		c-0.3,4.4-0.6,8.9-0.9,13.3"/>
	<path class="st4" d="M260.2,245.9c-0.2,0.8-0.3,1.6-0.5,2.5"/>
	<path class="st4" d="M118.3,247.9c-10.1,3.9-20.2,7.9-29.5,13.3c-9.3,5.5-17.9,12.6-23.6,21.7c-6,9.5-8.6,20.7-10.7,31.8
		c-7.2,39.1-7.8,79.4-3.2,118.9"/>
</g>
<g id="Calque_4">
	<path class="st5" d="M167.3,162.8c-0.4,2.6,0.3,5.2,0.8,7.7c0.5,2.6,0.6,5.4-0.8,7.6c-2.1,3.3-4.6,2.8-8.1,4.6
		c-6.4,3.3-12.2-0.8-16.8-2.2c-4.6-1.5-8.8-4.7-10.4-9.3C143.9,170.6,155.7,168.2,167.3,162.8z"/>
	<path class="st4" d="M145.8,126.1c2.9-5.7,10.4-8.6,16.3-6.2s9.4,9.6,7.5,15.8c-1.9,6.1-8.8,10.2-15.1,8.8c2,3.2,3.4,6.9,4.1,10.6
		c4.6-0.2,9.2-1.5,13.1-4c0.9,5.4-4.2,9.9-9,12.4c-9.4,4.8-20.1,6.8-30.5,5.9c1.3,8,9.2,13.7,17.2,14.6c8,0.9,16-2.2,22.9-6.5
		c-1,9.3-8.4,17.6-17.6,19.5"/>
</g>
<g id="Calque_9">
</g>
<g id="Calque_6">
	<g>
		<path class="st3" d="M190.9,81.7c-10.4,2.2-19.4,10.4-21.9,20.7s2.2,22.1,11.5,27.3c9.3,5.2,22.3,2.6,28.4-6.1
			c3.8-5.6,4.7-12.7,4.3-19.4c-0.4-6.3-2-12.9-6.2-17.6C202.7,81.7,196,80.6,190.9,81.7z"/>
		<path class="st7" d="M202.9,98.3c-1.6-4.9-7.2-7.9-12.2-7.1s-9.3,4.8-10.9,9.7s-0.8,10.3,1.7,14.9c1.4,2.6,3.4,5,6,6.2
			c3.7,1.7,8.3,0.9,11.5-1.5c3.2-2.5,5.1-6.4,5.6-10.5C205,105.9,204.1,101.8,202.9,98.3z"/>
	</g>
	<g>
		<path class="st3" d="M117.3,88.8c-10.4,2.2-19.4,10.4-21.9,20.7c-2.5,10.3,2.2,22.1,11.5,27.3c9.3,5.2,22.3,2.6,28.4-6.1
			c3.8-5.6,4.7-12.7,4.3-19.4c-0.4-6.3-2-12.9-6.2-17.6S122.4,87.7,117.3,88.8z"/>
		<path class="st7" d="M129.4,105.4c-1.6-4.9-7.2-7.9-12.2-7.1c-5.1,0.7-9.3,4.8-10.9,9.7c-1.6,4.9-0.8,10.3,1.7,14.9
			c1.4,2.6,3.4,5,6,6.2c3.7,1.7,8.3,0.9,11.5-1.5s5.1-6.4,5.6-10.5C131.5,113,130.5,108.9,129.4,105.4z"/>
	</g>
	<path class="st2" d="M86.3,108.9c20-3.4,39.9-6.7,59.9-10.1c-2.5-3.3-5-6.6-9.4-10.9c-5.7-6.7-14.6-10.7-23.4-10.4
		s-17.4,4.9-22.6,12C86.5,95.4,84.7,103.7,86.3,108.9z"/>
	<path class="st2" d="M163.4,100c16.4-0.5,32.7-2.2,48.8-5.1c-0.6-7.1-4.2-13.9-9.8-18.3c-5.6-4.4-13-6.4-20-5.4
		c-7.1,1-13.9,5.3-16.8,11.8C162.7,89.5,164.6,98.2,163.4,100z"/>
	<path class="st4" d="M139.6,100.4c-16.8,0.4-33.5,3.9-49.1,10.3"/>
	<path class="st4" d="M214.1,96c-15.9,0.8-31.7,2.8-47.2,6.2"/>
	<path class="st13" d="M128.4,67.8c-5.7-4.1-13.7-4-20-1c-6.3,3.1-11,8.8-14.1,15.1c-3.1,6.3-4.7,13.2-6.2,20
		c5.1-14.4,19-25.2,34.2-26.5c2.3-0.2,4.8-0.3,6.4-1.9C130.3,72,129.7,68.6,128.4,67.8z"/>
	<path class="st13" d="M167.1,68.3c7.4-3.8,16.4-4.3,24.2-1.4c7.8,2.9,14.2,9.2,17.3,16.9c-13.2-5.3-27.1-10.7-41.1-8.6
		c-0.9,0.1-1.9,0.3-2.8-0.1c-1.5-0.7-1.7-2.9-0.9-4.3C164.5,69.4,166.1,68.8,167.1,68.3z"/>
	<path class="st17" d="M178.3,160.5c1.9-4.1,4.9-7.6,8.5-10.3c1.2-0.9,2.9-1.7,4.1-0.7c0.8,0.7,0.8,2,0.3,2.9
		c-0.5,0.9-1.4,1.6-2.3,2.2C185.5,156.9,181.8,158.9,178.3,160.5z"/>
	<path class="st17" d="M194.1,157.3c3.7-3.2,8.2-5.3,12.9-6.2c1-0.2,2.3-0.3,3,0.5c0.9,0.9,0.4,2.6-0.7,3.3s-2.4,0.8-3.7,0.9
		C201.8,156,197.9,156.2,194.1,157.3z"/>
	<path class="st17" d="M205.6,161.9c4.9-0.6,10,0.2,14.5,2.3c0.9,0.4,1.9,1,2,2c0.1,1-0.8,1.8-1.7,2c-0.9,0.2-1.9-0.1-2.8-0.4
		C213.4,166.3,209.5,164.1,205.6,161.9z"/>
	<path class="st17" d="M208.3,146.3c2.7-3.9,6.9-6.8,11.5-8.1c1.2-0.3,2.6-0.5,3.4,0.4c0.8,0.9,0.5,2.3-0.3,3.2
		c-0.8,0.9-1.9,1.3-3,1.6C216.3,144.4,212.7,145.3,208.3,146.3z"/>
	<path class="st17" d="M219.3,149.3c3-2.2,7.8-1.1,9.6,2.1C225.3,150.7,221.7,150,219.3,149.3z"/>
</g>
<g id="Calque_7">
</g>
</svg>
