<?xml version="1.0" encoding="utf-8"?>
<!-- Generator: Adobe Illustrator 25.2.3, SVG Export Plug-In . SVG Version: 6.00 Build 0)  -->
<svg version="1.1" xmlns="http://www.w3.org/2000/svg" xmlns:xlink="http://www.w3.org/1999/xlink" x="0px" y="0px"
	 viewBox="0 0 350 450" style="enable-background:new 0 0 350 450;" xml:space="preserve">
<style type="text/css">
	.st0{fill:none;stroke:#003769;stroke-width:5;stroke-linecap:round;stroke-linejoin:round;stroke-miterlimit:10;}
	.st1{fill:#4092E8;}
	.st2{fill:#FFAC2F;}
	.st3{fill:#FFFFFF;}
	.st4{fill:none;stroke:#003769;stroke-width:4;stroke-linecap:round;stroke-linejoin:round;stroke-miterlimit:10;}
	.st5{fill:#FE450E;}
	.st6{fill:#003769;stroke:#003769;stroke-width:3;stroke-linecap:round;stroke-linejoin:round;stroke-miterlimit:10;}
	.st7{fill:#003769;}
	.st8{fill:none;stroke:#FFFFFF;stroke-width:4;stroke-linecap:round;stroke-linejoin:round;stroke-miterlimit:10;}
	.st9{fill:none;stroke:#FFFFFF;stroke-linecap:round;stroke-linejoin:round;stroke-miterlimit:10;}
	.st10{fill:none;stroke:#003769;stroke-width:5.6325;stroke-linecap:round;stroke-linejoin:round;stroke-miterlimit:10;}
	.st11{fill:#FE450E;stroke:#003769;stroke-width:4;stroke-linecap:round;stroke-linejoin:round;stroke-miterlimit:10;}
	.st12{fill:#FFAC2F;stroke:#003769;stroke-width:4;stroke-linecap:round;stroke-linejoin:round;stroke-miterlimit:10;}
	.st13{fill:#003769;stroke:#003769;stroke-width:4;stroke-linecap:round;stroke-linejoin:round;stroke-miterlimit:10;}
	.st14{fill:#FFFFFF;stroke:#003769;stroke-width:4;stroke-linecap:round;stroke-linejoin:round;stroke-miterlimit:10;}
	.st15{fill:none;stroke:#003769;stroke-width:2;stroke-linecap:round;stroke-linejoin:round;stroke-miterlimit:10;}
	.st16{fill:none;stroke:#003769;stroke-width:2;stroke-miterlimit:10;}
	.st17{fill:#89E2F5;}
	.st18{fill:#003769;stroke:#003769;stroke-width:5.6325;stroke-linecap:round;stroke-linejoin:round;stroke-miterlimit:10;}
	.st19{fill:#4092E8;stroke:#003769;stroke-width:4;stroke-linecap:round;stroke-linejoin:round;stroke-miterlimit:10;}
	.st20{fill:none;stroke:#FFFFFF;stroke-width:2;stroke-linecap:round;stroke-linejoin:round;stroke-miterlimit:10;}
</style>
<g id="Calque_5">
</g>
<g id="Calque_2">
</g>
<g id="Calque_4">
</g>
<g id="Calque_9">
	<path class="st2" d="M186.6,229.3c-0.7,5-1.3,9.9-2,14.9c3,4.4,8.8,5.9,14.1,6.1c5.3,0.2,10.7-0.6,15.9,0.5
		c6.3-8,6.8-19.1,6.9-29.4c2,2.2,5.6,2.1,8.2,0.6c2.6-1.4,4.4-3.9,6.3-6.2c1.9-2.3,3.9-4.6,7.5-5.3c3.2,1.8,7,2.3,10.5,1.5
		c-1.3-2.3-2.6-4.6-3.9-6.9c0.1,1.4,2.2,1.9,3.4,1.2c1.2-0.8,1.8-2.2,2.2-3.6c1.4-4.1,2.8-8.1,4.2-12.2c-0.2,2.5,2.7,4.4,5.2,3.9
		c2.5-0.5,4.2-2.8,5.1-5.1c2.8-7.6-1.3-15.8-3.5-23.6c2.6-0.5,4.5-3.4,3.9-6c-0.2-0.8-0.6-1.7-0.4-2.5c0.4-1.5,2.6-1.8,3.8-0.8
		c1.2,1,1.6,2.6,2.2,3.1c2.6-1.1,4.6-3.8,4.7-6.6c0.2-2.9-1.4-5.7-3.9-7.1c-1.9-1-4.4-1.6-4.9-3.7c-0.4-1.5,0.7-3,1.3-4.4
		c1.7-3.6,1-8.3-1.6-11.3c4.2,0.5,8-2.9,9.4-6.9s0.6-8.4-0.4-12.4c-5.1,2-10.3,3.6-15.6,4.7c3.1-3.9,1.7-10.5-2.8-12.7
		c2.8-3.9,5.6-7.9,8.4-12c-5.7,0.2-11.4,1.3-16.7,3.2c0.7-2.8,1.5-5.8,0.8-8.6c-0.7-2.8-3.3-5.4-6.2-5.1c-1,0.1-2,0.6-3,0.2
		c-1.4-0.6-1.3-2.6-1-4.1c0.9-4.8,1.9-9.5,2.8-14.3c-9.7,2.5-19.7,4-29.6,4.5c-0.1-1.7-0.2-3.5-1.2-5c-1-1.4-3-2.3-4.5-1.3
		c-0.8,0.6-1.2,1.6-1.9,2.4c-2.1,2.6-6.2,1.8-9.4,0.9c0.6-2.5,1.1-5.1,0.9-7.7c-0.3-2.6-1.5-5.2-3.8-6.4c-3.1-1.6-7-0.2-9.4,2.3
		c-2.3,2.5-3.4,6-4.4,9.3c-1.2-2.3-4.3-3.1-6.9-2.4c-2.5,0.7-4.6,2.4-6.6,4.2c-2,1.7-4,3.5-6.5,4.2c-1.1-5.4-1.3-11-0.6-16.5
		c-7.4,5.4-12.5,13.9-13.9,23c-4.7-1-10,1.5-12.2,7.6c-1.5-4.2-3.1-8.4-4.6-12.6c-2.9-0.7-6.1,0.4-7.9,2.8c-1.8,2.4-2,5.8-0.5,8.3
		c0.9,1.6,2.4,3.1,2,4.8c-0.8,3.5-6.8,1.7-9.2,4.3c-1.3,1.4-1.1,3.7-2.2,5.2c-1.6,2.2-4.9,1.8-7.7,1.5c-2.7-0.3-6.3,0.3-6.8,3
		c3.3,0.9,5.9,3.7,6.7,7c-3.3-2.2-7.5,1.4-8.7,5.2c-1.1,3.8-1,8.1-3.4,11.2c-2.4,3.1-6.6,3.9-10.5,4.5c1.9,3.9,5.6,6.9,9.8,7.9
		c-2.3,2.2-2.8,6.1-1.2,8.8c-4.1-0.1-8.2-0.2-12.2-0.3c-0.8,3.7-1.7,7.5-1.3,11.2s2.1,7.6,5.4,9.5c3.3,1.9,8.1,1,9.9-2.3
		c-3.3,5.4-3,12.8,0.9,17.8c1.4,1.8,3.2,3.4,4.1,5.4c0.9,2.1,0.5,5-1.5,5.9c-2.8,1.2-6.7-2-9,0.2c4.4,3.8,8.3,7.6,18.8,13
		c2.3,1.2-1.7,1.9,0.4,3.5c9.3,7,20.7,11.3,28.8,19.7c2.7,2.8,5.1,6.1,7.9,8.8c2.9,2.7,6.6,4.8,10.5,4.8c4.9-0.1,9.3-3.5,14.2-3.5
		c3.4,0,6.5,1.7,9.9,1.8S187.6,232.3,186.6,229.3z"/>
	<path class="st2" d="M200.9,283.5c25.6,32.7,44.1,70.9,53.6,111.3c6.8-37.1,1.7-76.4-14.4-110.5c-9.3,6.4-24.2,1.7-28.2-8.9
		c-2.4-0.3-4.8-0.6-7.2-0.9C203.1,277.4,201.5,280.4,200.9,283.5z"/>
	<path class="st5" d="M193.9,253.7c-1.6-4.4-5.2-8-9.6-9.6s-9.6-0.8-13.2,2.2c-3.6,3-5.3,8.1-4,12.6c1.3,4.1,4.8,7.4,5.3,11.6
		c0.4,4.2-2.2,8.1-2.4,12.2c-0.2,4.9,3.3,9.6,7.8,11.5c4.6,1.9,10,1.1,14.3-1.2c4.4-2.3,7.8-6.2,11.5-10.3c-0.5-2.5,0.4-5.2,2.2-7
		c1.8-1.8,4.6-2.5,7.1-2c0.2,5,3.8,9.6,8.4,11.6s10,1.8,14.7,0.2c3.2-1.1,6.2-2.9,8.5-5.4c2.2-2.5,3.6-5.9,3.3-9.3
		c-0.4-5.1-4.3-9.4-5.1-14.5c-0.6-4,0.7-8.3-0.5-12.2c-1.3-4.3-5.9-7.3-10.5-7.2c-4.5,0.1-8.8,2.9-11.2,6.7
		c-1.6,2.5-2.7,5.8-5.6,6.6c-1.4,0.4-2.8,0.2-4.3,0C204.8,249.7,198.5,250.8,193.9,253.7z"/>
	<path class="st1" d="M145.8,260c-5.2,0.7-6.2,8.1-4,12.9s6,9.2,5.7,14.4c-0.2,5-4.2,9-5.7,13.7c-1.5,4.6-0.6,9.6-1.4,14.4
		c-0.9,5.8-4,11-7,16c-6.2,10.1-12.3,20.3-18.5,30.4c10.4,18.2,20.8,36.4,31.2,54.6c2.7,4.7,5.4,9.5,9.6,13
		c7.4,6.3,17.9,7.3,27.7,7.3c27.3,0,54.7-5.8,79.7-16.8c-21.1-49.1-56.3-91.8-99.8-122.9c-5-3.6-10.5-7.5-12.1-13.4
		c-1.7-5.9,3.4-13.7,9.3-11.9C156.2,266.3,150.6,261.9,145.8,260z"/>
	<path class="st1" d="M255.5,276.5c5.9,8.3,10.5,17.6,13.3,27.4c-2.4-3.6-6.2-6.3-10.5-7.3c8.2,19.3,10.6,41.1,6.9,61.7
		c-1.8,10.2-5.1,20.1-6.7,30.4c-1.5,10.3-1.3,22.3,3.8,31.3c3.4-1.2,9.3-4.5,12.7-5.7c8.9-34.8,10.5-69.9,9.6-105.9
		c-0.1-5.1-0.4-10.3-2.5-14.9C277.5,283.7,265.9,279.7,255.5,276.5z"/>
</g>
<g id="Calque_6">
</g>
<g id="Calque_7">
	<path class="st11" d="M146.7,208.8c-1.5-2.6,0-6.1,2.4-7.8c2.5-1.7,5.6-2.2,8.6-2.6c18-2.9,35.4-9.7,50.5-19.9c3-2,6-4.2,9.5-5.3
		c3.5-1.1,7.7-0.8,10.3,1.8c2.2,2.2,2.9,5.5,2.4,8.6c-0.5,3.1-2.1,5.8-3.8,8.4c-8.5,12.1-22.2,20.1-36.8,22.8
		C175.3,217.3,151.6,217.2,146.7,208.8z"/>
	<path class="st3" d="M228.3,181.2c-20,12.8-41.1,20.8-64.2,26.4c-1.2-3.2,0-5.4-1.4-8.1c21.7-5.3,32.3-10.7,47-19.8
		c4.3-2.7,5.9-4.7,11.3-5.2C225.5,174.2,229.4,177.2,228.3,181.2z"/>
	<path class="st4" d="M173.5,167.4c-3.4-3-8.8-3.5-12.7-1.1c-3.9,2.4-6,7.3-5.1,11.8c0.9,4.5,4.7,8.2,9.2,9.1
		c4.5,0.9,9.4-0.9,12.2-4.5"/>
	<path class="st4" d="M124.8,159.4c5.8-4.6,14.6-4.9,20.8-0.9"/>
	<path class="st13" d="M113.7,128.8c12.8-3.7,27.6,1.1,35.7,11.6c0.9,1.1,1.7,2.5,1.2,3.8c-0.7,1.8-3.3,1.8-5.2,1.4
		c-9-2.1-17.5-6.5-24.3-12.7c-1.2-1.1-2.4-2.3-3.9-3S113.9,129,113.7,128.8z"/>
	<path class="st13" d="M175.8,106c-2.2,1-4.4,2-5.9,3.9c-1.4,1.9-1.8,4.9,0,6.5c1.2,1.2,3.1,1.3,4.8,0.9s3.1-1.4,4.5-2.3
		c12.4-7.4,28.1-9.1,41.8-4.5C208,100.8,189.8,99.7,175.8,106z"/>
	<path class="st13" d="M112.4,207.4c-16.2-3.4-34.2,4.7-42.5,19S63.3,260.3,74,273s29.6,17.7,45.2,12.1c15.6-5.6,27-21.4,27.5-37.9
		c0.3-9.4-2.8-18.9-8.8-26.1C131.7,213.8,122.5,209.5,112.4,207.4z"/>
	<path class="st12" d="M129.6,280.5c-4.6,2.5-9.2,5.1-13.1,8.6c-3.8,3.6-6.9,8.3-7.3,13.5c-0.4,5.2,2.2,10.9,6.9,13
		c6.6-2.5,13.3-5.1,19.1-9.3s10.5-10.1,11.6-17.1c1.1-7-2.2-14.9-8.6-17.8C135.2,274.7,132.9,278.8,129.6,280.5z"/>
	<path class="st12" d="M67.6,263.7c-4.1,5.2-4.7,12.6-2.5,18.8c2.2,6.2,6.7,11.4,12,15.3c5.3,3.9,11.3,6.7,17.3,9.5
		c1.7,0.8,3.6,1.6,5.5,1.2c2.7-0.6,4.3-3.5,5.3-6.1c1.1-2.7,2.1-5.5,3.1-8.3c0.4-1.3,0.9-2.8,0.4-4.1c-0.9-2.2-3.8-2.7-6.2-2.9
		C88.1,285.6,74.7,276.6,67.6,263.7z"/>
	<path class="st12" d="M67.9,287.1c-0.2,4.6-0.5,9.2,0.3,13.7c0.8,4.5,2.7,8.9,6.2,12c3.5,3,8.1,4.3,12.7,5.1
		c4.6,0.8,9.3,1.1,13.9,1c2.1,0,4.4-0.2,6.1-1.4c2.4-1.6,3.3-4.7,3.1-7.6c-0.3-2.8-1.5-5.5-2.8-8.1c-1.5,2.7-3.5,5.7-6.5,6.3
		c-2.2,0.4-4.5-0.5-6.5-1.5C84.3,302,73.8,296.9,67.9,287.1z"/>
	<path class="st12" d="M70.4,306.9c1.4,4.6,2.8,9.3,5.1,13.5c2.3,4.2,5.7,8,10.1,10c5.5,2.5,11.9,1.8,17.9,1.1
		c2.9-0.3,5.9-0.7,8.6-2c2.7-1.3,5-3.7,5.4-6.6c0.5-4-2.4-7.5-5.2-10.4c-1.5,3.3-5,5.3-8.5,6c-3.5,0.7-7.2,0.2-10.8-0.3
		c-4.2-0.6-8.5-1.2-12.5-2.7C76.5,314.2,72.7,311.7,70.4,306.9z"/>
	<path class="st4" d="M196.6,273.4c-2.4-6.7-3.5-13.8-2.4-21.8c5.7-1.6,11.6-2,17.4-1.2c1,0.1,2.2,0.4,2.9,1.1c1,1,1,2.5,1,3.9
		c0,4.5,0,9,0,13.5c0,1.2,0,2.5-0.7,3.5c-0.8,1.1-2.3,1.5-3.7,1.7C206.2,274.7,201.2,274.3,196.6,273.4z"/>
	<path class="st4" d="M214.1,251.5c3.2-5.2,6.6-10.7,11.9-13.7c5.4-2.9,13.3-2.1,16.2,3.3c2.7,5.2-0.2,11.6,1.2,17.3
		c1,3.9,4,7.1,4.9,11.1c1,4.1-0.6,8.6-3.4,11.6c-2.9,3.1-6.9,4.9-11,5.7c-4.8,0.9-10,0.4-14.2-2.1c-4.2-2.4-7.2-5.4-7.4-10.3"/>
	<path class="st4" d="M216.3,262.8c2.6-3.5,6.1-6.4,10-8.2c0.9-0.4,1.9-0.8,3-0.9c1-0.1,2.2,0.3,2.8,1.1c0.8,1,0.8,2.5,0.2,3.5
		s-1.8,1.8-2.9,2.2s-2.5,0.5-3.7,0.6"/>
	<path class="st4" d="M216.1,267.7c1.5,2.3,4.3,3.7,7.1,4c2.8,0.3,5.6-0.4,8.2-1.4"/>
	<path class="st4" d="M193.4,260.5c-2.5-2.3-5.6-3.9-9-4.6c-1.5-0.3-3.2-0.4-4.2,0.7c-1.2,1.2-0.9,3.3-0.1,4.7
		c1.2,2.1,3.3,3.6,5.7,4"/>
	<path class="st4" d="M193.4,269.6c-1.8,4-5.8,6.8-10.2,7.2"/>
	<path class="st4" d="M187.2,230.4c-0.4,4.4-1.1,8.8-2.2,13.1"/>
	<path class="st4" d="M220.2,222.7c0.1,7.8-0.7,15.6-2.4,23.2"/>
	<path class="st14" d="M138.4,305c5,10.6,0.9,24.6-9.1,30.8c-6,3.7-13.2,4.6-20.2,5.2c-7.1,0.6-14.3,0.9-21.3-0.7
		c-6.9-1.5-13.7-5.1-17.7-11c-4-5.9-4.8-14.2-0.8-20.1c2.2,8.6,8.2,16.2,16,20.3s17.5,4.6,25.8,1.5c2.8-1.1,5.6-2.7,7-5.4
		c1.4-2.7,0.8-6.6-1.9-7.9C124.5,314.5,132.2,310.4,138.4,305z"/>
	<path class="st19" d="M63,282c-10.6,13.5-20.6,28.2-23.7,45s2,36.3,16.4,45.6c9.5,6.1,21.6,7.1,32.6,4.5
		c18.9-4.5,35-20.1,38.8-39.1c-14.4,5.7-31.2,5.1-45.1-1.6c-5.2-2.5-10.2-6-12.9-11.2c-2.6-5.2-2.3-12.2,2.1-16
		c-4.2-2.5-4-8.6-3.4-13.5C68.2,290.9,67.6,284.6,63,282z"/>
	<path class="st4" d="M125.7,149.7c7.8,0,15.5,3.7,20.3,9.8c-7,1.5-13.2,6.7-15.9,13.3"/>
	<path class="st14" d="M202.6,123.2c-4.7-0.6-14,0.2-18.2,5.7c-4.9,6.5-6.2,15.7-2.9,23.1c3.4,7.4,11.4,12.6,19.5,12.3
		s15.8-6.4,17.7-14.4c1.1-4.8,0.2-10-1.8-14.5c-1.4-3.3-3.3-6.3-6-8.6S204.8,123.5,202.6,123.2z"/>
	<path class="st4" d="M151.6,79.1c-0.7-6.4-0.8-13.1,1.1-19.2c1.9-6.2,6-11.9,11.9-14.6c-2.9,8.8-1.2,18.9,4.3,26.3"/>
	<path class="st4" d="M185.9,65.2c-1.1-6.7,0.4-13.7,3.9-19.4c4.2,1.2,8.7,1,12.7-0.7c-2.6,7.8-3,16.3-1.1,24.3"/>
	<path class="st4" d="M206.1,73.9c0.5-6.2,2.3-12.4,5.2-17.9c2.1,1.2,4.5,2,6.9,2.4c-2.5,5.1-3.5,11-2.9,16.6"/>
	<path class="st4" d="M228.3,74.8c0.5-4.9,3.6-9.3,7.7-12.2c4-2.9,8.8-4.4,13.7-5.4c-4.1,5.3-5.7,12.5-4.2,19.1"/>
	<path class="st4" d="M248.7,92c7.8,0.1,15.6-2.6,21.7-7.5c-1.3,6.9-5.8,13.1-11.9,16.5c0.2-0.1,0.4-0.2,0.6-0.4"/>
	<path class="st4" d="M257.8,112.2c8,0.7,16.2-1.2,23.1-5.3c-0.9,2.4-0.3,5,0.2,7.5c0.5,2.5,0.8,5.3-0.5,7.4
		c-1.1,1.8-3.2,2.7-5.2,3.3c-4.4,1.4-9.1,1.8-13.7,1.2"/>
	<path class="st4" d="M262.3,138.4c6,2.4,11.6,5.7,16.7,9.7c0.9,0.7,1.8,1.5,1.8,2.6c0,0.6-0.2,1.1-0.5,1.7c-1.2,2.5-2.4,5-3.5,7.4
		c-3.5-4.1-8.5-6.8-13.9-7.4"/>
	<path class="st4" d="M233.8,203.7c5,6.2,13.1,9.8,21.1,9.5c-4.4-4.1-7.5-9.6-8.7-15.5"/>
	<path class="st4" d="M252.3,184.6c4.7,2.9,9,6.6,12.6,10.8c2.5-3,5-6.1,6.1-9.9c0.3-1.2,0.5-2.4,0.4-3.6c-0.2-3-1.9-5.7-4.1-7.7
		c-2.2-2-4.9-3.5-7.5-4.9"/>
	<path class="st4" d="M144,83.2c-5.6-4.7-9.3-11.7-10.1-18.8c-2.7-1.2-5.9-0.1-8.3,1.7c-1.3,1-2.4,2.4-2.5,4c-0.1,1.4,0.6,2.8,1.3,4
		c2.1,3.5,4.4,6.8,7,9.8"/>
	<path class="st4" d="M122,96.2c-2.8-2.9-6.8-4.6-10.9-4.6s-8.1,1.5-11,4.3c5.4,1.6,10,5.5,12.6,10.4"/>
	<path class="st4" d="M193.8,251.1c-3.1-3.1-4.8-5.1-8.9-6.8c-4.1-1.7-8.9-2.1-12.8-0.1c-3.9,2-6.7,6.6-5.7,10.9
		c1.1,4.8,6.3,8.2,6.5,13.1c0.2,3.5-2.2,6.7-2.9,10.1c-1.2,5.7,2.7,11.7,8,13.9s11.8,0.9,16.5-2.4s8.1-8.4,10.2-13.8"/>
	<path class="st4" d="M112.1,176c-0.5,4.8-4.4,8.7-8.9,10.4c-4.5,1.7-9.6,1.4-14.3,0.3c3.7,3.4,7.4,6.9,11.9,9
		c4.5,2.2,10,2.9,14.5,0.6"/>
	<path class="st4" d="M102.5,138.1c-7.1,2.8-15.1,3.1-22.3,0.8c0,4.7,0,9.3,0.1,14c0,1.7,0.1,3.5,1.1,4.7c1.2,1.4,3.2,1.7,5,1.7
		c6.5,0,12.9-2.8,17.4-7.5"/>
	<path class="st4" d="M245.8,77.6c1.6-1.2,3.8-1.4,5.6-0.6c1.8,0.8,3.1,2.7,3.2,4.6c0.1,1.5-0.4,3-0.5,4.5c-0.1,1.5,0.5,3.3,2,3.8"
		/>
	<path class="st4" d="M262.7,99.3c2.2,0.4,3.6,2.6,3.8,4.8c0.2,2.2-0.5,4.3-1.3,6.4"/>
	<path class="st4" d="M271,128c2.8,0.9,4.6,4.2,3.8,7.1c-0.4,1.3-1.1,2.4-1.7,3.6c-0.6,1.2-1,2.6-0.5,3.9"/>
	<path class="st4" d="M268.5,156.7c1,1,2,2,2.6,3.3c0.5,1.3,0.5,2.9-0.6,3.9c-1,0.9-2.8,1.1-3.3,2.3c-0.4,0.8,0,1.8,0.5,2.6
		c0.5,0.8,1.1,1.5,1.4,2.4c0.2,0.9-0.1,2-1,2.3"/>
	<path class="st4" d="M259.2,190.6c-1.7,1.4-2.3,3.7-2.5,6s-0.1,4.5-1,6.6c-0.8,2.1-3,3.8-5.1,3.3"/>
	<path class="st4" d="M240.8,211.3c-4.7,1.4-4.9,9.2-9.6,10.7c-2,0.6-4-0.1-6.1-0.4c-2-0.4-4.5-0.2-5.6,1.5"/>
	<path class="st4" d="M103,130.5c-7.2,0.6-14.5-2.4-19.1-7.9c6.1,0.2,12.2-2.3,16.4-6.6"/>
	<path class="st4" d="M107.3,101.7c-3.6-0.6-7.4,1.3-9.2,4.4c-1.8,3.1-1.4,7.4,0.9,10.2"/>
	<path class="st4" d="M115.6,92.5c-0.1-1.6-0.3-3.2,0.1-4.8s1.2-3.1,2.6-3.8c1.4-0.7,3.1-0.6,4.7-0.8s3.3-1,3.6-2.6"/>
	<path class="st4" d="M137.8,75.5c0.1-2.6,2.2-4.9,4.6-5.9c2.4-1,5.1-1,7.8-1.1"/>
	<path class="st4" d="M164.7,63.3c1.9,0.1,3.6-1,4.9-2.3c1.3-1.3,2.4-2.9,3.9-4c3-2.3,7.4-2.6,10.6-0.7c-0.1,0.2-0.2,0.4-0.3,0.5"/>
	<path class="st4" d="M200.8,60.7c1.4-2.3,5.3-2.5,6.9-0.4"/>
	<path class="st4" d="M216.6,62.5c1.6,1.5,4,1.7,6.2,1.2c2.1-0.4,4.1-1.4,6.2-2.1s4.5-0.8,6.4,0.3"/>
	<path class="st4" d="M94.2,129.6c-2.6,2.2-3,6.5-0.9,9.2"/>
	<path class="st4" d="M95.4,157.7c-1.8,3.8-3.6,8.1-2.2,12.1c0.7,1.9,2.1,3.5,3.5,5c1.4,1.5,2.8,3,3.6,4.9s0.8,4.2-0.6,5.8"/>
	<path class="st4" d="M109.2,198.4c-1.2,2.7-0.2,6.1,2.1,7.8"/>
	<path class="st4" d="M187.5,229.6c-1.4,1.6-2.9,3.2-4.7,4.4c-1.8,1.1-4.1,1.7-6.2,1c-1.9-0.6-3.3-2.2-5.2-2.8
		c-2.1-0.7-4.5-0.1-6.5,0.9c-2,0.9-4,2.2-6.1,2.8c-5.3,1.5-11.4-1.7-13.6-6.1c-0.8-1.8-2.4-3.2-4.3-3.8"/>
	<path class="st14" d="M201.8,285c-4.7,3.5-9.7,7.1-15.5,8.1c-5.8,0.9-13.2-1.4-15.3-6.9c-3-7.7,2.6-15,2.3-16.6
		c-1.5-7.6-6.1-10-7.7-18.1c-7.2-0.3-14.5,2.5-19.5,7.7l0.8-0.3c-0.5,0.2-1.1,0.4-1.6,0.6c4.9,3.6,9.8,7.3,14.7,10.9
		c-5.3,2.9-11.3,7.5-10,13.4c0.8,3.5,4,5.8,6.9,7.8c45,31.1,81.2,74.8,103.3,124.9c-7.9-48.1-28.5-94.2-59-132.2"/>
	<path class="st14" d="M240.2,288.4c14.1,33.9,19.7,71.2,16.2,107.8c11.8-31.8,12.1-67.7,0.8-99.6c3.9,2.4,7.9,4.9,11.8,7.3
		c-2.1-12.3-9.4-23.5-19.7-30.5C249.2,279.8,243.7,285.7,240.2,288.4z"/>
	<path class="st4" d="M114.6,361c13.2,23.3,26.4,46.5,39.7,69.8"/>
	<path class="st4" d="M249.7,273.1c12.6,4.9,26.4,10.9,31.8,23.3c3.2,7.4,2.8,15.8,2.4,23.8c-1.7,30.5-3.5,61.2-10.2,91"/>
	<path class="st13" d="M204.5,125.1c-2.2-1.6-5.5-1.3-7.8,0.1c-2.3,1.5-3.9,3.9-5.1,6.4c-1.5,3.2-2.4,6.6-2.1,10.1
		c0.3,3.5,2,6.9,5,8.8c4,2.5,9.6,1.6,13-1.7c3.4-3.3,4.6-8.4,3.8-13C210.5,131.2,207.5,127.2,204.5,125.1z"/>
	<path class="st20" d="M97.5,212.1c7.7,0.2,15.4,3.2,21.1,8.4c5.7,5.2,9.5,12.6,10.3,20.2"/>
	<path class="st20" d="M87.2,219c14.9,2.8,27.3,15.6,29.8,30.5"/>
	<path class="st20" d="M76.8,228c13.2,6.7,23.4,19,27.5,33.3"/>
	<path class="st20" d="M119.9,212.2c-8.9-0.5-17.9,2-25.3,6.9c-7.4,4.9-13.1,12.3-16.1,20.7"/>
	<path class="st20" d="M131.7,221.4c-9.4-1.5-19.4,0.4-27.7,5.1s-15,12.3-18.6,21.1"/>
	<path class="st20" d="M138.1,231.5c-18.5-0.7-37,9.9-45.7,26.3"/>
</g>
</svg>
