<?xml version="1.0" encoding="utf-8"?>
<!-- Generator: Adobe Illustrator 25.2.3, SVG Export Plug-In . SVG Version: 6.00 Build 0)  -->
<svg version="1.1" xmlns="http://www.w3.org/2000/svg" xmlns:xlink="http://www.w3.org/1999/xlink" x="0px" y="0px"
	 viewBox="0 0 508 451.6" style="enable-background:new 0 0 508 451.6;" xml:space="preserve">
<style type="text/css">
	.st0{fill:none;stroke:#003769;stroke-width:5;stroke-linecap:round;stroke-linejoin:round;stroke-miterlimit:10;}
	.st1{fill:#4092E8;}
	.st2{fill:#FFAC2F;}
	.st3{fill:#FFFFFF;}
	.st4{fill:none;stroke:#003769;stroke-width:4;stroke-linecap:round;stroke-linejoin:round;stroke-miterlimit:10;}
	.st5{fill:#FE450E;}
	.st6{fill:#003769;stroke:#003769;stroke-width:3;stroke-linecap:round;stroke-linejoin:round;stroke-miterlimit:10;}
	.st7{fill:#003769;}
	.st8{fill:none;stroke:#FFFFFF;stroke-width:4;stroke-linecap:round;stroke-linejoin:round;stroke-miterlimit:10;}
	.st9{fill:none;stroke:#FFFFFF;stroke-linecap:round;stroke-linejoin:round;stroke-miterlimit:10;}
	.st10{fill:none;stroke:#003769;stroke-width:5.6325;stroke-linecap:round;stroke-linejoin:round;stroke-miterlimit:10;}
	.st11{fill:#FE450E;stroke:#003769;stroke-width:4;stroke-linecap:round;stroke-linejoin:round;stroke-miterlimit:10;}
	.st12{fill:#FFAC2F;stroke:#003769;stroke-width:4;stroke-linecap:round;stroke-linejoin:round;stroke-miterlimit:10;}
	.st13{fill:#003769;stroke:#003769;stroke-width:4;stroke-linecap:round;stroke-linejoin:round;stroke-miterlimit:10;}
	.st14{fill:#FFFFFF;stroke:#003769;stroke-width:4;stroke-linecap:round;stroke-linejoin:round;stroke-miterlimit:10;}
	.st15{fill:none;stroke:#003769;stroke-width:2;stroke-linecap:round;stroke-linejoin:round;stroke-miterlimit:10;}
	.st16{fill:none;stroke:#003769;stroke-width:2;stroke-miterlimit:10;}
	.st17{fill:#89E2F5;}
	.st18{fill:#003769;stroke:#003769;stroke-width:5.6325;stroke-linecap:round;stroke-linejoin:round;stroke-miterlimit:10;}
	.st19{fill:#4092E8;stroke:#003769;stroke-width:4;stroke-linecap:round;stroke-linejoin:round;stroke-miterlimit:10;}
	.st20{fill:none;stroke:#FFFFFF;stroke-width:2;stroke-linecap:round;stroke-linejoin:round;stroke-miterlimit:10;}
</style>
<g id="Calque_5">
</g>
<g id="Calque_2">
	<polygon class="st2" points="95,244 98.6,266 85.2,275.1 73.2,281.1 70.6,278.1 65.9,270.3 65.3,267.4 77.3,253.7 77.5,243.7 
		80.7,235 88.4,230.5 92.8,230.6 	"/>
	<polygon class="st2" points="68.1,215.8 77.2,221.5 79.8,230.3 73.5,237.8 68.4,240.8 65.6,247.8 61.5,249.7 58.8,255.8 
		50.9,258.5 43.9,253.9 39.7,247.9 45.2,241.3 49,239.1 48.9,234.7 52.3,230 57,228.2 57.2,221.9 61.9,216.6 	"/>
	<polygon class="st1" points="76.4,209.1 92.3,220.1 97.8,227.4 94.3,232.3 88.7,230.3 82,233.5 77,237.5 76.3,249 77.7,253.3 
		71.9,259.9 61,271.2 53,279.9 46.5,280.3 43.3,279.4 40.3,283 34.5,280.3 31.7,276.3 32.9,271.8 33.4,268.1 32.2,263.8 36,258.2 
		39.9,254.4 43.4,253.2 48.9,258.3 56,256.8 59.7,251.9 61.7,247.9 67.6,244.7 70.5,238.1 76,234.2 79.4,229 78,223.9 72.2,217.4 
		68.6,214.1 70.8,210 	"/>
	<path class="st4" d="M98.6,266c-1.1-8.5-4.1-23.8-5.2-32.3c-0.2-1.4-0.1-2-1.3-2.8c-1-0.7-2.4-0.6-3.7-0.3
		c-3.1,0.6-6.2,1.8-8.3,4.2c-3,3.2-3.7,8.1-2.8,12.4c0.9,4.3,3,8.2,5.2,12.1"/>
	<path class="st4" d="M68.7,235.9c-3.9-2.1-7.3-5-10-8.5c-1.2-1.5-2.3-3.3-2.1-5.2c0.2-2.5,2.5-4.4,4.8-5.5c1.8-0.9,3.7-1.6,5.7-1.4
		c2.9,0.2,5.3,2.2,7.5,4.1c1.4,1.2,2.7,2.4,3.8,3.8c1,1.5,1.7,3.3,1.5,5.1c-0.3,2.2-1.7,3.9-3.2,5.6c-1.1,1.3-2.3,2.6-3.8,3.2
		C71.2,237.5,69.1,237.1,68.7,235.9z"/>
	<path class="st4" d="M62.9,232c-1.4-1-2.7-2-4.3-2.6c-1.6-0.6-3.4-0.8-4.9-0.2c-1.6,0.6-2.7,2-3.7,3.3c-0.9,1.1-1.8,2.5-1.7,3.9
		c0.1,1.8,1.6,3.1,3,4.2c2.1,1.6,4.1,3.2,6.2,4.8c1.7,1.4,3.8,2.8,5.9,2.4c2.3-0.4,3.6-2.6,4.8-4.6c0.8-1.4,1.6-3,1.4-4.7
		c-0.3-1.7-1.7-2.9-3.1-3.8C65,233.7,63.7,232.6,62.9,232z"/>
	<path class="st4" d="M55,243.7c-1.8-2.4-5-3.7-7.9-3.2c-2.9,0.5-5.5,2.8-6.4,5.6c-0.3,1-0.4,2-0.1,3c0.3,1,1,1.8,1.7,2.6
		c1.6,1.7,3.3,3.3,5.2,4.7c1.5,1.1,3.1,2.1,5,2.1c3.1,0,5.4-2.7,7.3-5.1c0.8-1,1.6-2.3,1.3-3.5c-0.2-0.8-0.9-1.4-1.5-2
		C57.9,246.2,55.9,244.8,55,243.7z"/>
	<path class="st4" d="M78.7,252.1c-7.5,8.4-15.1,16.8-22.6,25.2c-1.2,1.4-2.6,2.8-4.4,3.1c-2,0.3-3.9-0.8-5.5-2
		c-3.9-2.7-7.6-5.7-11.2-8.8c-1.4-1.3-3-2.9-2.9-4.8c0.1-1.5,1.1-2.8,2.1-3.9c2.9-3.3,4.6-5.9,7.5-9.2"/>
	<path class="st4" d="M93.1,231.9c1.2-0.6,2.5-1.2,3.4-2.2c0.9-1,1.5-2.4,1.1-3.7c-0.3-1-1.2-1.8-2-2.5c-5.5-4.5-10.9-9-16.4-13.5
		c-1.1-0.9-2.3-1.9-3.8-1.8c-3.7,0.2-5,3.6-7.1,7.1"/>
	<polygon class="st2" points="133.3,50.5 118.7,56.6 122,65.2 118.2,68.7 104.4,64.2 98.2,75.9 105.2,81.7 97.3,84 88.1,86 
		85.1,96.7 77.2,102.2 69,114.9 76.5,111.8 77.1,118.7 70.2,128.4 66.6,135.7 70,143.7 63.1,148.6 69.3,162.1 75.4,157.4 75.4,163 
		72.9,170.5 78.9,174.4 80.1,186.6 115.8,214.3 125.4,212.5 128.8,221 133.6,213 139.5,220 144.7,218.5 147.6,223 157.9,222.2 
		158.8,214.6 169.3,213.1 189.6,199 192.3,193.4 206.5,188.4 210.3,186.6 215.5,185.7 220,179.1 222.8,172.1 218.6,169.9 
		221.6,165.1 222.1,158 233.9,151.2 224.8,148.2 229.3,138.7 229.3,131.5 226,125.3 227,119.1 229.9,110.3 229.1,106.3 235.3,99.5 
		227,99.7 226,94 221.5,90.1 218.5,81.6 213.7,77.4 218.6,66.7 206.5,59.1 198.6,67.8 194.7,65.2 189.9,66.7 193.2,56.6 186.6,52.8 
		180,61.4 174.3,57.9 166.9,60.9 162.8,48.6 159.4,60.5 151.9,61.8 145.2,60.3 140.7,62.3 	"/>
	<g>
		<path class="st7" d="M113.2,183.1c5.4,6.4,8.5,14.8,6.8,22.8s-8.9,14.9-17.4,15.3c-6.4,0.3-12.6-3.1-17.1-7.5
			c-4.8-4.7-8.2-11-8.3-17.5c0-8.2,5.7-16.1,13.8-18.9S108.3,177.3,113.2,183.1z"/>
		<path class="st9" d="M87.4,189c1.3-2.9,4.6-4.4,7.7-5.1c4.5-0.9,9.3-0.6,13.6,1.1"/>
		<path class="st9" d="M88.7,192.1c6.8-4.7,16.6-4.7,23.3,0.1"/>
		<path class="st9" d="M90.9,196.5c7.4-2.7,16.2-1.4,22.4,3.5"/>
		<path class="st9" d="M101.9,181.1c5.5,5.1,7.8,13.4,5.8,20.6"/>
		<path class="st9" d="M96.8,181.9c4.9,4.7,7.2,12,5.6,18.7"/>
		<path class="st9" d="M92.7,183c4.1,4.8,5.8,11.6,4.5,17.8"/>
		<path class="st9" d="M86.4,185.1c4.2,4.3,6.6,10.3,6.6,16.3"/>
	</g>
	<path class="st4" d="M45.4,277.9c-1.1,0.8-1.8,2-2.7,3c-0.9,1-2.1,1.9-3.5,1.7c-1-0.1-1.8-0.8-2.5-1.5c-1.2-1-2.3-2.1-3.5-3.1
		c-0.6-0.6-1.3-1.2-1.6-2c-0.5-1.2-0.1-2.7,0.7-3.7c0.8-1.1,2-1.8,3.1-2.5"/>
	<path class="st3" d="M111.5,277.2c-1.8-4.8-3.6-9.6-5.4-14.4l-35.8,20.5l-1.5,4.1l3,9.2l5.8-0.6l21.9-12.4L111.5,277.2z"/>
	<path class="st4" d="M112.1,276.1c-2.6-4.4-4.4-9.2-5.2-14.3c-11.1,6.5-22.2,13-33.3,19.5c-1.7,1-3.5,2.1-4.5,3.8
		c-1.1,1.9-0.9,4.3,0,6.4s2.2,3.8,3.6,5.5"/>
	<path class="st4" d="M65.1,269.2c1,4.8,3.9,9.1,8,11.9"/>
	<polygon class="st2" points="465.2,23.9 400.6,52.1 383.4,74.8 358.8,96.8 354,104.1 344.9,110.6 342.3,119.3 345.5,131.7 
		353.6,142.5 368.2,148 387.4,131.3 402,136 415,135.8 426,131.1 430.6,135.5 440,131 447.5,126.7 454.3,121 450.2,103 443.7,81.6 
		433.5,72.3 430.3,65.4 465.2,43.4 469.2,36.5 	"/>
	<polygon class="st1" points="119.3,271 72.7,299 68.8,307.6 72.3,319 79.4,337.8 87.4,351.7 101.6,368.4 108.1,327.7 116.2,303.8 
		122.9,286.2 125.1,278.6 	"/>
	<path class="st1" d="M361.9,92.8l-16.3-4.4l-19.4,4.4l-17.4,15.6l-19.4,20l-66.9,54.4l-27.1,12.8l-16.6,39.2l-20.9,5.3l11.3,7.6
		L145,283.2l-22.1,45l-11.6,35.2l-6.5,41.4c0,0,4.4,46.9,4.3,47.7c17.9,4.8,35.9,9.6,53.8,14.4c9.9,2.6,20,5.3,30.2,5
		c22.6-0.8,42.5-16.6,54.5-35.8l-17.8-25.4l-9.4-24l-4.7-23.2l-2-18.4l7.6-16.6l16-31.2l6.7-23.7l-0.2-14.1l22.4-16.6l36.5-26
		l29.8-21.4l18.2-14.1l21.7-10.4l9.2-9.2l5.3-11.7l-4.6-13.7l-11.5,8.7l-7.5,0.9l-12.2-4.9l-6.8-14l-3-14.6l12.1-9.1L361.9,92.8z"/>
</g>
<g id="Calque_4">
	<path class="st4" d="M177.9,67.6c1.9-5.4,4.9-10.4,8.7-14.6c1.8,1,3.6,2,5.3,3c0.3,0.1,0.5,0.3,0.6,0.6c0.1,0.3,0,0.7-0.1,1
		c-1.7,4.6-3.3,9.2-5,13.9"/>
	<path class="st4" d="M192.4,76.9c4.4-6,8.8-12,13.2-18.1c4.4,2.6,8.7,5.2,13.1,7.8c-3.3,7.9-8.2,15.1-14.2,21.1"/>
	<path class="st4" d="M160.1,64.9c-2.5-5.9-1.4-13.1,2.8-17.9c0.6,6.2,1.6,12.7,5.7,17.3"/>
	<path class="st4" d="M213.1,100.1c7.6,1.6,15.6,0.8,22.7-2.3c-3.6,7.1-11.6,11.8-19.6,11.4"/>
	<path class="st4" d="M142.6,67.3c-2.1-4.8-4.5-9.4-7.1-13.9c-0.6-1.1-1.4-2.3-2.6-2.8c-1.4-0.5-2.8,0.1-4.1,0.7
		c-2.5,1.2-5.1,2.3-7.6,3.5c-1,0.4-2,1-2.3,2c-0.3,1,0.4,2,1,2.8c3,4.2,6,8.4,9,12.6"/>
	<path class="st4" d="M121.9,74.4c-3.7-3.3-7.7-6.2-12.1-8.6c-1.3-0.7-2.7-1.4-4.1-1c-1.7,0.4-2.7,2.1-3.5,3.6c-1,1.8-2,3.6-2.9,5.4
		c-0.3,0.6-0.7,1.3-0.7,2c0,1.5,1.5,2.6,2.9,3.2c4.9,2.5,10.3,3.9,15.8,4.3"/>
	<path class="st4" d="M218.1,145.6c4.7,2.8,10.1,4.5,15.6,4.9c-3.5,5.4-10.4,8.3-16.7,7.1"/>
	<path class="st4" d="M209.7,166.8c3.8,3.3,8.7,5.1,13.7,5c-1.1,3-2.3,5.8-3.6,8.7c-0.9,1.9-1.9,3.7-3.6,5c-2.7,2-6.6,1.7-9.6,0.1
		c-3-1.6-5.3-4.1-7.5-6.7"/>
	<path class="st4" d="M97,94.4c-6.4,0.2-12.8,2.5-17.9,6.5c-5.1,4-8.8,9.7-10.4,15.9c3.7-4.8,9.6-7.8,15.7-8.1
		c-0.2,0.3-0.4,0.6-0.6,0.9"/>
	<path class="st4" d="M76,133.8c-1.6,6.7-6.6,12.5-13,15.1c2.6,4,4.5,8.4,5.7,13.1c5.9-2.4,10.7-7.5,12.8-13.5"/>
	<path class="st4" d="M84.7,163.5c-5.1,6.5-6.8,15.4-4.5,23.3c2.8-4.7,6.7-8.8,11.2-11.8"/>
	<path class="st4" d="M125.6,202.5c-1.4,7-0.2,14.4,3.5,20.5c1-6.2,3.8-12.1,8.1-16.7"/>
	<path class="st4" d="M146.3,207.2c-1.2,4.6-1.4,9.4-0.7,14c0.1,0.6,0.2,1.3,0.7,1.7c0.6,0.5,1.4,0.4,2.2,0.3
		c3.1-0.4,6.3-0.8,9.4-1.1c-0.6-4.9-0.4-9.9,0.6-14.7"/>
	<path class="st4" d="M105.7,81.5c-2.8,1.7-6,2.6-9.3,2.7c-2,0-4.1-0.2-6,0.5c-2.2,0.8-3.7,2.9-4.4,5.1c-0.7,2.2-0.8,4.6-0.9,6.9"/>
	<path class="st4" d="M77.5,110.9c0.6,4.7-0.8,9.6-3.8,13.3c-2.2,2.6-5.1,4.7-6.5,7.8c-1.7,3.8-0.5,8.7,2.9,11.1"/>
	<path class="st4" d="M75.7,159c0,2.4-1.3,4.6-2.1,6.9c-0.7,2.3-0.7,5.3,1.4,6.6c0.9,0.6,2,0.7,3,1.1c1,0.3,2,1,2.2,2.1"/>
	<path class="st4" d="M124.8,212.6c-1.8,1.6-4.4,2.3-6.7,1.8c-2.4-0.5-4.5-2-5.6-4.2"/>
	<path class="st4" d="M133.3,212c1.5,2.2,2.9,4.4,4.4,6.6c0.3,0.5,0.6,0.9,1.1,1.2c1.6,1.2,3.7,0,5.3-1.1"/>
	<path class="st4" d="M159,213.1c1.3,1.7,3.7,2.4,5.7,1.7c1.1-0.3,2-1,3-1.5c1-0.5,2.2-0.7,3.2-0.2"/>
	<path class="st4" d="M190.3,198c0.6-1.7,1.2-3.4,1.9-5.2c2.7,0,5.4-0.1,8.1-0.8s5.1-2.1,6.6-4.4"/>
	<path class="st4" d="M216.5,169.9c4.2-1.7,6.8-6.9,5.5-11.3"/>
	<path class="st4" d="M225.3,147.6c3.9-4.1,5.1-10.4,3.1-15.7c-1-2.6-2.7-5-3-7.7c-0.5-5.6,5.2-10.7,3.5-16.1"/>
	<path class="st4" d="M225.8,99.6c0.9-2.1,0.6-4.8-0.9-6.6c-1.3-1.6-3.3-2.5-4.6-4.1c-1.4-1.8-1.6-4.2-2.2-6.4
		c-0.6-2.2-2.2-4.5-4.5-4.5"/>
	<path class="st4" d="M190.4,66.3c2.7-1.2,6-0.3,7.9,1.9"/>
	<path class="st4" d="M167.4,59.6c3.6-2.8,9.4-2,12.2,1.6"/>
	<path class="st4" d="M140.1,63.3c0.5-2.1,2.9-3.2,5-3.1s4.2,0.8,6.3,1.1c2.1,0.3,4.6-0.1,5.8-1.8"/>
	<path class="st4" d="M118,69.5c0.9-2.2,3-3.8,5.3-4"/>
	<path class="st4" d="M360.9,92.3c-9.8-6.5-23.2-4.8-33.5,0.8s-18.3,14.6-26.5,23c-24.9,25.7-53.2,48-82.2,69
		c-7.8,5.6-16.6,11.5-26.1,10.5"/>
	<path class="st4" d="M227.6,269.9c30.8-22.3,61.7-44.7,92.5-67c12.5-9,25-18.1,38.5-25.4c7.5-4.1,15.6-7.9,21.4-14.2
		c5.8-6.4,8.6-16.4,4.1-23.7"/>
	<path class="st4" d="M243.4,258.5c3.4,19.9-4.9,39.8-14.7,57.4s-21.3,34.9-25.3,54.6"/>
	<path class="st4" d="M213.7,344c-0.3,33.8,11.5,65.6,33.7,91.2"/>
	<path class="st4" d="M102.6,369c-15-12.4-24.8-33.3-31.2-51.8c-1.5-4.5-3.1-9.3-1.5-13.8c1.7-4.9,6.7-7.8,11.3-10.3
		c13.6-7.3,27.2-14.6,40.8-21.9c0.3,4.9,2.5,4.7,2.6,9.6C114.9,309.3,103.7,333.3,102.6,369z"/>
</g>
<g id="Calque_9">
</g>
<g id="Calque_6">
	<path class="st3" d="M128,118c-13.6,0.1-27,4.8-38.2,13.9c0.5,5.7,2.4,12.2,6.7,15.9c4.3,3.7,13.2,5.5,18.6,3.8
		c4.2-1.3,7.6-3.2,10-6.9C130.2,136.9,128.3,127.7,128,118z"/>
	<path class="st3" d="M183.7,103.5c-13.5-1-27.3,2.8-36.8,11.6c1.7,4.2,3.4,8.5,6.1,12.1c2.7,3.6,6.5,6.7,10.9,7.5
		c4.7,0.9,9.6-0.8,13.3-3.6C185.3,125,188.3,113.2,183.7,103.5z"/>
	<path class="st12" d="M138.1,132.5c-4.1-2.9-10.2-1.6-13.7,1.9c-1.9,1.9-3.3,4.5-3.2,7.2c0.1,4.4,4.1,8.1,8.5,8.7
		c4.4,0.7,8.9-1.3,12.1-4.2"/>
	<path class="st11" d="M126.3,177c22.5-15,44.4-31.2,65.9-48.1c0.9,10,1.7,20.6-2.6,29.7c-5,10.7-16.4,17.3-28,19.5
		C149.9,180.4,138,179,126.3,177z"/>
	<path class="st7" d="M128.1,118.3c1.6,5.5-0.9,11.7-6.2,15.2c-3.9,2.6-9.8,3.6-13.7,1c-3.8-2.5-4.3-7.2-4.7-11.1
		C110.9,119.3,119.7,117.4,128.1,118.3z"/>
	<path class="st7" d="M184.1,102.6c2,3.2,0.9,7.5-1.1,10.7c-2,3.1-5,5.8-8.5,6.8s-7.8,0.1-10.2-2.7c-2.4-2.9-2.7-7-2.5-10.6
		C168.8,104,176.4,102.7,184.1,102.6z"/>
	<path class="st3" d="M190.4,132.8c-8.6,6.6-17.4,13.2-26,19.8c-7,5.4-13.2,9-21.2,15.2c1.1,1.3,2,2.6,3.1,3.9
		c12.8-8.4,14.5-8.1,28.1-15.1c7.3-3.8,16.3-10,16.3-10S191,137.9,190.4,132.8z"/>
	<path class="st13" d="M141.5,95.8c8.4-3.6,11.4-15,20.4-16.5c9-1.5,18.7,2.1,24.6,9c-13.4-2.8-28,0.5-38.8,8.9
		c-1.1,0.9-2.2,1.8-3.6,2.2c-1.3,0.4-3,0.1-3.8-1C139.6,97.4,140.4,96.3,141.5,95.8z"/>
	<path class="st13" d="M122.5,103.7c-2.1-2.6-5.4-4-8.7-4.3c-3.3-0.3-6.6,0.5-9.7,1.7c-9.5,3.7-17.4,11.6-21,21.1
		c6.2-10.7,19.2-17,31.4-15.3c1.8,0.3,3.6,0.7,5.3,0.2S123.3,104.8,122.5,103.7z"/>
	<path class="st14" d="M194.7,196.8c-5.3,12.9-10.6,25.8-15.8,38.7c-7.5,0.3-14.9,2-21.7,5.1c4.3,2.2,8.5,4.5,12.8,6.7
		c-48.7,62.8-74.2,125.9-61.1,204.3c-15.3-41.6-7.5-100-0.5-124.6c7.4-25.9,16.6-51.5,30.5-74.6S171.3,208.7,194.7,196.8z"/>
	<path class="st4" d="M341.8,109.4c22.7-15.5,42.8-35,58.4-57.4c22.6-7.7,44.4-17.5,66-28.9c2.3,3,3.4,6.8,3.1,10.5s-2,7.3-6.4,10.5
		c-15,11.1-30.8,21-47.4,29.5"/>
	<path class="st4" d="M391.3,86.3c8.7,4.6,17.7,8.8,26.7,12.7c3.6,1.5,7.5,3.3,9.3,7.1c1,5-1.4,10.6-6.9,13.8
		c-9.6-1.7-19.2-3-28.9-3.9c-4-0.4-8.7-0.5-11.3,2.6"/>
	<path class="st4" d="M430.6,67.8c2.6,5,5.2,10,7.8,14.9c1.2,2.2,2.4,4.7,1.6,7.1c-0.4,1.2-1.2,2.3-2.1,3.3c-3.3,4-6.7,8-10,12"/>
	<path class="st4" d="M412.1,96.5c-0.1-3.4,1-6.8,2.9-9.6c-3.9-1.2-7.9-2.2-11.9-2.8"/>
	<path class="st4" d="M432.5,71c5.3,2.1,9.1,6.8,11.4,12c2.3,5.2,3.1,10.8,4,16.4c0.4,2.7,0.8,5.4,0.2,8.1c-1.1,5-5.6,8.6-9.7,11.6
		c-2.8,2.1-5.8,4.3-9.3,4.8c-3.5,0.5-7.6-1.2-8.5-4.6"/>
	<path class="st4" d="M445.8,88.2c3.5,8.2,7,18.6,7.5,27.5c0.2,2.8,0.1,5.8-1.6,8.1c-2.1,2.7-5.8,3.4-8.9,4.9
		c-2.3,1.2-4.2,2.9-6.4,4.2c-2.2,1.3-4.9,2.2-7.3,1.5c-4.2-1.3-5.7-6.4-6.5-10.7"/>
	<path class="st4" d="M423.2,131.1c-3.2,4-8.6,5.7-13.7,5.5c-5.1-0.2-10-1.9-14.9-3.6c-2.4-0.8-4.9-1.6-7.4-1.1
		c-2,0.5-3.6,1.7-5.2,3c-5.8,4.5-11.5,9-17.3,13.5"/>
	<path class="st14" d="M357.4,97.6c0.1-2.3-2.4-4-4.7-4c-2.3,0.1-4.3,1.4-6.3,2.6c-5.4,3.5-11.2,7.6-12.8,13.9
		c-0.9,3.6-0.3,7.4,0.6,11c2.2,9.3,5.9,18.4,12.2,25.6c6.3,7.1,15.6,12,25.2,11.5c2.2-0.1,4.4-0.6,6.1-1.9c2.5-1.9,3.4-5.3,3.1-8.4
		c-0.3-3.1-1.7-6-3-8.8c-1.8,5.1-7.5,8.1-12.9,7.8c-5.4-0.3-10.3-3.4-13.7-7.6c-3.4-4.1-5.6-9.2-7.3-14.3c-1.4-4-2.5-8.6-0.8-12.5
		C346,105.8,357.1,103.8,357.4,97.6z"/>
	<path class="st11" d="M147.3,239.7c-2.7-2.3-6.5-3.4-10-2.7c-3.5,0.7-6.6,3.2-7.9,6.5c-1.3,3.3-0.8,7.3,1.4,10.1
		c1.1,1.4,2.9,2.6,4.7,2c1.1-0.4,1.9-1.3,2.6-2.3C141.3,249.2,144.3,244.6,147.3,239.7z"/>
	<path class="st11" d="M136.6,236.7c-1.8-4-5.3-7.2-9.4-8.7c-2.4-0.8-5.3-0.9-7,0.9c-3.1,3.3,0.6,9.2-1.9,12.9
		c-1.8,2.7-5.8,2.6-8.5,4.3c-3.4,2.1-4.4,6.7-4.1,10.7c0.4,6.6,3.3,13.1,8,17.8c2.4-2.3,5.3-4.1,8.5-5c0.3,2.9,1.1,5.8,2.4,8.4
		c3.2-7.6,7-15,11.4-22c-4.4-0.1-7.3-5.2-6.5-9.5C130.2,242.2,133.5,238.9,136.6,236.7z"/>
</g>
<g id="Calque_7">
</g>
</svg>
