<?xml version="1.0" encoding="utf-8"?>
<!-- Generator: Adobe Illustrator 25.2.3, SVG Export Plug-In . SVG Version: 6.00 Build 0)  -->
<svg version="1.1" xmlns="http://www.w3.org/2000/svg" xmlns:xlink="http://www.w3.org/1999/xlink" x="0px" y="0px"
	 viewBox="0 0 350 450" style="enable-background:new 0 0 350 450;" xml:space="preserve">
<style type="text/css">
	.st0{display:none;}
	.st1{fill:none;stroke:#003769;stroke-width:4;stroke-linecap:round;stroke-linejoin:round;stroke-miterlimit:10;}
	.st2{fill:#FFAC2F;}
	.st3{fill:#003769;stroke:#003769;stroke-width:5;stroke-linecap:round;stroke-linejoin:round;stroke-miterlimit:10;}
	.st4{fill:#FE450E;}
	.st5{fill:#003769;}
	.st6{fill:#4092E8;}
	.st7{fill:#FFFFFF;}
	.st8{fill:none;stroke:#003769;stroke-width:5;stroke-linecap:round;stroke-linejoin:round;stroke-miterlimit:10;}
	.st9{fill:#9BE2E3;}
	.st10{fill:none;stroke:#003769;stroke-width:3.4085;stroke-linecap:round;stroke-linejoin:round;stroke-miterlimit:10;}
	.st11{fill:#003769;stroke:#003769;stroke-width:2.5564;stroke-linecap:round;stroke-linejoin:round;stroke-miterlimit:10;}
	.st12{fill:none;stroke:#FFFFFF;stroke-width:3.4085;stroke-linecap:round;stroke-linejoin:round;stroke-miterlimit:10;}
	.st13{fill:#003769;stroke:#003769;stroke-width:3;stroke-linecap:round;stroke-linejoin:round;stroke-miterlimit:10;}
	.st14{fill:none;stroke:#FFFFFF;stroke-width:4;stroke-linecap:round;stroke-linejoin:round;stroke-miterlimit:10;}
	.st15{fill:none;stroke:#FFFFFF;stroke-linecap:round;stroke-linejoin:round;stroke-miterlimit:10;}
	.st16{fill:none;stroke:#003769;stroke-width:0.2824;stroke-linecap:round;stroke-linejoin:round;stroke-miterlimit:10;}
	.st17{fill:#003769;stroke:#003769;stroke-width:0.2118;stroke-linecap:round;stroke-linejoin:round;stroke-miterlimit:10;}
	.st18{fill:none;stroke:#FFFFFF;stroke-width:0.2824;stroke-linecap:round;stroke-linejoin:round;stroke-miterlimit:10;}
	.st19{fill:#FE450E;stroke:#003769;stroke-width:4;stroke-linecap:round;stroke-linejoin:round;stroke-miterlimit:10;}
</style>
<g id="Calque_1" class="st0">
	
		<image style="display:inline;overflow:visible;opacity:0.1608;" width="1920" height="1080" xlink:href="AEBC9E68AAFA7D35.png"  transform="matrix(0.4664 0 0 0.4664 -310.4997 -53.7385)">
	</image>
	
		<image style="display:inline;overflow:visible;opacity:0.3;" width="1920" height="1080" xlink:href="../../../../../../Downloads/Illustration_sans_titre 26.png"  transform="matrix(0.484 0 0 0.484 92.0009 -57.6349)">
	</image>
</g>
<g id="Calque_4">
</g>
<g id="Calque_3">
</g>
<g id="Calque_5">
</g>
<g id="Calque_2">
	<g>
		<path class="st2" d="M74.4,72.6c-0.4-4.1-0.9-8.3-3-11.9c-2-3.6-6.1-6.4-10.1-5.6c-3.1,0.6-5.7,3.3-6,6.5
			c-0.4,3.1,1.5,6.4,4.4,7.7c-3.7-1.7-7.3,1.9-11.4,1.4c-1.1-0.1-2.7-0.9-3.9-0.9c-2.2,0-3.7,2.9-5.1,4.6c-1.6,2-3.3,4-4.2,6.3
			c-0.9,2.4-1,5.2,0.4,7.3c0.8,1.1,1.9,2,2.3,3.3c0.8,2.5-1.5,4.8-2.5,7.2c-1.3,3.1-0.3,6.7,1,9.8c1.3,3.1,2.8,6.3,2.7,9.6
			c-0.2,4.3-3.3,8.4-2.7,12.7c0.2,1.9,1.1,4,0.1,5.6c-1.5,2.2-5,1.1-7.3,2.4c-1.7,0.9-2.5,3-2.4,4.9s0.8,3.7,1.5,5.5
			c1.1,2.6,2.2,5.3,4.1,7.4s4.6,3.7,7.6,3.4c-1.3,1.4-1.9,3.4-1.6,5.2c0.3,1.9,1.5,3.6,3.2,4.5l4,1.5l-1.5,11l9.2-1.9l1,15.3
			l3.8,5.1l6.9-0.4l7.3-0.9l-0.7,7.1l5.7,5.3l6.2,5l4.6-5.6l4.4,1.7l2.6,4.5l8.8-3.1l2.2,4l10-1.1l8.8,0l4.7,1.7l7-2.1l5.3-3.4
			l-0.5,10.3l5.5,5.5l4.7,3.6l7.6,0.9l5.7,0.6l4.8-5.8l2-8.4l1.7-9.1l7.8,2.7l6.3-4.1l3.6,2.7l15.5-3.9l-0.1-6l6.2-0.7l4.9-2.9
			l2.5-4.4l6.5,1.6l-2.8-7.9l-2.8-4.2l6.6-7l2.9-8.6l-1.8-6.2l-1.6-5.3l3.2-6.5l5.2-7.8l0.9-7.6l-0.7-10.4l13-3.1l-3.3-16.8
			l-7.8,0.9l-1.2-11.3l-5.4,0.4l-4.5-6.2l0.2,0.6l-4.2-3l-0.8-8.6l-1.9-6.6l-9.5-6.3l-7-4.3l-3.6-11l-2.9-5.8l-2-11.1l-13.3,7.3
			l-8.3,2.8l-5.8-2.8l-5.6-4.9l-4.6,0.8l-0.7-17.2l-9.3-2.6l-7.2,3.5l-4.1,8l-2.6,5.6l-7.2,3.4l-9.3,3.9l-8.9-3.5l-6.9-0.6l-5,8.3
			l-7,3.7l-6.1,2.7l-4.3,7l-3.6,5l-3.1,3.2L74.4,72.6z"/>
		<polygon class="st7" points="114.3,163.2 151.3,173.3 181,171.5 182.3,157.6 167.8,164.7 156.5,170.9 142.2,167.5 132,159.7 
			122.5,156.6 		"/>
		<polygon class="st7" points="135.7,186.9 148,183.7 169.5,184.3 169.6,188.9 146.1,190.3 		"/>
		<polygon class="st4" points="114.5,166.8 116.6,175.7 123.2,184.1 131.2,186.7 138.2,184.8 149.2,184.3 159.9,184.9 169.9,185 
			170.4,189.3 186.3,185.3 194.4,177.5 196.2,170.5 194.3,162.1 188.7,157.2 183,157 182.4,172 162.1,174.2 141.7,170.8 127.3,167 
			118.7,164.1 		"/>
		<polygon class="st4" points="150.7,233.3 141.1,225.7 125.9,221.6 115.7,226 117.7,239.5 119.4,250 118.2,262 118.2,273 
			125,279.8 139.7,279 146.6,271.6 151.8,262.2 156.6,257.7 162.7,258.1 166,267.1 174.1,274 185.1,275.9 193.8,271.8 197.6,264.1 
			195.9,253.8 193.3,243.8 193.2,235.8 195.5,226.6 192.4,220 184.4,218.3 176.7,223 168.8,229.4 161.5,234.6 		"/>
		<path class="st6" d="M115.7,243.6l-15.8,2.8l-21.2,13l-10,15.3l-9.9,25.6l-6,26.1l-3.4,31.2c0,0,3.5,78.4,3.3,79.1
			c14.2,6.8,31.2,7.5,45.9,1.8c4.7-1.8,9.3-4.3,14.3-4.7c4.7-0.4,9.3,1,13.8,2.3c10.5,2.8,21.3,4.7,32.1,4.4
			c10.8-0.3,21.8-2.9,31-8.6c4.8-2.9,9.4-7.3,9.4-12.9l-2.5-22l-2.3-42.7l8.4,3.1l16.9-1.5l17.1-8.4l16.1-14.7l10.8-13.2l9.8-16.1
			l7.5-15.2l-0.7-10.4l-8.4-9.1l-15.4-10.6l-13.7-6.3l-8.3,2.8l-10.1,15.4l-12.1,23.7l5.1-36.1l-4.8-15.6l-6.1-5.1l-11.3,0.3
			l-2.8,6.5l4.6,12.8l0.7,9.8l-6.8,8.3l-9.8,0.8l-8.8-2.3l-6.3-5.5l-2.5-7l-2.2-3.6h-7.8l-4,9.1l-5,7.5l-7.1,6l-8.3,0.3l-7.9-2.6
			l-3.8-6.5l1.8-12.1l0.3-6.3L115.7,243.6z"/>
		<polygon class="st2" points="266.2,228.5 268.7,244.3 284.7,250.5 293.1,256.9 298.4,255.4 301,246.7 300.8,243.7 285.8,233.4 
			283.1,223.9 277.7,216.2 269.2,213.8 264.9,215 		"/>
		<polygon class="st2" points="285.1,194.5 277.8,202.3 277.4,211.4 285.4,217.1 291.1,218.7 295.6,224.8 300,225.6 304.2,230.8 
			312.5,231.5 318.1,225.2 320.7,218.4 313.7,213.4 309.5,212.2 308.4,207.9 304,204.2 299,203.6 297.2,197.6 291.3,193.6 		"/>
		<polygon class="st2" points="146.3,275.5 153.3,297.9 158.4,290.4 165.6,277 168.3,270.5 162.6,260.3 159.3,258 159.3,257.9 
			152.5,259.1 		"/>
		<polygon class="st7" points="250.3,239.5 244.2,251.6 261.6,261.3 272.4,269.8 279.6,278 287.8,271.9 292.9,260.3 290.7,253.8 
			279.2,248.4 267.4,244 257.6,239.9 		"/>
		<polygon class="st7" points="176.1,279.2 171.8,301.2 176.1,315.4 179.4,330.1 173.2,352.9 168.1,365.1 166.9,384.4 164.8,407.6 
			162.8,425.3 161,442.4 134,439.2 134.2,440 134.2,439.8 136.6,414.5 136.6,389.3 134.8,372.4 131.7,351.8 125.4,338 121.1,325.4 
			123.1,312.8 128.9,296.7 134.2,281.6 143.8,274.5 144.2,274.3 147.3,279.6 153.4,298.3 160.3,284.1 169.5,271.5 		"/>
		<polygon class="st6" points="275.4,190 262.8,204.8 259.3,213.2 263.9,217 268.8,213.7 276.1,215.1 282,217.7 285.6,228.6 
			285.3,233.1 292.6,238 306,246.2 316,252.7 322.3,251.4 325.2,249.8 329,252.5 333.9,248.4 335.6,243.8 333.3,239.8 331.9,236.3 
			332,231.8 326.9,227.4 322.2,224.6 318.5,224.4 314.4,230.8 307.2,231 302.4,227.2 299.4,223.9 292.9,222.3 288.4,216.7 
			282.2,214.3 277.5,210.1 277.5,204.8 281.5,197.1 284.2,193 281.1,189.5 		"/>
		<path class="st1" d="M151.1,143c1.8-2.6,4-4.9,6.8-6.3c2.8-1.4,6.1-2,9-1.1s5.6,3.3,6.2,6.4c1,4.5-2.3,9.1-6.5,11.1s-9,2-13.6,2"
			/>
		<g>
			<path class="st7" d="M120.9,141.4c-2.5,0-4.9-0.5-6.9-1.5c-4.9-2.3-8.6-7.4-10.3-13.8c-1.2-4.9-1.3-10.2-0.3-17.4
				c0-0.2,0.2-0.4,0.5-0.4c0,0,0.8,0,1.2,0c12.1,0,24.1-1.6,35.8-4.9c0,0,0.1,0,0.1,0c0.2,0,0.4,0.1,0.5,0.3
				c3.8,9.2,2.4,20.3-3.5,28.3c-2.9,3.9-6.6,6.8-10.6,8.2C125.3,141,123.1,141.4,120.9,141.4z"/>
			<path class="st7" d="M141,103.9c3.7,9,2.4,20-3.5,27.8c-2.7,3.6-6.2,6.5-10.4,8.1c-2,0.7-4.1,1.1-6.2,1.1c-2.3,0-4.6-0.5-6.7-1.5
				c-5.2-2.5-8.6-7.9-10-13.5s-1.1-11.5-0.3-17.2c0.4,0,0.8,0,1.2,0C117.2,108.8,129.3,107.1,141,103.9 M141,102.9
				c-0.1,0-0.2,0-0.3,0c-11.6,3.2-23.6,4.9-35.6,4.9c-0.4,0-0.8,0-1.2,0c0,0,0,0,0,0c-0.5,0-0.9,0.4-1,0.9c-1,7.2-0.9,12.6,0.3,17.5
				c1.6,6.6,5.5,11.8,10.5,14.2c2.2,1,4.6,1.6,7.2,1.6c2.2,0,4.5-0.4,6.6-1.2c4.1-1.5,7.9-4.4,10.8-8.4c6-8.1,7.5-19.4,3.6-28.8
				C141.8,103.1,141.4,102.9,141,102.9L141,102.9z"/>
		</g>
		<g>
			<path class="st7" d="M195.4,139.7c-7.1,0-14.2-5.4-17-12.9c-2.6-7.1-2-15.6,1.9-23.9c0.1-0.2,0.3-0.3,0.5-0.3
				c0,0,32.2,0.3,32.2,0.3c0.3,0,0.5,0.2,0.5,0.5c0.5,6.8,1.1,14.4-1,21.5c-2.4,7.8-8.2,13.6-14.8,14.7
				C196.9,139.6,196.1,139.7,195.4,139.7z"/>
			<path class="st7" d="M180.7,103.2c10.7,0.1,21.5,0.2,32.2,0.3c0.5,7.1,1.1,14.4-1,21.3c-2.1,6.8-7.4,13.2-14.4,14.3
				c-0.7,0.1-1.4,0.2-2.2,0.2c-7.2,0-13.9-5.6-16.5-12.5C176,119.1,177.3,110.5,180.7,103.2 M180.7,102.2c-0.4,0-0.7,0.2-0.9,0.6
				c-3.9,8.5-4.6,17.1-1.9,24.3c2.8,7.6,10.2,13.2,17.5,13.2c0.8,0,1.6-0.1,2.3-0.2c6.8-1.1,12.8-7,15.2-15c2.2-7.1,1.6-14.8,1-21.7
				c0-0.5-0.5-0.9-1-0.9L180.7,102.2C180.7,102.2,180.7,102.2,180.7,102.2L180.7,102.2z"/>
		</g>
		<path class="st1" d="M109.6,103c2.4-3.6,6.6-5.6,10.9-6.2c4.2-0.6,8.6,0,12.8,0.6"/>
		<path class="st1" d="M185.6,96.7c7.1-2.6,15.1-2.7,22.3-0.2"/>
		<path class="st13" d="M92.5,93.9c4.2-9.2,14.2-15.2,24.3-19.6c3.2-1.4,6.5-2.7,10.1-2.9s7.5,1,9.5,3.6c2.2,2.8,1.5,7-1.3,9.3
			c-1.8,1.5-4.3,2.1-6.6,2.8c-11.8,3.1-23.5,6.2-35.3,9.4C92.6,95.6,92.7,94.4,92.5,93.9z"/>
		<path class="st1" d="M148.9,233.7c-2.8,1.6-4.6,4.5-5.3,7.6c-0.7,3.1-0.3,6.4,0.6,9.5c0.6,2.2,1.5,4.5,3.4,5.6c1.6,1,3.5,1,5.4,1
			c2.9-0.1,5.8-0.3,8.7-0.8c1.8-0.3,3.7-0.7,4.7-2.2c0.7-1.1,0.8-2.4,0.8-3.7c0-2.6-0.1-5.2-0.4-7.8c-0.2-2.6-0.6-5.2-2.2-7.3
			C163,233.6,151.7,232.2,148.9,233.7z"/>
		<path class="st1" d="M167.5,246.7c1.7-3.3,5-5.8,8.7-6.6c1.5-0.3,3.2-0.3,4.6,0.3c1.4,0.6,2.7,2,2.8,3.5c0.2,1.5-0.8,3.1-2.2,3.7
			c-1.4,0.6-3.2,0.2-4.2-1"/>
		<path class="st1" d="M167.5,249.9c4.6-0.4,9.3,2.8,10.5,7.3"/>
		<path class="st1" d="M142.8,240.9c-3-1.9-5.6-1.6-9-0.8c-1.7,0.4-3.5,0.9-4.6,2.3c-0.4,0.5-0.8,1.1-0.8,1.8s0.2,1.4,0.7,1.7
			c0.5,0.3,1,0.4,1.6,0.4c1.4,0,2.8-0.2,4.2-0.7"/>
		<path class="st1" d="M143.7,248.2c-4.7,0.9-8.6,4.8-9.6,9.5"/>
		<path class="st1" d="M163.5,234.3c6-6.7,12.1-13.1,20.7-15.7c3.2-1,7.2-1,9.5,1.5c1.5,1.7,1.9,4.3,1.5,6.5
			c-0.3,2.3-1.2,4.5-1.8,6.7c-1.4,5-1.2,10.5,0.5,15.4c1.3,3.8,3.5,7.3,4,11.3c0.7,6.2-3.2,12.5-8.9,15.1s-12.7,1.6-17.8-2
			c-5.1-3.6-8.3-9.5-9.2-15.7"/>
		<path class="st1" d="M149.9,232.8c-1.3-3.5-4-5.6-7.3-7.3s-6.9-2.6-10.5-3.5c-4.1-1-8.7-1.9-12.3,0.3c-3,1.8-4.5,5.4-4.7,8.9
			s0.9,6.9,1.9,10.3c1.1,3.3,2.2,6.7,2.3,10.2c0.1,3.7-0.9,7.3-1.6,10.9c-0.7,3.6-1.1,7.5,0.3,10.9c2.1,5.1,8,8.1,13.6,7.7
			c5.5-0.4,10.6-3.7,14.1-8c3.5-4.3,5.7-9.5,7.4-14.8"/>
		<path class="st1" d="M135,46.9c-0.9-5.6-1.8-11.4-0.7-16.9c1.1-5.6,4.5-11,9.9-12.9c2.5-0.9,5.2-0.9,7.9-0.7
			c1.4,0.1,2.8,0.3,3.8,1.3c1.2,1.2,1.1,3.1,1,4.8c-0.5,8.1-1,16.2-1.5,24.3"/>
		<path class="st1" d="M177.6,46.7c3.6-6.9,9.5-12.6,16.5-15.9c0.7,6.9,0.4,14-0.9,20.9"/>
		<path class="st1" d="M222.7,98.5c3.9-1.6,7.8-3.3,11.7-4.9c0.5-0.2,1.1-0.4,1.5-0.1c0.4,0.2,0.5,0.7,0.6,1.1
			c0.8,3.4,0.8,7.1,0,10.5"/>
		<path class="st1" d="M225.5,106.4c6.7-0.1,13.4-1.1,19.8-3c1,3.9,2.1,7.8,3.1,11.7c0.4,1.7,0.8,3.6,0,5.1
			c-0.8,1.4-2.4,2.1-3.9,2.6c-8.2,2.6-17.6,0.7-24.1-4.8"/>
		<path class="st1" d="M214,178.3c3.7,1,6.7,3.8,8.6,7.1s2.9,7,3.5,10.8c-5.5-1-10.9-2-16.4-2.9"/>
		<path class="st1" d="M199.9,190.6c2.8,5.6,5.1,11.6,6.9,17.7c-4.7,1.3-9.4,2.6-14.1,3.8c-0.7,0.2-1.4,0.4-2.1,0
			c-0.8-0.4-1.1-1.4-1.4-2.4c-1-3.4-2-6.7-3-10.1"/>
		<path class="st1" d="M81.6,189.2c-4.5,4.7-8.4,10.1-11.4,15.9c3.2,3.1,6.4,6.3,9.5,9.4c0.7,0.7,1.4,1.4,2.3,1.6
			c1.9,0.4,3.5-1.4,4.5-3c3.1-4.8,5.4-10.1,6.8-15.7"/>
		<path class="st1" d="M96.4,202.5c-0.9,5-1.9,10.1-2.8,15.1c6.3-0.7,12.2-4.4,15.4-9.9"/>
		<path class="st1" d="M48.5,163.2c-4.4,5.3-6.1,12.8-4.3,19.5c4.9-1.9,9.7-3.7,14.6-5.6"/>
		<path class="st1" d="M46.7,134.7c-5.8,1.5-11.5,2.9-17.3,4.4c-1.1,0.3-2.3,0.6-2.8,1.6c-0.6,1.1-0.1,2.4,0.3,3.5
			c1.2,3,2.4,6,3.6,9c0.7,1.7,1.4,3.4,2.8,4.6c2.5,2.1,6.1,1.6,9.2,0.6c4.6-1.4,9-3.6,12.9-6.5"/>
		<path class="st13" d="M181.6,73.6c-2,2.5-2.3,5.9-2.2,9c0,1.1,0.1,2.3,0.9,3c0.9,0.7,2.1,0.6,3.2,0.4c5.2-0.8,10.5-1.4,15.7-0.9
			c5.2,0.5,10.5,2.2,14.5,5.7c1.3-4.1-0.1-8.7-2.9-12c-2.8-3.2-6.8-5.2-11-6.1S183.5,71.1,181.6,73.6z"/>
		<path class="st1" d="M54.2,94.2c-4.6-1.9-9.4-3.2-14.3-3.7c-1.3-0.1-2.7-0.2-3.8-0.9c-1.8-1-2.8-3.2-2.9-5.2
			c-0.2-4.3,2.6-8.1,5.2-11.5c1.4-1.8,3-3.8,5.3-4.3c2.8-0.7,5.5,1,7.9,2.5c4.3,2.8,8.7,5.7,11.7,9.8"/>
		<path class="st1" d="M66.7,77C63,72,59.2,67.1,55.5,62.2c-0.3-0.4-0.6-0.8-0.7-1.2c-0.3-0.9,0.1-1.9,0.7-2.6s1.4-1.2,2.2-1.6
			c1.3-0.7,2.6-1.5,4-1.9c1.4-0.4,3.1-0.3,4.3,0.5c1.1,0.7,1.8,1.8,2.4,2.9c2.2,3.9,3.7,8.1,4.6,12.4"/>
		<path class="st1" d="M140.5,224.2c1.3-5.2,1.5-7.4,0.6-11.9c-3.3,2.9-7.2,6.1-11.6,5.7c-2.3-0.2-4.5-1.4-6.7-1.8
			c-3.7-0.6-7.4,0.8-11.1,1.6c-3.7,0.8-8.1,0.6-10.4-2.3"/>
		<path class="st1" d="M169.7,227.8c0.5-4.8,2-10.7,3.1-18.1c1.4,1.2,3,2.2,4.7,3c1.5,0.7,3.4,1.1,4.8,0.2c0.8-0.5,1.3-1.3,1.9-2
			c1.3-1.4,2.3-2.2,4.2-2.1"/>
		<path class="st1" d="M206,203.1c0.5-1.1,1.8-1.6,3-1.8c1.2-0.2,2.4,0,3.6-0.2c3-0.6,5.3-3,5-6.1"/>
		<path class="st1" d="M222.3,183.3c2.2-2.6,4.5-5.3,6-8.4s2.3-6.7,1.4-10c-0.9-3.3-3.3-6.2-3.1-9.6c0.3-3.9,4.1-6.5,6.4-9.7
			c2.3-3.1,3.4-7.1,3.6-11c0.2-3.9-0.2-6.7-0.7-10.5"/>
		<path class="st1" d="M194.9,44c1.7-0.3,3.3,1.2,3.9,2.8c0.6,1.6,0.5,3.4,0.7,5.1c0.7,6.5,5.2,12.4,11.3,14.7
			c1.9,0.7,3.9,1.1,5.8,1.9c1.9,0.8,3.7,2,4.4,3.9c1.6,4-2,8.8-0.2,12.7c1,2.3,3.5,3.4,5.6,4.7s3.9,2.5,3.4,4.9"/>
		<path class="st1" d="M156.7,36.6c0.9-1.8,3.5-2.1,5.3-1.3c1.8,0.8,3.2,2.4,4.5,3.9c1.4,1.5,3,2.9,5,3.2c2.2,0.3,4.3-1,6.3-2.1
			s2.9-2.4,5.1-1.8"/>
		<path class="st1" d="M71.4,63.9c3.9,0.4,6.1-3.1,8.1-6.5c2-3.4,3.8-7.4,7.5-9c1.7-0.8,3.7-0.9,5.3-1.8c4.5-2.5,5.4-9.8,10.5-10.9
			c4.7-1,8.7,4.6,13.5,4.5c3.2,0,5.7-2.4,8.3-4.3s6.4-3.1,8.8-1"/>
		<path class="st1" d="M52.6,70.8c0.1-1.6,1.9-2.5,3.4-2.6c1.6-0.1,2.2,0.4,3.7-0.1"/>
		<path class="st1" d="M41.8,90.8c-5.3,1.6-8.3,8.2-6.1,13.3c0.9,1.9,2.4,3.6,3.2,5.5c1.9,4.3,0.4,9.3-1.2,13.8s-3.5,9.2-2.3,13.8"
			/>
		<path class="st1" d="M39.9,159.3c-0.8,1.3-1.6,2.6-1.8,4.1c-0.2,1.5,0.4,3.2,1.8,3.8c0.6,0.3,1.4,0.3,1.9,0.7
			c0.5,0.4,0.7,1.2,1,1.8c0.3,0.6,0.8,1.3,1.4,1.3"/>
		<path class="st1" d="M52.8,179.8c0.8,2.5,0.6,5.2,0.5,7.8c-0.2,2.6-0.4,5.3,0.4,7.8c0.8,2.5,2.7,4.8,5.3,5.2c1.7,0.3,3.4-0.3,5-1
			s3.1-1.4,4.8-1.6c1.7-0.2,3.6,0.3,4.5,1.8"/>
		<path class="st1" d="M88.4,210.1c0.7,0,1.4,0.3,1.9,0.9c0.4,0.5,0.6,1.2,0.9,1.8c0.7,1.1,1.5,1,2.7,0.7"/>
		<path class="st1" d="M268.4,243.7c-1.1-8.5-2.1-17-3.2-25.5c-0.2-1.4-0.4-2,0.5-3.1c0.8-1,2.2-1.2,3.5-1.3
			c3.2-0.2,6.5,0.2,9.1,1.9c3.7,2.4,5.6,6.9,5.9,11.3c0.3,4.4-0.9,8.7-2,13"/>
		<path class="st1" d="M289.6,214c3.2-3,5.8-6.7,7.6-10.8c0.8-1.8,1.4-3.8,0.7-5.6c-0.8-2.4-3.5-3.6-6-4.2c-1.9-0.4-4-0.6-5.8,0.1
			c-2.8,1-4.6,3.5-6.2,5.9c-1,1.5-2.1,3-2.7,4.7s-0.8,3.6-0.2,5.3c0.8,2,2.7,3.4,4.5,4.6c1.4,1,2.8,1.9,4.5,2.1
			C287.6,216.3,289.5,215.3,289.6,214z"/>
		<path class="st1" d="M294.2,208.8c1.1-1.3,2.1-2.6,3.5-3.6c1.4-1,3-1.7,4.7-1.5c1.7,0.2,3.1,1.2,4.4,2.2c1.2,0.9,2.4,1.9,2.7,3.3
			c0.4,1.7-0.8,3.4-1.9,4.8c-1.6,2.1-3.2,4.1-4.8,6.2c-1.3,1.7-2.9,3.6-5.1,3.8c-2.3,0.2-4.2-1.6-5.8-3.3c-1.1-1.2-2.4-2.5-2.5-4.2
			c-0.1-1.7,0.9-3.2,2-4.5C292.6,211,293.6,209.6,294.2,208.8z"/>
		<path class="st1" d="M304.8,218.1c1.1-2.8,3.9-4.8,6.8-5.1s6,1.3,7.6,3.8c0.5,0.9,0.9,1.8,0.9,2.9c0,1-0.5,2-1,2.9
			c-1.1,2.1-2.4,4-3.9,5.8c-1.2,1.4-2.5,2.8-4.3,3.3c-3,0.8-5.9-1.2-8.4-3.1c-1-0.8-2.1-1.8-2.1-3.1c0-0.8,0.5-1.6,0.9-2.3
			C302.7,221.3,304.3,219.5,304.8,218.1z"/>
		<path class="st5" d="M233.2,174.2c-3.6,7.5-4.5,16.5-0.9,23.7c3.6,7.3,12.4,12.2,20.7,10.4c6.3-1.4,11.4-6.1,14.6-11.5
			c3.5-5.8,5.2-12.7,3.6-19c-2-7.9-9.6-14.1-18.1-14.8C244.6,162.3,236.5,167.4,233.2,174.2z"/>
		<path class="st1" d="M292.3,256.8c7.4,0,8.5-11.3,7.7-14.4"/>
		<path class="st1" d="M284,232.2c9.4,6.2,18.8,12.4,28.2,18.7c1.5,1,3.2,2.1,5,1.9c2-0.2,3.5-1.8,4.8-3.3c3.1-3.6,5.9-7.4,8.6-11.4
			c1.1-1.6,2.2-3.5,1.6-5.4c-0.4-1.4-1.8-2.4-3-3.3c-3.6-2.4-5.9-4.6-9.5-7"/>
		<path class="st1" d="M265,216.4c-1.3-0.3-2.7-0.5-3.9-1.3c-1.2-0.7-2.1-2-2-3.3c0.1-1.1,0.7-2,1.4-2.9c4.1-5.7,8.3-11.5,12.4-17.2
			c0.8-1.2,1.8-2.4,3.2-2.7c3.6-0.7,5.8,2.2,8.7,5.1"/>
		<path class="st5" d="M110.2,107.7c-1.3,3.5-0.6,7.3,0.3,10.9c0.6,2.4,1.3,4.9,2.6,7c1.3,2.2,3.1,4.1,5.5,4.9
			c3.2,1.1,6.9,0.1,9.6-2.1c2.6-2.2,4.2-5.4,5-8.8c0.8-3.3,1-6.8,1.1-10.2c0.1-1.5,0-3.2-1.3-4c-0.8-0.5-1.7-0.4-2.6-0.3
			C123.7,106.1,117,106.9,110.2,107.7z"/>
		<path class="st5" d="M186.8,102.2c-0.5,3.9-0.8,7.7-1,11.6c-0.1,3.2,0,6.8,2.2,9.2c2.3,2.5,6.4,2.9,9.5,1.4
			c3.1-1.5,5.1-4.6,6.3-7.9c1.1-3.3,1.4-6.7,1.6-10.2c0.1-1.4,0-3.2-1.2-3.9c-0.6-0.3-1.3-0.3-1.9-0.3
			C197.1,102.3,192.4,102.3,186.8,102.2z"/>
		<path class="st1" d="M145.7,199.5c3.2,2.9,8.4,3.2,12,0.7"/>
		<path class="st14" d="M182.4,156.7c0.1,4.6,0.1,10.2,0.2,14.8c-13.8,3-28.3,2.7-42-0.8c-8.7-2.2-17.2-5.7-26.2-6.3"/>
		<path class="st14" d="M169.6,189.6c0.2-1.8,0.5-3.5,0.7-5.3c-6.6,0.4-13.2-0.3-19.9-0.4c-6.6-0.1-13.4,0.4-19.5,3.1"/>
		<path class="st1" d="M116.9,243.5c-17.3-0.8-32.7,8.9-43.5,22.4c-10.8,13.5-20.5,49.3-22.3,66.9c-2.5,25.6,1,63.4,1.4,102.9"/>
		<path class="st1" d="M195.6,317.1c-2.9,34-1.9,68.4,3.1,102.2"/>
		<path class="st1" d="M211.8,295.9c6.4-12.3,12.8-24.6,19.3-36.9c1.4-2.7,3-5.5,5.6-6.9c3.7-1.9,8.3-0.3,12.1,1.5
			c9.4,4.5,18.2,10.2,26,17.1c3.5,3.1,7,6.8,7.1,11.4c0.1,2.8-1.1,5.4-2.3,8c-7.3,15.5-16.9,30-28.2,42.8
			c-7.2,8.2-15.3,15.8-25.2,20.4s-21.8,5.7-31.6,1"/>
		<path class="st1" d="M192.6,238.7c3.5-4.1,9.4-4.2,14.2-1.9c4.8,2.3,8,7.2,9.5,12.3c1.4,5.1,1.3,10.6,0.8,15.9
			c-1,10.4-3.4,20.6-5.8,30.8"/>
		<path class="st1" d="M145.5,273.4c8.2,21.3,8.6,45,8.3,68.1c-0.4,33-1.9,66-4.6,98.9"/>
		<path class="st1" d="M168.8,271.6c-7.2,10.3-12.7,21.9-16,34"/>
		<path class="st1" d="M109.1,314.5c-4.7,41-0.1,72.9,0,114.1"/>
		<path class="st1" d="M135.1,281.9c-3.5,10.7-7,21.3-10.5,32c-1.2,3.5-2.3,7.1-2.6,10.8c-0.6,8,3.1,15.6,5.9,23.1
			c10.4,27.9,9.5,59,8.5,89.1"/>
		<path class="st1" d="M176.9,276.5c-4,17.2-5.8,25.5-3.3,35c1.1,4.2,6.5,20,5.8,24.5c-2,12.9-8.7,25.8-10.6,35.2
			c-3.8,18.6-1.3,38.6-5.1,69.2"/>
		<path class="st1" d="M244.5,252.3c1.4-3.8,2.9-7.6,4.6-11.2c0.5-1.2,1.2-2.4,2.3-2.9c1.3-0.5,2.7,0,4,0.5c3.8,1.5,7.5,3,11.3,4.4
			c7,2.8,14,5.5,20.5,9.3c2.2,1.3,4.4,2.9,4.9,5.3c0.4,1.9-0.5,3.9-1.3,5.7c-2.4,5.2-5.1,10.8-10,13.8"/>
		<path class="st2" d="M287.4,259.5c-0.4-2.1-3.2-4.8-4.6-5.3c-1.6-0.7-3.5,0.2-4.8,1.3c-1.7,1.5-2.9,3.7-3,6.1
			c-0.1,2.3,0.9,4.7,2.8,6c1.9,1.3,4.6,1.5,6.5,0.2C286,266.7,288.1,263.5,287.4,259.5z"/>
		<path class="st15" d="M259.7,173.4c-2-2.5-5.5-3.1-8.7-2.9c-4.6,0.2-9.1,1.8-12.9,4.5"/>
		<path class="st15" d="M259.2,176.7c-7.8-2.9-17.2-0.3-22.5,6"/>
		<path class="st15" d="M258.2,181.5c-7.9-0.8-16,2.8-20.8,9.1"/>
		<path class="st15" d="M243.6,169.4c-4,6.4-4.2,14.9-0.4,21.4"/>
		<path class="st15" d="M248.8,168.9c-3.6,5.8-3.9,13.5-0.7,19.5"/>
		<path class="st15" d="M253.1,168.9c-2.8,5.7-2.7,12.7,0.1,18.4"/>
		<path class="st15" d="M259.7,169.4c-3,5.2-3.8,11.6-2.2,17.4"/>
		<path class="st1" d="M322.8,248.8c1.3,0.5,2.3,1.4,3.4,2.2c1.1,0.8,2.5,1.3,3.8,0.8c0.9-0.4,1.5-1.2,2-2.1
			c0.9-1.3,1.7-2.6,2.6-3.9c0.5-0.7,1-1.5,1.1-2.3c0.2-1.3-0.6-2.6-1.7-3.4c-1.1-0.8-2.4-1.2-3.6-1.6"/>
		<path class="st1" d="M115.6,173.6c-1.1-2.3-1.3-4.9-1.3-7.4c0-2.5,0.8-5.2,2.6-6.9c1.9-1.8,4.8-2.4,7.5-2.1s5.1,1.6,7.4,3.1
			c6.9,4.4,13.4,10.9,21.5,10.8c4.6,0,9-2.3,12.8-4.9c3.8-2.6,7.4-5.7,11.6-7.7c3.7-1.8,8-2.7,11.8-1.2c5.2,2,8,8.2,7.1,13.7
			s-4.8,10.2-9.5,13.1s-10.2,4.3-15.7,5.3c-10.2,1.8-20.8,2.5-30.9,0.2C130.4,187.1,121.2,185.9,115.6,173.6z"/>
	</g>
</g>
<g id="Calque_6">
</g>
</svg>
