<?xml version="1.0" encoding="utf-8"?>
<!-- Generator: Adobe Illustrator 25.2.3, SVG Export Plug-In . SVG Version: 6.00 Build 0)  -->
<svg version="1.1" xmlns="http://www.w3.org/2000/svg" xmlns:xlink="http://www.w3.org/1999/xlink" x="0px" y="0px"
	 viewBox="0 0 350 450" style="enable-background:new 0 0 350 450;" xml:space="preserve">
<style type="text/css">
	.st0{fill:none;stroke:#003769;stroke-width:5;stroke-linecap:round;stroke-linejoin:round;stroke-miterlimit:10;}
	.st1{fill:#4092E8;}
	.st2{fill:#FFAC2F;}
	.st3{fill:#FFFFFF;}
	.st4{fill:none;stroke:#003769;stroke-width:4;stroke-linecap:round;stroke-linejoin:round;stroke-miterlimit:10;}
	.st5{fill:#FE450E;}
	.st6{fill:#003769;stroke:#003769;stroke-width:3;stroke-linecap:round;stroke-linejoin:round;stroke-miterlimit:10;}
	.st7{fill:#003769;}
	.st8{fill:none;stroke:#FFFFFF;stroke-width:4;stroke-linecap:round;stroke-linejoin:round;stroke-miterlimit:10;}
	.st9{fill:none;stroke:#FFFFFF;stroke-linecap:round;stroke-linejoin:round;stroke-miterlimit:10;}
	.st10{fill:none;stroke:#003769;stroke-width:5.6325;stroke-linecap:round;stroke-linejoin:round;stroke-miterlimit:10;}
	.st11{fill:#FE450E;stroke:#003769;stroke-width:4;stroke-linecap:round;stroke-linejoin:round;stroke-miterlimit:10;}
	.st12{fill:#FFAC2F;stroke:#003769;stroke-width:4;stroke-linecap:round;stroke-linejoin:round;stroke-miterlimit:10;}
	.st13{fill:#003769;stroke:#003769;stroke-width:4;stroke-linecap:round;stroke-linejoin:round;stroke-miterlimit:10;}
	.st14{fill:#FFFFFF;stroke:#003769;stroke-width:4;stroke-linecap:round;stroke-linejoin:round;stroke-miterlimit:10;}
	.st15{fill:none;stroke:#003769;stroke-width:2;stroke-linecap:round;stroke-linejoin:round;stroke-miterlimit:10;}
	.st16{fill:none;stroke:#003769;stroke-width:2;stroke-miterlimit:10;}
	.st17{fill:#89E2F5;}
	.st18{fill:#003769;stroke:#003769;stroke-width:5.6325;stroke-linecap:round;stroke-linejoin:round;stroke-miterlimit:10;}
	.st19{fill:#4092E8;stroke:#003769;stroke-width:4;stroke-linecap:round;stroke-linejoin:round;stroke-miterlimit:10;}
	.st20{fill:none;stroke:#FFFFFF;stroke-width:2;stroke-linecap:round;stroke-linejoin:round;stroke-miterlimit:10;}
</style>
<g id="Calque_5">
	<path class="st1" d="M106.9,252.2l-23.5,2.6l-16.2,14.9l-9.8,28L53.9,346l0.2,53.3c0,0,4.2,42.4,4.4,42.5c8.8,4.9,19.4,4,29.4,3.7
		c23-0.7,45.9,2.6,69,2.8s46.9-3.2,66.2-15.7l-2.1-37.6l11.1-10.3l4.8-11.8l-0.9-7.9l-9.8-5l-2.2,5.2l-11.8,3.3l-21.8-50.3l8.5-0.4
		l8.3,6.3l18.1-0.9l-2-15.3l-9.6-35.6l-9-20.1l-10.2-7.9l-25.4,2l-23.8,62.5L106.9,252.2z"/>
	<polygon class="st2" points="123.4,276.8 145.5,259.4 158.7,276 146.7,310.2 	"/>
	<polygon class="st3" points="120.1,285.7 120.9,314 145.6,315.2 126.4,278.6 	"/>
	<polygon class="st3" points="156.3,277.6 145.4,313.5 167.6,321.2 166.4,280.3 	"/>
	<polygon class="st3" points="192.5,321.6 211,367.5 223.8,363.1 221.1,349 213.3,336.2 205.6,323.1 199.8,317.1 	"/>
	<polygon class="st3" points="96,332.2 96.6,322.9 106,321.4 120.1,327.4 141.1,348.8 130.3,356.7 122.6,348.2 114.3,338.4 
		103.5,332.6 	"/>
	<polygon class="st2" points="97.6,334 79.6,337.1 72.3,343 71.7,349.5 73.7,354.5 75.9,371.5 80.1,378 85.2,377.6 90.6,384 
		97.2,384 101.3,383.8 107.6,385.6 110.8,377.2 112.6,369.4 119.9,364 127.2,357.8 127.6,352.5 118.8,343.2 111.8,337.2 	"/>
	<polygon class="st2" points="209.1,323.7 228.9,324.7 235.1,330.4 244.3,338 246.3,343.9 249.8,354.9 245.9,360.6 242.4,370.7 
		231,360.6 223.4,359 218.5,342.5 	"/>
	<path class="st0" d="M105.1,252.2c-11.9-1.6-30.3,5.9-37,15.8c-6.8,9.9-9.4,22-11.2,33.9c-6.8,46.1-2.5,93,1.9,139.3"/>
	<path class="st0" d="M179.3,246.7c6.3-5.2,16.3-3.3,22.4,2.2c6.1,5.5,9.1,13.5,11.5,21.3c5.4,17.1,9.3,34.7,13.1,52.2"/>
	<path class="st0" d="M109.2,355.6c-4.7-0.7-9.4,2.8-11.3,7.2s-1.6,9.5-0.6,14.2c0.5,2.4,1.2,4.8,2.9,6.6c1.7,1.8,4.5,2.7,6.6,1.4
		c1.7-1,2.4-3.2,2.5-5.1c0.2-2-0.1-4,0.3-5.9c0.9-4.6,4.9-7.9,8.8-10.5s8.2-5.2,10.1-9.6"/>
	<path class="st0" d="M96.5,351.5c-4.7,2.1-8.5,6.3-10.3,11.1c-1.8,4.9-1.8,10.4-0.1,15.3c0.7,1.9,1.6,3.8,3.1,5.2
		c1.5,1.4,3.6,2.1,5.6,1.6s3.6-2.5,3.3-4.5"/>
	<path class="st0" d="M84.7,376.4c-1.1,2.2-4.5,2.1-6.3,0.5c-1.8-1.7-2.3-4.2-2.8-6.6c-1.1-5.6-2.2-11.6-0.3-17
		c2.1-5.8,7.3-10,13.5-12.6c5-3,10.4-6.1,16.2-5.7c4.1,0.3,6.4,2.3,9.9,4.5"/>
	<path class="st0" d="M227.6,347.5c2.7,0.3,5.5,0.7,8.1,1.6c2.6,0.9,5.1,2.4,6.7,4.6c2.8,3.9,2.5,9.3,1,13.8
		c-0.3,0.9-0.7,1.9-1.6,2.4c-1,0.5-2.2,0-3-0.8c-0.8-0.8-1.2-1.8-1.8-2.8c-2.5-4.4-7.6-7.2-12.6-6.9"/>
	<path class="st0" d="M226.4,340.4c9.4-0.4,18.3,2,21.1,8.4c1.7,3.9,4.2,11-1,11.5"/>
	<path class="st0" d="M221.1,331.4c4-0.3,4-0.4,7.9,0.1c6.9,0.8,17.8,6.2,15.5,13.1"/>
	<path class="st0" d="M208,324.3c3,0.1,10,0,13-0.3s6.1-0.3,8.8,1c2.7,1.3,4.8,4.2,4.4,7.2"/>
	<path class="st0" d="M93,335c-3.2,0.6-6.3,1.3-9.5,1.9c-2.9,0.6-5.9,1.2-8.2,3.1c-2.8,2.3-7.2,8.2-1.1,13.5"/>
	<path class="st0" d="M192.4,320.1c2.4-2.1,5.6-3.2,8.8-3.1c5.4,7.1,10.9,14.3,15.2,22.3c4.2,7.9,7.3,16.7,7.4,25.7
		c-3.6,1-7.3,1.8-11,2.2"/>
	<path class="st0" d="M107.7,322.4c-3-1.3-6.8-0.7-9.3,1.4c-2.5,2.1-3.7,5.7-3,8.9c5.6-0.6,12.5,1.9,17.1,5.2
		c4.6,3.3,7.2,6.6,10.9,10.8c1.6,1.8,3.2,4.3,5.6,4.7c2.2,0.4,4.5-0.7,6.1-2.2c1.6-1.5,2.7-3.5,3.8-5.5"/>
	<path class="st0" d="M171,323.9c-11.5-6.4-18.5-8.9-31.5-10.5c-13.1-1.6-25.5-1-42.9,8.9c17.5-3.6,32.7,10.4,42.8,24.9"/>
	<path class="st0" d="M127.6,360.4c18.5-17.6,39.6-32.4,62.4-43.8c6.5,15.2,13,30.5,19.4,45.7c1,2.3,2,4.8,1.7,7.3
		c-0.3,3.1-2.6,5.6-4.7,7.8c-18.3,18.8-40.8,32.9-63,46.8c-3.7,2.3-7.6,4.7-12,5.3c-5.7,0.7-11.2-1.8-16.2-4.6
		c-32.6-18.4-55.9-52.4-61.4-89.5"/>
	<path class="st0" d="M89.3,308.8c3.2,7.8,5.2,16.1,6,24.6"/>
	<path class="st0" d="M191.7,293.8c2.3,7.8,3.3,16,2.9,24.2"/>
	<path class="st0" d="M237.5,367.2c-0.9,8.3-2.4,17.4-8.9,22.6c-4.9,3.9-11.7,4.4-17.9,3.8c-6.2-0.7-12.3-2.5-18.5-2.7"/>
	<path class="st0" d="M221.2,393.6c-0.1,13.6,0.6,27.3,2,40.8"/>
	<path class="st0" d="M166.8,283.6c-0.3,10.7-1.2,26.8,0,37.4"/>
	<path class="st0" d="M120.1,285.7c-0.9,4.7-0.4,22.4,1.1,27"/>
	<path class="st0" d="M128.2,282.1c5.8,7.5,13,21.3,17.1,29.8c3-9.4,8-24.9,11-34.3"/>
</g>
<g id="Calque_2">
	<path class="st2" d="M78.7,67.4c0.1-4.1,0.1-8.4-1.5-12.2c-1.6-3.8-5.3-7-9.4-6.8c-3.2,0.2-6,2.6-6.8,5.7c-0.7,3.1,0.7,6.5,3.4,8.2
		c-3.5-2.1-7.5,1-11.5,0c-1.1-0.3-2.6-1.2-3.7-1.3c-2.2-0.3-4,2.4-5.6,3.9c-1.9,1.8-3.7,3.5-4.9,5.8c-1.2,2.2-1.6,5.1-0.4,7.3
		c0.6,1.2,1.7,2.2,1.9,3.5c0.5,2.6-2.1,4.6-3.4,6.9c-1.6,2.9-1.1,6.6-0.2,9.8c0.9,3.2,2.1,6.6,1.5,9.9c-0.7,4.3-4.2,7.9-4.2,12.3
		c0,1.9,0.6,4.1-0.6,5.5c-1.7,2-5.1,0.5-7.6,1.5c-1.8,0.7-2.8,2.6-3,4.5c-0.2,1.9,0.3,3.8,0.8,5.6c0.8,2.7,1.5,5.5,3.1,7.9
		s4.1,4.2,7.1,4.3c-1.5,1.2-2.3,3.1-2.2,5s1.1,3.7,2.6,4.8l3.8,2l-2.8,10.7l9.4-0.8l-0.8,15.3l3.2,5.5l6.9,0.4l7.3,0l-1.5,6.9l5,5.9
		l5.6,5.7l5.2-5l4.2,2.2l2,4.8l9.1-2l1.7,4.2l10.1,0.1l8.7,1.1l4.5,2.2l7.2-1.3l5.7-2.7l-1.7,10.1l4.8,6.1l4.2,4.1l7.4,1.8l5.5,1.3
		h5.8l2.6-13.3l2.8-8.8l7.4,3.6l6.8-3.3l3.2,3.1l15.8-2l0.6-6l6.2,0l5.2-2.3l3-4.1l6.3,2.3l-1.8-8.2l-2.3-4.5l7.4-6.1l3.9-8.2
		l-1-6.4l-0.9-5.4l3.9-6l6.1-7.1l1.8-7.4l0.5-10.4l13.3-1.5l-1.3-17l-7.8,0l0.2-11.3l-5.4-0.3l-3.7-6.7l0.1,0.7l-3.8-3.5l0.3-8.7
		l-1.1-6.8l-8.7-7.4l-6.5-5.1L205.6,59l-2.2-6.1l-0.7-11.3l-14.1,5.7L180,49l-5.4-3.4l-5-5.5l-4.7,0.3l1.4-17.1l-8.9-3.7l-7.6,2.6
		l-5.1,7.5l-3.2,5.3l-7.5,2.5l-9.7,2.7l-8.4-4.5l-6.8-1.4l-6,7.7l-7.4,2.9l-6.4,2l-5.1,6.5l-4.2,4.5l-3.5,2.8L78.7,67.4z"/>
	<polygon class="st5" points="139,238.3 129.8,230.2 114.7,225.5 104.4,229.5 105.8,243 107.1,253.6 105.3,265.5 104.9,276.6 
		111.5,283.6 126.1,283.4 133.4,276.3 138.9,267.1 143.9,262.8 150,263.5 152.9,272.6 160.7,279.8 171.6,282.2 180.5,278.4 
		184.6,270.9 183.4,260.6 181.2,250.5 181.4,242.5 184.1,233.4 181.3,226.6 173.3,224.6 165.5,229 157.3,235.1 149.8,240 	"/>
	<path class="st4" d="M137.3,238.5c-2.8,1.4-4.8,4.3-5.6,7.4c-0.8,3.1-0.5,6.4,0.2,9.5c0.5,2.2,1.3,4.5,3.2,5.8
		c1.5,1,3.5,1.2,5.3,1.2c2.9,0,5.8-0.1,8.7-0.4c1.8-0.2,3.7-0.6,4.8-2c0.8-1,0.9-2.4,0.9-3.7c0.1-2.6,0.1-5.2,0-7.8
		c-0.1-2.6-0.4-5.3-1.9-7.4C151.3,239,140.1,237.1,137.3,238.5z"/>
	<path class="st4" d="M155.3,252.3c1.9-3.3,5.3-5.6,9-6.2c1.6-0.2,3.2-0.2,4.6,0.5c1.4,0.7,2.6,2.1,2.7,3.6c0.1,1.5-0.9,3.1-2.3,3.6
		c-1.4,0.6-3.2,0.1-4.2-1.2"/>
	<path class="st4" d="M155.1,255.5c4.6-0.3,9.2,3.2,10.2,7.8"/>
	<path class="st4" d="M130.8,245.5c-2.9-2-5.5-1.8-9-1.2c-1.7,0.3-3.5,0.8-4.7,2.1c-0.4,0.5-0.8,1.1-0.9,1.7
		c-0.1,0.7,0.1,1.4,0.7,1.8c0.4,0.3,1,0.4,1.6,0.5c1.4,0.1,2.9-0.1,4.2-0.5"/>
	<path class="st4" d="M131.4,252.8c-4.7,0.7-8.8,4.5-10,9.1"/>
	<path class="st4" d="M151.8,239.8c6.3-6.4,12.6-12.6,21.3-14.8c3.3-0.8,7.2-0.7,9.4,1.9c1.5,1.8,1.7,4.3,1.3,6.6
		c-0.4,2.3-1.4,4.4-2.1,6.6c-1.6,5-1.6,10.4-0.1,15.4c1.1,3.8,3.2,7.5,3.5,11.5c0.5,6.2-3.7,12.3-9.5,14.7
		c-5.8,2.4-12.7,1.1-17.7-2.7c-5-3.8-7.9-9.8-8.6-16"/>
	<path class="st4" d="M138.3,237.7c-1.1-3.5-3.7-5.7-7-7.6c-3.2-1.9-6.8-2.9-10.4-3.9c-4-1.2-8.6-2.3-12.3-0.3
		c-3.1,1.7-4.7,5.2-5,8.7c-0.3,3.5,0.6,7,1.5,10.3s1.9,6.8,1.9,10.3c0,3.7-1.2,7.2-2.1,10.8c-0.9,3.6-1.4,7.4-0.1,10.9
		c1.9,5.2,7.7,8.4,13.2,8.2c5.6-0.2,10.7-3.3,14.4-7.5c3.7-4.2,6.1-9.3,8-14.5"/>
	<path class="st4" d="M141.9,49.2c-0.2-5.7-0.4-11.5,1.4-16.9c1.7-5.4,5.8-10.4,11.4-11.6c2.6-0.6,5.3-0.3,7.9,0.2
		c1.3,0.3,2.8,0.7,3.6,1.8c1,1.3,0.8,3.2,0.5,4.9c-1.5,8-2.9,16-4.4,23.9"/>
	<path class="st4" d="M184.2,54.1c4.4-6.4,10.9-11.4,18.3-13.8c-0.1,7-1.3,14-3.4,20.6"/>
	<path class="st4" d="M222.8,110.9c4.1-1.2,8.1-2.3,12.2-3.5c0.5-0.1,1.1-0.3,1.5,0.1c0.3,0.3,0.4,0.7,0.4,1.1
		c0.3,3.5-0.1,7.1-1.2,10.4"/>
	<path class="st4" d="M224.6,119.2c6.7,0.7,13.4,0.5,20-0.6c0.6,4,1.1,8,1.7,12c0.2,1.7,0.4,3.7-0.6,5.1c-0.9,1.3-2.6,1.8-4.2,2.1
		c-8.4,1.6-17.5-1.4-23.4-7.7"/>
	<path class="st4" d="M204.6,189.2c3.5,1.5,6.1,4.6,7.7,8c1.5,3.5,2,7.3,2.2,11.1c-5.3-1.6-10.6-3.3-15.9-4.9"/>
	<path class="st4" d="M189.1,199.6c2.1,5.9,3.7,12.1,4.7,18.4c-4.8,0.7-9.6,1.4-14.4,2.1c-0.7,0.1-1.5,0.2-2-0.2
		c-0.7-0.5-1-1.6-1.1-2.5c-0.6-3.5-1.1-6.9-1.7-10.4"/>
	<path class="st4" d="M71.8,184c-5.1,4.2-9.5,9-13.2,14.5c2.8,3.5,5.5,7,8.3,10.5c0.6,0.7,1.2,1.5,2.1,1.8c1.8,0.6,3.6-1,4.8-2.4
		c3.6-4.4,6.5-9.4,8.7-14.7"/>
	<path class="st4" d="M84.9,199.1c-1.5,4.9-3.1,9.8-4.6,14.7c6.3,0.1,12.7-2.9,16.5-8"/>
	<path class="st4" d="M42.1,154.3c-5,4.7-7.6,12-6.6,18.8c5.1-1.3,10.1-2.5,15.2-3.8"/>
	<path class="st4" d="M43.7,125.8c-5.9,0.8-11.8,1.5-17.7,2.3c-1.1,0.1-2.3,0.3-3,1.2c-0.7,1-0.4,2.3-0.1,3.5
		c0.8,3.1,1.7,6.3,2.5,9.4c0.5,1.8,1,3.6,2.2,4.9c2.2,2.3,5.9,2.3,9.1,1.7c4.8-0.9,9.4-2.5,13.6-4.9"/>
	<path class="st4" d="M56,86.5c-4.3-2.5-9-4.3-13.8-5.4c-1.3-0.3-2.6-0.6-3.7-1.3c-1.7-1.2-2.4-3.5-2.2-5.5
		c0.3-4.3,3.5-7.7,6.6-10.7c1.6-1.6,3.5-3.4,5.8-3.7c2.8-0.3,5.4,1.6,7.5,3.5c3.9,3.3,7.9,6.7,10.5,11.2"/>
	<path class="st4" d="M70.5,70.8c-3.1-5.3-6.3-10.7-9.4-16c-0.2-0.4-0.5-0.8-0.6-1.3c-0.2-0.9,0.3-1.8,1-2.5s1.5-1,2.4-1.4
		c1.4-0.6,2.8-1.2,4.2-1.4c1.5-0.2,3.1,0,4.2,1c1,0.8,1.5,2,2,3.1c1.7,4.1,2.8,8.4,3.1,12.9"/>
	<path class="st4" d="M126.1,225.9c2-5,2.4-7.1,2-11.8c-3.6,2.5-7.9,5.2-12.2,4.2c-2.3-0.5-4.3-1.9-6.5-2.6
		c-3.6-1.1-7.4-0.1-11.2,0.2c-3.7,0.3-8.1-0.4-10.1-3.6"/>
	<path class="st4" d="M155.1,235.2c1-4.7,2.8-12.6,4.8-19.8c1.3,1.4,2.7,2.6,4.3,3.5c1.4,0.8,3.2,1.5,4.7,0.8
		c0.8-0.4,1.4-1.2,2.1-1.8c1.4-1.3,2.5-1.9,4.4-1.6"/>
	<path class="st4" d="M193.6,212.8c0.6-1,2-1.4,3.2-1.4c1.2,0,2.4,0.3,3.6,0.2c3.1-0.2,5.7-2.4,5.7-5.4"/>
	<path class="st4" d="M212.2,195.1c2.5-2.3,5.1-4.7,7-7.6c1.9-2.9,3.1-6.4,2.6-9.8c-0.5-3.3-2.6-6.6-1.9-9.9c0.8-3.9,4.8-6,7.5-8.8
		c2.7-2.8,4.2-6.6,4.9-10.5c0.7-3.8,0.6-6.6,0.6-10.5"/>
	<path class="st4" d="M201.7,53.5c1.7-0.1,3.1,1.5,3.5,3.2c0.4,1.7,0.1,3.4,0.1,5.1c-0.1,6.5,3.7,12.9,9.4,15.9
		c1.8,0.9,3.7,1.6,5.5,2.5c1.8,1,3.4,2.5,3.9,4.4c1.1,4.2-3,8.5-1.7,12.6c0.7,2.4,3,3.8,5,5.4s3.6,2.9,2.8,5.3"/>
	<path class="st4" d="M164.7,41.6c1.1-1.6,3.7-1.7,5.4-0.7c1.7,1,2.9,2.8,4,4.4c1.2,1.6,2.6,3.2,4.6,3.7c2.2,0.6,4.4-0.4,6.5-1.3
		c2.1-0.9,3.2-2,5.3-1.2"/>
	<path class="st4" d="M76.7,58.5c3.9,0.9,6.4-2.4,8.8-5.5c2.4-3.2,4.7-6.9,8.5-8c1.8-0.5,3.7-0.4,5.5-1.1c4.8-1.9,6.5-9.1,11.7-9.6
		c4.8-0.5,8.1,5.6,12.9,6.1c3.2,0.4,6-1.7,8.8-3.2c2.8-1.5,6.7-2.3,8.8,0.1"/>
	<path class="st4" d="M57.2,63c0.3-1.5,2.1-2.2,3.7-2.2c1.6,0.1,2.2,0.7,3.7,0.3"/>
	<path class="st4" d="M44.1,81.6c-5.4,0.9-9.3,7.2-7.7,12.5c0.6,2,1.9,3.8,2.5,5.9c1.4,4.5-0.7,9.3-2.9,13.5s-4.6,8.7-3.9,13.4"/>
	<path class="st4" d="M34,149.4c-1,1.2-1.9,2.4-2.3,3.8c-0.4,1.5,0,3.2,1.3,4c0.6,0.4,1.3,0.5,1.8,1c0.5,0.5,0.6,1.2,0.8,1.9
		c0.2,0.7,0.6,1.4,1.3,1.5"/>
	<path class="st4" d="M44.3,171.3c0.5,2.6,0,5.2-0.5,7.8c-0.5,2.6-1,5.2-0.5,7.8c0.5,2.6,2.1,5.1,4.7,5.8c1.6,0.5,3.4,0.1,5-0.4
		c1.6-0.5,3.3-1.1,5-1.1c1.7,0,3.5,0.7,4.3,2.3"/>
	<path class="st4" d="M76,205.6c0.7,0,1.4,0.5,1.8,1.1c0.3,0.6,0.4,1.3,0.7,1.9c0.5,1.1,1.4,1.2,2.6,1"/>
</g>
<g id="Calque_4">
</g>
<g id="Calque_9">
</g>
<g id="Calque_6">
	<path class="st3" d="M189,95.5c-10.5,1.2-20.4,8.5-23.8,18.5s0.1,22.3,8.8,28.3c8.7,6,22,4.7,28.8-3.4c4.4-5.2,5.9-12.2,6.1-18.9
		c0.2-6.3-0.8-13-4.5-18.1C200.8,96.7,194.2,94.9,189,95.5z"/>
	<path class="st4" d="M141.8,136.5c5.5-1.8,12-1,16.4,2.8c4.4,3.8,5.8,10.9,2.5,15.7c-1.9,2.7-5,4.4-8.3,5.3
		c-4.9,1.4-10.4,1-14.9-1.5"/>
	<path class="st7" d="M199.4,113.2c-1.1-5-6.4-8.5-11.5-8.3c-5.1,0.3-9.8,3.9-11.8,8.6c-2.1,4.7-1.8,10.2,0.2,14.9
		c1.1,2.7,2.9,5.3,5.4,6.8c3.5,2.1,8.1,1.7,11.6-0.4s5.7-5.9,6.6-9.9C200.8,120.9,200.2,116.8,199.4,113.2z"/>
	<path class="st7" d="M199.4,113.2c-1.1-5-6.4-8.5-11.5-8.3c-5.1,0.3-9.8,3.9-11.8,8.6c-2.1,4.7-1.8,10.2,0.2,14.9
		c1.1,2.7,2.9,5.3,5.4,6.8c3.5,2.1,8.1,1.7,11.6-0.4s5.7-5.9,6.6-9.9C200.8,120.9,200.2,116.8,199.4,113.2z"/>
	<path class="st6" d="M78.7,82.7c4.3,8.8,14.1,14.1,23.9,14.5c9.8,0.5,19.4-3.3,27.5-8.7c-1.8-6.9-3.5-13.9-5.3-20.8
		c-8.5,7-18.3,12.6-28.7,16.2c-3,1.1-6.1,2-9.2,2S80.4,85.2,78.7,82.7z"/>
	<path class="st6" d="M208.5,89.3c-3.8-9-13.3-14.8-23.1-15.8c-9.7-1-19.5,2.3-27.9,7.2c1.4,7,2.8,14,4.2,21.1
		c8.9-6.6,18.9-11.6,29.5-14.7c3-0.9,6.2-1.6,9.3-1.5C203.7,85.7,206.9,86.7,208.5,89.3z"/>
	<path class="st3" d="M86.8,101.1c5.3,6.6,13.8,10.5,22.3,10.2s16.7-5,21.4-12c1.3,9.1,2.7,18.5,0.3,27.4s-9.4,17.2-18.6,18
		c-9.5,0.9-18.1-6.6-21.8-15.3C86.7,120.6,86.9,110.8,86.8,101.1z"/>
	<path class="st7" d="M98.6,109.9c-1.7,5.4-1.5,11.6,1.4,16.4c2.9,4.9,8.8,8,14.4,6.9c5.3-1.1,9.3-5.8,10.7-11s0.3-10.8-1.5-15.8
		C116.5,111.4,107,112.7,98.6,109.9z"/>
	<g>
		<path class="st11" d="M93.6,192.2c-2.9-4.2-3.8-9.7-2.4-14.6c1.4-4.9,5.1-9.1,9.7-11.1c5.9-2.6,12.7-1.7,18.8,0.3
			c6.1,2,11.7,5.2,17.8,7.2c11.7,3.9,24.7,3.5,36.1-1.2c5-2,10.7-4.9,15.3-2.2c3.8,2.1,5,6.9,5.9,11.1c0.6,2.7,1,5.8-0.7,7.9
			c-1.5,1.9-4.1,2.4-6.5,2.8C156.7,196.9,125.1,196.4,93.6,192.2z"/>
		<path class="st3" d="M169.3,176.6c-0.1,5-1.8,7.6-1.8,7.6s-24.9,6.8-45.8-1.2c-21-8-28.2-6.4-28.2-6.4s1.8-4.5,6.8-7.6
			c5-3,10.6-2,10.6-2s4.4-0.3,14.6,4.3c10.2,4.6,16.4,7.4,26.8,7.4S169.3,176.6,169.3,176.6z"/>
	</g>
</g>
<g id="Calque_7">
</g>
</svg>
