<?xml version="1.0" encoding="utf-8"?>
<!-- Generator: Adobe Illustrator 25.2.3, SVG Export Plug-In . SVG Version: 6.00 Build 0)  -->
<svg version="1.1" xmlns="http://www.w3.org/2000/svg" xmlns:xlink="http://www.w3.org/1999/xlink" x="0px" y="0px"
	 viewBox="0 0 200 200" style="enable-background:new 0 0 200 200;" xml:space="preserve">
<style type="text/css">
	.st0{fill:#FFAC2F;}
	.st1{fill:none;stroke:#003769;stroke-width:5;stroke-linecap:round;stroke-linejoin:round;stroke-miterlimit:10;}
	.st2{fill:#FFFFFF;stroke:#003769;stroke-width:5;stroke-linecap:round;stroke-linejoin:round;stroke-miterlimit:10;}
	.st3{fill:#003769;stroke:#003769;stroke-width:5;stroke-linecap:round;stroke-linejoin:round;stroke-miterlimit:10;}
	.st4{fill:#FE450E;stroke:#FE450E;stroke-width:5;stroke-linecap:round;stroke-linejoin:round;stroke-miterlimit:10;}
	.st5{fill:#FFFFFF;}
	.st6{fill:#FE450E;stroke:#003769;stroke-width:5;stroke-linecap:round;stroke-linejoin:round;stroke-miterlimit:10;}
	.st7{fill:#003769;}
	.st8{fill:#FE450E;}
	.st9{fill:#FF0000;}
	.st10{fill:#FFE500;}
	.st11{fill:#A100FF;}
	.st12{fill:#04B846;}
	.st13{fill:#4092E8;}
	.st14{fill:#B05B00;}
	.st15{fill:#89E2F5;}
	.st16{fill:#FF87A9;}
	.st17{fill:none;stroke:#003769;stroke-width:3;stroke-linecap:round;stroke-linejoin:round;stroke-miterlimit:10;}
	.st18{fill:#FFFFFF;stroke:#003769;stroke-width:3;stroke-linecap:round;stroke-linejoin:round;stroke-miterlimit:10;}
	.st19{fill:none;stroke:#FFFFFF;stroke-width:4;stroke-linecap:round;stroke-linejoin:round;stroke-miterlimit:10;}
	.st20{fill:none;stroke:#003769;stroke-width:4;stroke-linecap:round;stroke-linejoin:round;stroke-miterlimit:10;}
</style>
<g id="Calque_2">
	<g id="Calque_5">
		<path class="st0" d="M114.7,12.2c-9.4,3.1-21,10.7-33.8,8.6c-7.6-1.3-12.5,10.3-18,4.8c-5-5-8.5-4.9-11.7-4.2
			c-3,0.7-2.9,5.4-2.6,8.4s3.1,5.7,4.8,8.2c-2,1.5-4,2.9-6,4.4c-1.8-1.5-3.7-3.1-6-3.6s-5.1,0.5-5.8,2.8c-1.1,3.3,2.9,6.4,2.9,9.9
			c0,4.1-5.3,6.6-5.8,10.7c-0.5,4,3.7,7.5,3.3,11.5c-0.5,4.8-7.3,7.1-7.9,11.9c-0.4,3,4.4,8,5.2,10.9c2.5,8.7-10.2,14-10.7,23.1
			c-0.1,1.8,0.2,3.7,1.4,5.1c1.2,1.3,3.4,1.9,4.8,0.8c1-0.7,1.4-2.1,2.4-2.8c1.9-1.3,4.6,0.3,5.3,2.5c0.6,2.2-0.2,4.5-1,6.6
			c-0.9,2.1-1.8,4.3-1.5,6.6c0.5,3.2,3.7,5.7,7,5.6s6.2-2.4,7.6-5.4c-2.5,5.1,1.2,11.4,6.1,14.2c5,2.8,10.8,3.2,16.4,4.4
			s11.4,3.7,13.8,8.9c0.8-2.7,3.8-4.2,6.6-4.2s5.4,1.1,8,2.3c-0.1,3.2,3.3,5.5,6.5,5.5c3.2,0,9.2,5.2,9,2c-0.8-13.3,27.2-17.8,35-27
			c2.7,2.6,7.5,0.9,9.5-2.2c2.1-3.1,2.3-7,2.8-10.7c0.5-3.7,1.7-7.7,4.8-9.6c1.9,1.8,5.3,0.9,6.6-1.3c1.3-2.2,0.7-5.2-0.9-7.3
			c-1.6-2-3.9-3.3-6.3-4.3c2.7,0,4-3.5,3.6-6.2c-0.4-2.7-1.7-5.4-1.1-8c0.8-3.6,4.5-5.5,7.3-7.8c2.8-2.4,4.7-7.1,1.8-9.3
			c-1.2-0.9-2.7-1-4.1-1.4c-3.2-1-1.7-6.2-4.3-8.4c-8.3-7.2-6.7-16.9-0.2-22.7c-4.6-3.7-11.6-4-16.5-0.7c-1.9-0.6-2.3-3.3-1.5-5.1
			s2.2-3.4,2.8-5.4c0.7-2.6-0.4-5.6-2.7-6.9s-5.5-1-7.4,0.8c-1.4,1.3-2.3,1.2-4.1,2c-1.6,0.6-9.8,0.6-11.4,0
			c-6.7-2.3-6.8-2.9-13.5-5.3C114.4,21.5,115,15.4,114.7,12.2z"/>
	</g>
	<path class="st1" d="M79.6,149.5c-0.1,6.7,1.5,13.4,4.7,19.3c1.3-5.4,3.7-10.5,6.9-15.1c-0.1,0-0.2,0-0.3,0"/>
	<path class="st1" d="M88,159.5c0.6,0.9,1.2,1.9,2,2.6c0.8,0.7,1.9,1.3,3,1.2c1.3,0,2.4-0.8,3.6-1.2c1.2-0.4,2.8,0,3.2,1.2"/>
	<path class="st1" d="M99.3,150.6c-0.1,5.6,0.5,11.2,1.8,16.7c0.2,0.7,0.4,1.5,1,2c0.6,0.5,1.4,0.7,2.2,0.8c3.3,0.5,6.6,1,10,1.5
		c0.8-6.7,0.5-13.6-0.7-20.2"/>
	<path class="st1" d="M115.3,160.3c2.5,2.7,7.1,3,10,0.7c2.3-1.9,3.4-5.1,6.1-6.4c2.1-1,4.6-0.6,6.9-0.8c5.5-0.6,11-5.9,10.7-11.4"
		/>
	<path class="st1" d="M140.6,129.8c5.2,5.1,8.9,11.6,10.8,18.6c3.1-3,6.6-6.1,10.8-6.3c-1.1-4.2-2.3-8.4-4.2-12.3
		c-1.9-3.9-4.7-7.5-8.4-9.7"/>
	<path class="st1" d="M159.9,132.4c1.7-0.7,2.1-1,3.4-2.3c1.3-1.3,2.1-3.2,1.6-5c-0.5-1.7-1.7-2.5-3.4-3.9c4.7-0.2,9.8-0.6,15.3-0.4
		c-1.2-4.4-4.1-8.2-7.9-10.7c-3.8-2.5-8.5-3.5-13-2.8"/>
	<path class="st1" d="M167.7,108.6c1.7-1.1,2.5-1.3,3.5-3.1s1-4.3-0.6-5.6c-0.9-0.7-2.1-1-2.7-1.9c-0.9-1.3,0-3.1,1.1-4.3
		s2.4-2.4,2.5-3.9"/>
	<path class="st1" d="M161.9,88.7c3.6,0,7.1,0,10.7-0.1c1.5,0,3.3,0.2,3.9,1.5c1.8-3.6,2.9-7.5,3.3-11.4c0.1-0.7,0.1-1.4-0.2-1.9
		c-0.3-0.6-1-0.8-1.6-1c-5.1-1.7-11.1-0.6-15.3,2.7"/>
	<path class="st1" d="M169.7,75c-0.4-1.8,0.2-2.9,0.4-4.7s0-4-1.5-5.1c-0.7-0.5-1.6-0.8-2.3-1.2c-1.4-0.8-2.2-2.3-2.5-3.9
		s-0.2-3.2,0-4.7"/>
	<path class="st1" d="M149.6,50.5c1.8-2.2,3.1-4.8,5-6.9c1.9-2.2,4.6-3.9,7.4-3.5c3.3,0.5,5.8,3.9,9.1,3.8
		c-3.7,6.4-7.6,13-13.6,17.3"/>
	<path class="st1" d="M147.4,43.8c3.1-4.1,5.8-8.5,7.9-13.2c0.3-0.7,0.6-1.5,0.4-2.3c-0.3-0.7-1-1.1-1.7-1.5
		c-1.9-0.9-3.9-1.7-5.8-2.4c-0.8-0.3-1.7-0.6-2.5-0.3c-1.1,0.3-1.7,1.4-2.3,2.4c-2.5,4.5-5,9.1-7.4,13.6"/>
	<path class="st1" d="M151,39.2c0.7,0.1,1.2,0.7,1.4,1.4c0.2,0.7,0.3,1.4,0.5,2c0.2,0.7,0.7,1.3,1.3,1.5"/>
	<path class="st1" d="M139.8,32.3c-0.5-1.9-1.6-3.4-3.5-3.7s-3.9,0.4-5.6,1.4c-1.3,0.7-2.8,1.7-4.2,1c-1.7-0.8-1.7-3.3-2.8-4.8
		c-0.9-1.2-2.5-1.6-4-1.5c-1.5,0.1-2.8,0.7-4.2,1.3c-0.1-5.2-0.3-10.4-0.4-15.6c0-0.3,0-0.6-0.2-0.8c-0.4-0.3-1-0.1-1.4,0.2
		c-4.7,3.4-8.3,8.5-9.9,14.1"/>
	<path class="st1" d="M105.4,18.7c-1.7-2.3-5.3-1.7-7.8-0.2c-2.4,1.5-4.5,3.7-7.3,4.3c-2.4,0.5-4.7-0.3-7.1-0.6
		C77,21.4,70.5,24,66.6,28.9"/>
	<path class="st1" d="M67.7,33.8c-1.5-4.6-4.2-8.7-7.7-12.1c-1.4-1.3-3.2-2.6-5-2.3c-0.9,0.2-1.6,0.6-2.4,1.1c-1.5,1-3.1,2-4.6,2.9
		c-0.5,0.3-1.1,0.7-1.4,1.3c-0.4,0.9-0.1,1.9,0.2,2.8c1.8,4.8,4.7,9.1,8.3,12.6"/>
	<path class="st1" d="M52.5,37.5c-1.1,0.1-2.2,0.7-2.8,1.7c-0.3,0.6-0.5,1.2-0.8,1.7s-0.9,1-1.5,1"/>
	<path class="st1" d="M51.2,45.4c-4.4-4.2-10.4-6.8-16.5-7c-0.4,0-0.9,0-1.3,0.3c-0.8,0.6-0.4,1.8,0.1,2.7c2,3.6,4.1,7.3,6.1,10.9
		c0.4,0.7,0.7,1.6,0.2,2.2c-0.4,0.5-1.2,0.4-1.8,0.5c-2,0.1-3.7,1.7-4.4,3.5c-0.7,1.9-0.5,3.9,0.2,5.8c0.6,1.6,1.5,3.1,2.1,4.6
		s1,3.4,0.4,5c-1.2,3.2-5.4,4.2-7.4,7c-1.7,2.4-1.5,5.6-0.3,8.3c1.2,2.6,3.3,4.7,5.3,6.8c0.1,3.5-2.5,6.5-5,9
		c-2.5,2.5-5.3,5-6.1,8.5c-0.5,2.1-0.1,4.3,0.3,6.4c0.4,2.6,0.9,5.1,1.3,7.7c0.1,0.4,0.2,0.8,0.5,1c0.6,0.4,1.2-0.2,1.7-0.7
		c4.9-5.8,9.2-12.1,12.9-18.8"/>
	<path class="st1" d="M34,118.2c0.8,1.6,0.5,3.6,0.4,5.4s0,3.9,1.4,5.2c1.1,1,2.7,1.1,4.2,1.1"/>
	<path class="st1" d="M48.9,119.6c-6.9,5.7-12,13.5-14.3,22.1c1.6,0.1,2.9,1.3,4.3,2.2c1.4,0.9,3.3,1.5,4.6,0.5
		c0.7-0.5,1-1.3,1.3-2.1c0.9-2.2,1.8-4.5,2.7-6.7c0.4,3.3,0.9,6.7,2,9.8c1.1,3.2,2.9,6.2,5.6,8.1c3.5,2.5,8.1,3.1,12.4,2.3
		c1.3-0.2,2.7-0.6,4-0.4c1.6,0.3,2.9,1.3,4.3,2.1c1.4,0.8,3.1,1.5,4.5,0.8"/>
</g>
<g id="Calque_4">
</g>
<g id="Calque_24">
</g>
<g id="Calque_25">
</g>
<g id="Calque_26">
</g>
<g id="Calque_27">
</g>
<g id="Calque_28">
</g>
<g id="Calque_29">
</g>
<g id="Calque_30">
</g>
<g id="Calque_31">
</g>
<g id="Calque_32">
</g>
<g id="Calque_33">
</g>
<g id="Calque_34">
</g>
<g id="Calque_35">
</g>
<g id="Calque_7">
</g>
<g id="Calque_10">
</g>
<g id="Calque_11">
</g>
<g id="Calque_12">
</g>
<g id="Calque_13">
</g>
<g id="Calque_3">
</g>
<g id="Calque_14">
</g>
<g id="Calque_15">
</g>
<g id="Calque_16">
</g>
<g id="Calque_19">
</g>
<g id="Calque_20">
</g>
<g id="Calque_17">
</g>
<g id="Calque_6">
</g>
<g id="Calque_9">
</g>
<g id="Calque_8">
</g>
<g id="Calque_18">
</g>
<g id="Calque_21">
</g>
<g id="Calque_22">
</g>
<g id="Calque_23">
</g>
</svg>
