<?xml version="1.0" encoding="utf-8"?>
<!-- Generator: Adobe Illustrator 25.2.3, SVG Export Plug-In . SVG Version: 6.00 Build 0)  -->
<svg version="1.1" id="Calque_1" xmlns="http://www.w3.org/2000/svg" xmlns:xlink="http://www.w3.org/1999/xlink" x="0px" y="0px"
	 viewBox="0 0 100 100" style="enable-background:new 0 0 100 100;" xml:space="preserve">
<style type="text/css">
	.st0{fill:#FFFFFF;stroke:#003769;stroke-width:5;stroke-linecap:round;stroke-linejoin:round;stroke-miterlimit:10;}
	.st1{fill:#003769;}
	.st2{fill:none;stroke:#003769;stroke-width:5;stroke-linecap:round;stroke-linejoin:round;stroke-miterlimit:10;}
</style>
<path class="st0" d="M58.2,67.1c10.6-4.8,15.7-8.9,22.6-15.7c1.4-1.4,5.3-7,2.6-9.9c-2.1-2.2-7.2,0.4-8.8,1.4
	c-8.5,5.1-10.6,7.7-18.3,14.7c-1.3-10.4-2.5-20.8-3.8-31.1c-0.5-4-1.2-8.4-4.1-11.1c-1.2-1.1-2.9-1.8-4.4-1.3
	c-2.5,0.9-2.7,4.3-2.4,7c1.2,11.2,2.7,22.3,5.2,33.4c-4.5-8-8.9-15.9-13.4-23.9c-2.2-4-5-8.4-9.5-9.3c-0.9-0.2-2-0.2-2.6,0.5
	c-0.7,0.7-0.5,1.9-0.3,2.9c2.8,12.3,8.5,23.9,16.6,34.3c-5.5-3.3-11.2-6.2-17.1-8.7c-1.1-0.5-2.2-0.9-3.4-0.9
	c-1.2,0-2.5,0.5-3.1,1.5c-0.9,1.5-0.1,3.3,0.8,4.7c3,4.5,7.7,7.8,12.9,9.6c5.1,1.8,10.7,2.3,16.4,2.7c-0.2,7.6,0,15.3,0.6,22.9
	c4.3-0.6,8.5-1.2,12.8-1.8c0.6-0.1,1.3-0.2,1.7-0.6C59.6,87.8,58.1,73.6,58.2,67.1z"/>
</svg>
