<?xml version="1.0" encoding="utf-8"?>
<!-- Generator: Adobe Illustrator 25.2.3, SVG Export Plug-In . SVG Version: 6.00 Build 0)  -->
<svg version="1.1" id="Calque_1" xmlns="http://www.w3.org/2000/svg" xmlns:xlink="http://www.w3.org/1999/xlink" x="0px" y="0px"
	 viewBox="0 0 100 100" style="enable-background:new 0 0 100 100;" xml:space="preserve">
<style type="text/css">
	.st0{fill:#FFFFFF;stroke:#003769;stroke-width:5;stroke-linecap:round;stroke-linejoin:round;stroke-miterlimit:10;}
	.st1{fill:#003769;}
	.st2{fill:none;stroke:#003769;stroke-width:5;stroke-linecap:round;stroke-linejoin:round;stroke-miterlimit:10;}
</style>
<path class="st0" d="M13.7,49.4C21,42.1,23,37.8,27.9,32.1c2-2.3,4.4-4.6,7.3-5.2c3-0.6,6.1,0.4,8.5,2.2c2.5,1.8,4.4,4.1,6.3,6.5
	c3.9-4.6,8.9-9.6,14.9-8.7c4.9,0.7,8.2,5.3,11,9.5c3.8,5.7,6.5,9.4,10.3,15.2c-5,10.2-11.7,20.7-35.6,21.9
	C31.9,74.3,15.9,58.4,13.7,49.4z"/>
<path class="st2" d="M14.4,49.7c1.5,1.4,3.7,1.5,5.7,1.4c5.3-0.1,10.6-0.1,15.7-1.5c3.4-0.9,6.7-2.4,10.2-2.9
	c4.3-0.5,8.7,0.6,12.8,2.1c4.1,1.5,8.1,3.3,12.3,4.3c4.2,1,8.9,1.1,12.8-0.9"/>
</svg>
