<?xml version="1.0" encoding="utf-8"?>
<!-- Generator: Adobe Illustrator 25.2.3, SVG Export Plug-In . SVG Version: 6.00 Build 0)  -->
<svg version="1.1" id="Calque_1" xmlns="http://www.w3.org/2000/svg" xmlns:xlink="http://www.w3.org/1999/xlink" x="0px" y="0px"
	 viewBox="0 0 100 100" style="enable-background:new 0 0 100 100;" xml:space="preserve">
<style type="text/css">
	.st0{fill:#FFFFFF;stroke:#003769;stroke-width:5;stroke-linecap:round;stroke-linejoin:round;stroke-miterlimit:10;}
	.st1{fill:#003769;}
	.st2{fill:none;stroke:#003769;stroke-width:5;stroke-linecap:round;stroke-linejoin:round;stroke-miterlimit:10;}
</style>
<path class="st0" d="M18.7,56.8c5.9-10.5,17.5-17.6,29.5-18.2c12.1-0.5,24.2,5.5,31,15.5c-5.4,10.7-16.9,18.1-28.9,18.6
	S26.3,66.6,18.7,56.8z"/>
<path class="st1" d="M38.9,40.5c-1.8,3.7-3.6,7.8-3,12c0.8,5.9,6.1,10,11.4,11.3c5.6,1.4,11.7,0.1,16.3-3.7
	c5.8-4.8,6.1-15.5,1.6-17.6C59.7,40,53,36.3,38.9,40.5z"/>
<path class="st2" d="M22.1,51.5c-3.8-2.6-6.6-6.8-7.5-11.3"/>
<path class="st2" d="M32.1,41.7c-2.5-3.2-4.1-7-4.6-11"/>
<path class="st2" d="M46.1,36.9c-0.8-3.6-1-7.4-0.5-11.1c0,0.1,0,0.3-0.1,0.4"/>
<path class="st2" d="M60.9,39.1c1.8-3.6,2.8-7.6,2.9-11.6"/>
<path class="st2" d="M75.3,45.5c3.1-2.7,5.1-6.6,5.7-10.6"/>
</svg>
