<?xml version="1.0" encoding="utf-8"?>
<!-- Generator: Adobe Illustrator 25.2.3, SVG Export Plug-In . SVG Version: 6.00 Build 0)  -->
<svg version="1.1" xmlns="http://www.w3.org/2000/svg" xmlns:xlink="http://www.w3.org/1999/xlink" x="0px" y="0px"
	 viewBox="0 0 100 100" style="enable-background:new 0 0 100 100;" xml:space="preserve">
<style type="text/css">
	.st0{fill:#FFFFFF;stroke:#003769;stroke-width:5;stroke-linecap:round;stroke-linejoin:round;stroke-miterlimit:10;}
	.st1{fill:#003769;}
	.st2{fill:none;stroke:#003769;stroke-width:5;stroke-linecap:round;stroke-linejoin:round;stroke-miterlimit:10;}
</style>
<g id="Calque_1">
</g>
<g id="Calque_3">
	<path class="st0" d="M24,34.2c0.8,10.8,1,21.6,1,32.4c8.3,3.4,16.6,6.8,24.9,9.7c9.1-2.4,17.9-6,26.2-10.4
		c-0.2-10.6-0.3-21.2-0.4-31.7c-7.8-5.2-16.3-9.4-25.2-12.1C41.1,24.9,32.1,29.1,24,34.2z"/>
	<path class="st2" d="M25,34.5c7.9,4.2,15,7.4,23.8,10.1c8.3-3.4,16.6-6.8,24.8-10.2"/>
	<path class="st2" d="M48.8,44.3c0.8,10.5,1,20.9,0.8,31.4"/>
	<path class="st1" d="M47.5,32.5c-1.3,0.7-1.3,1.6-1,2.2c0.3,0.7,1.1,1.1,1.9,1.2c1.3,0.2,2.6,0.1,3.8-0.4c0.5-0.2,1.1-0.7,1.2-1.2
		c0.2-0.7-0.3-1.4-0.9-1.7C51.1,31.9,49.1,31.6,47.5,32.5z"/>
	<path class="st1" d="M58.5,31.7c-1.3,0.7-1.3,1.6-1,2.2c0.3,0.7,1.1,1.1,1.9,1.2c1.3,0.2,2.6,0.1,3.8-0.4c0.5-0.2,1.1-0.7,1.2-1.2
		c0.2-0.7-0.3-1.4-0.9-1.7C62.1,31.2,60.1,30.9,58.5,31.7z"/>
	<path class="st1" d="M35.8,32.5c-1.3,0.7-1.3,1.6-1,2.2c0.3,0.7,1.1,1.1,1.9,1.2c1.3,0.2,2.6,0.1,3.8-0.4c0.5-0.2,1.1-0.7,1.2-1.2
		c0.2-0.7-0.3-1.4-0.9-1.7C39.4,31.9,37.4,31.6,35.8,32.5z"/>
	<path class="st1" d="M64.6,52.7c-0.8-0.4-1.8-0.2-2.5,0.4c-0.7,0.6-1,1.4-1.3,2.3c-0.2,0.7-0.4,1.4-0.2,2c0.3,0.9,1.2,1.5,2.2,1.5
		c0.9,0,1.8-0.6,2.3-1.4c0.5-0.8,0.6-1.8,0.6-2.7C65.6,53.9,65.3,53.1,64.6,52.7z"/>
	<path class="st1" d="M35.3,52.7c0.8-0.4,1.8-0.2,2.5,0.4c0.7,0.6,1,1.4,1.3,2.3c0.2,0.7,0.4,1.4,0.2,2c-0.3,0.9-1.2,1.5-2.2,1.5
		c-0.9,0-1.8-0.6-2.3-1.4c-0.5-0.8-0.6-1.8-0.6-2.7C34.3,53.9,34.7,53.1,35.3,52.7z"/>
	<path class="st1" d="M30.2,59.1c0.8-0.4,1.8-0.2,2.5,0.4c0.7,0.6,1,1.4,1.3,2.3c0.2,0.7,0.4,1.4,0.2,2c-0.3,0.9-1.2,1.5-2.2,1.5
		c-0.9,0-1.8-0.6-2.3-1.4c-0.5-0.8-0.6-1.8-0.6-2.7C29.2,60.3,29.5,59.5,30.2,59.1z"/>
	<path class="st1" d="M41.9,47.6c0.8-0.4,1.8-0.2,2.5,0.4s1,1.4,1.3,2.3c0.2,0.7,0.4,1.4,0.2,2c-0.3,0.9-1.2,1.5-2.2,1.5
		c-0.9,0-1.8-0.6-2.3-1.4c-0.5-0.8-0.6-1.8-0.6-2.7C40.9,48.8,41.3,48,41.9,47.6z"/>
	<path class="st1" d="M41.9,63.1c0.8-0.4,1.8-0.2,2.5,0.4s1,1.4,1.3,2.3c0.2,0.7,0.4,1.4,0.2,2c-0.3,0.9-1.2,1.5-2.2,1.5
		c-0.9,0-1.8-0.6-2.3-1.4c-0.5-0.8-0.6-1.8-0.6-2.7C40.9,64.3,41.3,63.5,41.9,63.1z"/>
	<path class="st1" d="M30.2,43.8c0.8-0.4,1.8-0.2,2.5,0.4c0.7,0.6,1,1.4,1.3,2.3c0.2,0.7,0.4,1.4,0.2,2C33.9,49.4,32.9,50,32,50
		s-1.8-0.6-2.3-1.4c-0.5-0.8-0.6-1.8-0.6-2.7C29.2,45,29.5,44.2,30.2,43.8z"/>
</g>
</svg>
