<?xml version="1.0" encoding="utf-8"?>
<!-- Generator: Adobe Illustrator 25.2.3, SVG Export Plug-In . SVG Version: 6.00 Build 0)  -->
<svg version="1.1" xmlns="http://www.w3.org/2000/svg" xmlns:xlink="http://www.w3.org/1999/xlink" x="0px" y="0px"
	 viewBox="0 0 200 200" style="enable-background:new 0 0 200 200;" xml:space="preserve">
<style type="text/css">
	.st0{display:none;}
	.st1{fill:#FFAC2F;}
	.st2{fill:none;stroke:#003769;stroke-linecap:round;stroke-linejoin:round;stroke-miterlimit:10;}
	.st3{fill:#FFFFFF;}
	.st4{fill:#FFFFFF;stroke:#003769;stroke-linecap:round;stroke-linejoin:round;stroke-miterlimit:10;}
	.st5{fill:#003769;stroke:#003769;stroke-linecap:round;stroke-linejoin:round;stroke-miterlimit:10;}
	.st6{fill:none;stroke:#FFFFFF;stroke-width:1.2101;stroke-linecap:round;stroke-linejoin:round;stroke-miterlimit:10;}
	.st7{fill:#4092E8;}
	.st8{fill:#003769;}
	.st9{fill:none;stroke:#003769;stroke-width:0.8602;stroke-linecap:round;stroke-linejoin:round;stroke-miterlimit:10;}
	.st10{fill:none;stroke:#003769;stroke-width:0.8145;stroke-linecap:round;stroke-linejoin:round;stroke-miterlimit:10;}
	.st11{fill:none;stroke:#003769;stroke-width:0.8431;stroke-linecap:round;stroke-linejoin:round;stroke-miterlimit:10;}
	.st12{opacity:0.3;fill:#003769;}
</style>
<g id="Calque_1" class="st0">
	
		<image style="display:inline;overflow:visible;opacity:0.5608;" width="3000" height="4000" xlink:href="2F2F01F190CE23D7.png"  transform="matrix(0.115 0 0 0.115 -58.9331 -156.8482)">
	</image>
</g>
<g id="Calque_6">
	<polygon class="st1" points="62.1,88.1 59.6,90.8 57.1,90.5 55.4,91.1 54.3,88.1 53,91.7 49.9,92.7 48.2,90.7 45.9,91.8 47.1,94.4 
		44.8,94.9 43.6,97.3 42.2,96.3 40.6,98.1 41.7,99.1 40.4,100.1 40.1,101.7 38.3,100.4 36.9,103.3 39.2,105.1 37.9,107.5 
		37.1,108.6 37.9,110.7 36,111.3 38,113.4 36,114.7 36.6,116.8 38.5,116 38.3,117.3 39.3,120.5 38.2,121.2 38.8,123.1 40.8,122.4 
		41.8,124 40.6,126 42.7,128 44.6,126.7 45.6,127.8 45.9,129 47.6,129.7 47.1,131.8 49.2,130.3 50,131.5 52,131.5 51.3,133.3 
		53.8,133.8 54.6,132 58.4,134.1 60.6,133.8 62.3,132.3 62.6,133.7 64.4,130.5 64.9,130.9 65.3,133.5 68.3,132.6 68.3,130.7 
		69.4,130.6 70.6,130.7 72.5,128.1 73.4,129.1 75.8,127.6 74.8,126.5 76.4,125.6 76.9,124.3 77.7,124.9 77.7,123 78.8,121.9 
		79.3,120.3 79.7,121 81.1,119.3 80.1,117.6 80.7,112 82.4,111.8 82.5,108.5 80.4,108.6 80.7,107.1 79.8,105.7 81.3,103.8 79,103.7 
		78.2,101.8 78.2,99.2 75.3,97.6 76.7,96.8 75.8,94.9 73.4,95.7 71.5,93.9 72.1,90.8 69.6,90.2 67.8,92.6 64.1,90.9 62.7,90.8 	"/>
	<polygon class="st1" points="100.6,58.6 96.8,58.6 99.9,62.9 99.1,65.5 99.3,68.4 95.3,69.1 99.5,71.3 100.2,72.6 100.3,75.8 
		97.7,77.2 98.5,80.8 101.9,79.6 101.9,82.6 105,84.8 103.3,86.3 105.2,88.9 106.7,87.8 109.8,90.7 107.6,92.3 111.3,94.6 
		114.1,91.9 116.7,93.7 118.2,95.4 121.3,94.6 121.1,97.9 122.7,95.6 124.6,95.1 125.4,97.9 128.4,97.6 127.8,95.1 129.4,95.6 
		131.7,94.7 133.8,94.7 134.1,96.2 136.5,95.9 136.1,93.2 138.6,92 140.5,94 143.6,91.4 141.9,89.3 143.4,87.9 145.4,87.8 
		146.6,85.4 149.6,87 147.6,83.3 149.3,83.2 149.6,81.4 144.1,78.8 139.1,73.5 136.4,76.4 129.3,79.1 122.4,79.4 122.4,75.5 
		120.3,70.8 127.2,70.1 135.2,67.4 137.5,65.8 138.4,64.1 139.8,69.5 154.2,72.2 154.2,70.3 152.9,67.6 152.7,67 154.2,66.8 
		152.7,65.1 150.5,63.7 152.7,63.2 154.8,63.6 154.4,59.5 152.2,59.1 151.9,58 152.3,56.9 152.3,55.3 149.4,53.2 151,52.1 
		149.2,48.9 147.8,49.5 146.8,47.5 145.3,46.5 145.5,45.8 144.2,45.4 143.2,44 140.6,43.1 142,42.1 139.8,40.2 137.4,41.2 
		136.4,40.5 134.1,40.4 132,39.7 130.6,39.8 130.7,37.2 126.7,36.5 126.5,39.1 124.4,38.6 122.6,39.6 120.5,37.1 120,40.3 
		118.6,40.1 117.3,41 115,40.4 112.7,41.3 111.6,43.8 110.5,41.8 108.4,42.4 108.2,43.8 109,45.8 107.4,46.4 106.4,48.1 102.7,46.7 
		101.5,47.3 101.1,49.8 101.6,51.1 103.5,52.4 103,53.6 101.1,56.2 	"/>
</g>
<g id="Calque_3">
	<g>
		<path class="st2" d="M58.9,93.1c0.5-2.1,1.8-4,3.6-5.3c0.2,1.5,0.4,2.9,0.6,4.4"/>
		<path class="st2" d="M67.4,94.4c0.3-1.1,0.6-2.1,1.2-3.1c0.2-0.3,0.4-0.7,0.7-0.9c0.5-0.3,1.2-0.2,1.8-0.1
			c0.4,0.1,0.9,0.2,1.1,0.6c0.1,0.2,0,0.5,0,0.7c-0.3,1.5-0.7,3-1.3,4.4"/>
		<path class="st2" d="M72.8,97.3c0.3-1.1,1.2-2,2.2-2.3c0.3-0.1,0.6-0.2,0.9,0c0.6,0.3,0.5,1.3,1,1.7c-0.9,0.4-1.7,1.2-2,2.1"/>
		<path class="st2" d="M77.2,103.3c0.7,0.2,1.4,0.4,2.1,0.5c0.7,0.1,1.4,0,2.1-0.3c-0.4,1.5-1.7,2.6-3.3,2.7"/>
		<path class="st2" d="M78.6,108.2c1.2,0.5,2.6,0.6,3.9,0.3c0.1,1.1,0,2.1-0.1,3.2c-0.8,0.5-1.8,0.3-2.6,0.1
			c-0.5-0.1-1.1-0.2-1.6-0.3"/>
		<path class="st2" d="M78.2,116.2c1,0.5,1.9,1.3,2.6,2.2c0.2,0.3,0.4,0.6,0.4,0.9c0,0.3-0.2,0.5-0.3,0.7c-0.2,0.3-0.4,0.6-0.6,0.9
			c0,0.1-0.1,0.2-0.2,0.2c-0.1,0.1-0.3,0-0.4-0.1s-0.1-0.2-0.2-0.4c-0.3-0.7-1-1.3-1.8-1.5"/>
		<path class="st2" d="M76.7,121c0.8,1.2,1.2,2.7,1.1,4.2c-0.1-0.5-0.5-0.9-0.9-1.2s-0.9-0.4-1.4-0.6"/>
		<path class="st2" d="M71.7,126.7c0.4,0.8,0.8,1.5,1.4,2.1c0.1,0.1,0.3,0.3,0.4,0.3c0.2,0,0.4-0.1,0.5-0.2c0.6-0.5,1.2-1,1.8-1.4
			c-0.7-0.7-1.3-1.5-1.7-2.4"/>
		<path class="st2" d="M67.6,129c0.6,1.1,0.8,2.4,0.6,3.6c-1,0.4-2,0.8-3.1,1c0.3-1.2,0.1-2.5-0.6-3.6c-0.3,1.5-1,2.9-1.9,4
			c0.1-1.1-0.2-2.1-0.7-3.1"/>
		<path class="st2" d="M52.6,129.7c-0.3,1.3-0.8,2.6-1.4,3.8c0.9-0.1,1.8,0.1,2.5,0.5c0.6-1.1,0.9-2.3,1-3.6"/>
		<path class="st2" d="M50,128.6c-0.4,1.5-1.6,2.9-3.1,3.5c0.8-1.3,1.1-2.8,0.9-4.3"/>
		<path class="st2" d="M45.5,124.9c-0.7,1.2-1.6,2.3-2.7,3.2c-0.7-0.7-1.5-1.4-2.2-2.1c0.7-1.2,1.7-2.2,2.7-3.1"/>
		<path class="st2" d="M41.6,121.5c-0.8,0.8-1.8,1.4-2.9,1.6c-0.2-0.6-0.3-1.1-0.5-1.7c0-0.1-0.1-0.2,0-0.3c0.1-0.1,0.2-0.1,0.4-0.2
			c1-0.2,1.8-0.9,2.2-1.8"/>
		<path class="st2" d="M39.9,113.4c-1.4,0-2.8,0.5-3.9,1.3c0.2,0.7,0.3,1.4,0.5,2.1c0,0.1,0,0.1,0.1,0.2c0.1,0.1,0.2,0,0.3-0.1
			c0.9-0.7,2.1-1,3.2-0.9"/>
		<path class="st2" d="M40.4,111.8c-1.4-0.9-3.3-1-4.8-0.4c0.1,0.2,0.3,0.4,0.6,0.5c0.2,0.1,0.5,0.1,0.7,0.2c0.5,0.2,1,0.7,1.1,1.2"
			/>
		<path class="st2" d="M40.7,105.7c-1.4-0.4-2.7-1.2-3.8-2.2c0.2-1.2,0.6-2.4,1.3-3.4c0.6,1.2,1.9,2.1,3.2,2.2"/>
		<path class="st2" d="M43.4,100.5c-0.9-0.7-1.8-1.4-2.6-2.3c-0.1-0.1-0.2-0.2-0.2-0.4c0-0.1,0.1-0.2,0.2-0.3
			c0.3-0.3,0.6-0.6,0.9-0.9c0.1-0.1,0.3-0.3,0.5-0.3c0.2,0,0.3,0.1,0.5,0.2c0.6,0.5,1.2,0.9,1.8,1.4"/>
		<path class="st2" d="M48.2,95.9c-0.8-1.3-1.7-2.7-2.5-4c0,0.1,0.1,0.1,0.1,0.2"/>
		<path class="st2" d="M45.9,91.8c0.8-0.4,1.7-0.9,2.5-1.3c0.8,1.1,1.6,2.3,2.4,3.4c0,0-0.1-0.1-0.1-0.1"/>
		<path class="st2" d="M53.4,93.1c-0.1-0.9-0.3-1.9-0.1-2.8c0.1-0.9,0.5-1.9,1.2-2.5c0.1,1.5,0.7,2.9,1.6,4.1"/>
		<path class="st2" d="M50.1,92.8c0.1-0.3,0.5-0.5,0.9-0.5c0.4,0,0.7,0,1.1-0.1c0.3-0.1,0.7-0.3,0.7-0.7"/>
		<path class="st2" d="M55.6,91.1c0.3-0.4,0.8-0.5,1.2-0.6s0.9,0.1,1.4,0.2c0.5,0.1,0.9,0.2,1.4,0.1"/>
		<path class="st2" d="M62.7,90.9c0.5-0.3,1.2-0.2,1.8,0c0.6,0.2,1.1,0.6,1.6,0.9s1.1,0.6,1.7,0.6"/>
		<path class="st2" d="M71.4,94.2c0.4-0.2,0.9,0,1.3,0.3s0.5,0.7,0.7,1.1"/>
		<path class="st2" d="M75.6,97.8c0.7,0.2,1.3,0.4,1.9,0.9c0.5,0.4,0.9,1.1,0.8,1.8c-0.1,0.4-0.3,0.8-0.2,1.2
			c0.1,0.3,0.3,0.6,0.5,0.8c0.2,0.2,0.4,0.6,0.3,0.9"/>
		<path class="st2" d="M79.7,105.8c0.6,0.4,1.2,1,1,1.8c-0.1,0.2-0.2,0.4-0.2,0.7"/>
		<path class="st2" d="M80.4,112.3c0.3,0.3,0.4,0.8,0.3,1.2s-0.2,0.8-0.3,1.2c0,0.5,0.1,0.9,0.2,1.4c0,0.5-0.1,1-0.5,1.2"/>
		<path class="st2" d="M78.7,120.5c0.4,0.9,0,2.2-1,2.6"/>
		<path class="st2" d="M74.8,126.5c0.6-0.1,1.1-0.4,1.5-0.8c0.4-0.4,0.6-1,0.6-1.5"/>
		<path class="st2" d="M68.3,131.3c0-0.5,0.4-0.8,0.9-0.8c0.3,0,0.6,0.2,0.9,0.3c0.5,0.1,1-0.4,1.3-0.8c0.4-0.6,0.7-1.2,0.8-1.8"/>
		<path class="st2" d="M62.1,132.2c-0.5,0.5-1,1-1.6,1.4c-0.6,0.4-1.3,0.6-2,0.4c-1.5-0.3-2.4-2-3.9-2"/>
		<path class="st2" d="M52,131.3c-0.6,0.2-1.1,0.2-1.7,0.3c-0.1,0-0.3,0-0.4-0.1c-0.4-0.2-0.1-0.9-0.5-1.1"/>
		<path class="st2" d="M47.7,129.5c-0.3,0-0.7,0.1-1,0s-0.7-0.2-0.8-0.5c-0.2-0.3-0.2-0.7-0.3-1.1c-0.1-0.5-0.5-0.9-0.9-1.2"/>
		<path class="st2" d="M40.8,122.4c0.1,0.7,0.5,1.3,1,1.7"/>
		<path class="st2" d="M38.5,116c-0.2,0.5-0.4,1-0.3,1.5c0.1,0.3,0.3,0.5,0.4,0.7c0.5,0.7,0.7,1.5,0.6,2.3"/>
		<path class="st2" d="M38,111.1c0-0.5-0.3-0.8-0.6-1.2c-0.2-0.4-0.5-0.8-0.3-1.3c0.1-0.5,0.6-0.8,0.9-1.2c0.6-0.5,1-1.2,1.2-1.9"/>
		<path class="st2" d="M40.2,102c-0.3-1,0.2-2.2,1.1-2.6"/>
		<path class="st2" d="M43.8,97.4c-0.1-0.8,0.2-1.7,0.8-2.3c0.6-0.6,1.4-0.9,2.2-0.8"/>
	</g>
	<g>
		<path class="st2" d="M102.7,64.2c-2.6-1.1-4.7-3.1-6-5.6c1.9,0,3.7,0.1,5.6,0.1"/>
		<path class="st2" d="M105.9,53.4c-1.3-0.5-2.6-1.2-3.7-2.1c-0.4-0.3-0.8-0.6-1-1c-0.3-0.7-0.1-1.6,0.2-2.3c0.2-0.5,0.5-1.1,1-1.3
			c0.3-0.1,0.6,0,0.9,0.2c1.8,0.7,3.6,1.5,5.3,2.5"/>
		<path class="st2" d="M110.6,47c-1.3-0.6-2.2-1.9-2.5-3.3c-0.1-0.4-0.1-0.8,0.1-1.1c0.5-0.7,1.7-0.4,2.4-1c0.3,1.3,1.1,2.4,2.3,3"
			/>
		<path class="st2" d="M119.1,42.4c0.4-0.8,0.8-1.7,1.1-2.6c0.2-0.9,0.3-1.9,0-2.7c1.8,0.7,3,2.8,2.8,4.7"/>
		<path class="st2" d="M125.6,41.5c0.8-1.5,1.2-3.3,1.1-5c1.4,0.1,2.7,0.3,4,0.7c0.4,1.1,0,2.3-0.3,3.4c-0.2,0.7-0.5,1.4-0.7,2"/>
		<path class="st2" d="M135.5,43.6c0.9-1.2,2-2.2,3.3-2.9c0.4-0.2,0.8-0.4,1.2-0.3c0.3,0.1,0.6,0.3,0.8,0.5c0.3,0.3,0.7,0.6,1,0.9
			c0.1,0.1,0.2,0.2,0.2,0.3c0,0.2-0.1,0.4-0.2,0.5c-0.1,0.1-0.3,0.1-0.5,0.2c-1,0.3-1.8,1.1-2.3,2"/>
		<path class="st2" d="M141.3,46.4c1.7-0.9,3.7-1.1,5.5-0.7c-0.6,0.1-1.2,0.5-1.6,1s-0.7,1.1-1,1.7"/>
		<path class="st2" d="M147.6,54c1-0.3,2-0.8,2.9-1.4c0.2-0.1,0.4-0.3,0.5-0.5c0.1-0.3-0.1-0.5-0.2-0.7c-0.5-0.9-1-1.7-1.5-2.6
			c-1,0.8-2.1,1.4-3.3,1.8"/>
		<path class="st2" d="M149.7,59.6c1.5-0.5,3.1-0.6,4.6-0.1c0.4,1.4,0.6,2.8,0.6,4.2c-1.5-0.6-3.2-0.6-4.7,0.1
			c1.8,0.7,3.4,1.8,4.7,3.3c-1.3-0.3-2.7-0.2-4,0.3"/>
		<path class="st2" d="M147.6,79.2c1.6,0.6,3.1,1.5,4.5,2.6c0.1-1.1,0.5-2.3,1.1-3.2c-1.3-1-2.8-1.6-4.3-1.9"/>
		<path class="st2" d="M145.8,82.3c1.9,0.9,3.3,2.7,3.8,4.7c-1.5-1.2-3.4-1.9-5.3-2"/>
		<path class="st2" d="M140.2,87.5c1.4,1.2,2.6,2.5,3.5,4.1c-1,0.8-2,1.6-3,2.5c-1.4-1.2-2.5-2.6-3.4-4.1"/>
		<path class="st2" d="M135.2,91.9c0.8,1.2,1.4,2.6,1.5,4c-0.7,0.1-1.5,0.2-2.2,0.3c-0.1,0-0.3,0-0.4,0c-0.1-0.1-0.1-0.3-0.1-0.5
			c0-1.3-0.7-2.5-1.8-3.2"/>
		<path class="st2" d="M124.6,92.6c-0.3,1.8,0,3.7,0.9,5.3c0.9-0.1,1.8-0.1,2.7-0.2c0.1,0,0.2,0,0.2-0.1c0.1-0.1,0-0.3,0-0.4
			c-0.7-1.3-0.9-2.9-0.6-4.3"/>
		<path class="st2" d="M122.7,91.6c-1.4,1.7-1.9,4.1-1.4,6.2c0.3-0.1,0.5-0.3,0.7-0.6c0.2-0.3,0.3-0.6,0.4-0.9
			c0.4-0.7,1-1.1,1.7-1.3"/>
		<path class="st2" d="M115.1,90.1c-0.8,1.8-2,3.3-3.5,4.5c-1.5-0.5-2.9-1.3-4.1-2.3c1.6-0.6,3-2,3.5-3.7"/>
		<path class="st2" d="M109,85.6c-1,1.1-2.2,2.1-3.4,3c-0.2,0.1-0.3,0.2-0.5,0.2c-0.2,0-0.3-0.2-0.4-0.3c-0.3-0.4-0.7-0.9-1-1.3
			c-0.2-0.2-0.3-0.5-0.3-0.7c0-0.2,0.2-0.4,0.4-0.6c0.7-0.7,1.4-1.4,2.1-2.1"/>
		<path class="st2" d="M104,78.6c-1.8,0.8-3.7,1.7-5.5,2.5c0.1,0,0.2-0.1,0.3-0.1"/>
		<path class="st2" d="M98.5,80.8c-0.4-1.2-0.8-2.3-1.1-3.5c1.6-0.8,3.2-1.7,4.8-2.5c0,0-0.1,0.1-0.1,0.1"/>
		<path class="st2" d="M101.6,71.3c-1.2,0-2.4,0-3.5-0.3c-1.1-0.3-2.2-1-2.9-2c1.9,0.1,3.8-0.3,5.5-1.3"/>
		<path class="st2" d="M100.6,75.6c-0.4-0.2-0.5-0.8-0.5-1.2c0-0.5,0.1-0.9,0.1-1.4c0-0.5-0.3-1-0.7-1.1"/>
		<path class="st2" d="M99.4,68.1C99,67.7,98.9,67,99,66.4c0.1-0.6,0.3-1.2,0.5-1.8c0.2-0.6,0.4-1.2,0.4-1.8"/>
		<path class="st2" d="M100.6,58.8c-0.2-0.8,0-1.6,0.4-2.3c0.4-0.7,0.9-1.3,1.4-1.9s0.9-1.3,1-2.1"/>
		<path class="st2" d="M106.5,48.1c-0.1-0.6,0.2-1.2,0.7-1.6s1-0.6,1.6-0.8"/>
		<path class="st2" d="M111.8,43.5c0.4-0.8,0.8-1.7,1.5-2.3c0.7-0.6,1.6-1,2.5-0.7c0.5,0.2,1,0.6,1.5,0.5c0.4,0,0.8-0.3,1.1-0.6
			c0.3-0.2,0.8-0.4,1.2-0.3"/>
		<path class="st2" d="M122.7,39.7c0.7-0.8,1.5-1.4,2.5-0.9c0.3,0.1,0.5,0.3,0.8,0.3"/>
		<path class="st2" d="M131.1,40c0.4-0.4,1-0.4,1.5-0.2c0.5,0.2,1,0.5,1.5,0.6c0.6,0.1,1.2,0,1.8,0.1s1.3,0.3,1.5,0.9"/>
		<path class="st2" d="M141.1,43.7c1.3-0.4,2.8,0.4,3.1,1.7"/>
		<path class="st2" d="M147.9,49.9c0-0.7-0.3-1.5-0.7-2s-1.1-1-1.8-1.1"/>
		<path class="st2" d="M152.7,59.1c-0.6-0.1-1-0.7-0.8-1.3c0.1-0.4,0.4-0.7,0.5-1.1c0.2-0.7-0.3-1.4-0.8-1.9
			c-0.6-0.6-1.4-1.1-2.2-1.4"/>
		<path class="st2" d="M152.7,67.4c0.5,0.7,1.1,1.5,1.4,2.3c0.3,0.9,0.5,1.8,0.2,2.7c-0.6,1.9-3,2.8-3.3,4.7"/>
		<path class="st2" d="M149.5,80.3c0.1,0.8,0.1,1.5,0,2.3c0,0.2-0.1,0.4-0.2,0.5c-0.4,0.4-1.2,0-1.5,0.4"/>
		<path class="st2" d="M146.4,85.5c0,0.4-0.1,0.9-0.2,1.3c-0.1,0.4-0.4,0.8-0.8,1c-0.4,0.2-1,0.1-1.5,0.2c-0.7,0.1-1.3,0.4-1.7,0.9"
			/>
		<path class="st2" d="M136.1,93.2c0.9,0,1.7-0.4,2.3-1"/>
		<path class="st2" d="M127.6,95c0.5,0.4,1.1,0.8,1.8,0.6c0.4-0.1,0.7-0.3,1-0.4c0.9-0.5,2.1-0.6,3.1-0.4"/>
		<path class="st2" d="M121.3,94.6c-0.6,0-1.1,0.3-1.7,0.5c-0.5,0.2-1.2,0.4-1.7,0.2c-0.6-0.2-0.9-0.9-1.3-1.4
			c-0.6-0.8-1.3-1.5-2.2-1.9"/>
		<path class="st2" d="M110.2,90.1c-1.3,0.2-2.7-0.7-3.1-2"/>
		<path class="st2" d="M105.2,84.5c-1,0-2.1-0.6-2.7-1.4c-0.6-0.9-0.8-2-0.6-3.1"/>
	</g>
	<polygon class="st3" points="120.3,70.8 123.4,70.9 133.4,68 137,66.3 138.4,64.1 139.8,69.2 148.1,70.9 147.3,75.2 146.4,77.1 
		144.5,78.3 142.3,76.9 139.2,73.2 137.4,75.7 134,78 127.3,79.2 122.4,79.4 122.4,76.8 121.6,73.2 	"/>
</g>
<g id="Calque_4">
	<path class="st4" d="M57.9,113.2c0.1-0.5,0.1-1.1-0.1-1.6s-0.7-0.9-1.2-0.8c-0.3,0.1-0.5,0.3-0.7,0.6c-0.1,0.3-0.2,0.6-0.2,0.9
		c0,0.5,0,1,0.2,1.4c0.1,0.4,0.4,0.9,0.8,0.9c0.4,0.1,0.8-0.2,1-0.6C57.8,113.7,57.8,113.3,57.9,113.2z"/>
	<path class="st4" d="M66.1,113c0-0.4,0.1-0.7,0.1-1.1c0-0.4,0-0.7-0.2-1.1c-0.2-0.3-0.6-0.5-0.9-0.5c-0.5,0.1-0.7,0.7-0.8,1.2
		c-0.1,0.6-0.2,1.2,0,1.8c0.1,0.4,0.3,0.8,0.7,0.9c0.4,0.1,0.9-0.2,1.1-0.6S66.2,112.7,66.1,113z"/>
	<path class="st2" d="M52.8,106.6c0.1,1,0.7,2,1.6,2.4c0.9,0.5,2.1,0.4,2.9-0.1c0.9-0.5,1.4-1.5,1.4-2.6"/>
	<path class="st2" d="M62.9,106.8c0,1,0.8,2,1.8,2.3c1,0.3,2.1,0,2.9-0.7s1.2-1.7,1.3-2.8"/>
	<path class="st2" d="M55.3,122.6c0.5-1.6,1.4-3.1,2.7-4.1c1.3-1,3.1-1.5,4.7-1c1.6,0.5,2.8,2.2,2.6,3.8"/>
	<path class="st5" d="M122.1,56.8c-1.1-0.3-2.2-0.3-3.2,0.2L119,57c0.9,2.8-0.1,6.1-2.4,7.9c-2.3,1.8-5.8,2-8.2,0.3
		c-2.4-1.6-3.6-5-2.7-7.7c10.9-4.1,22.7-5.2,34.1-3.6l-0.2,0.2c-0.5,3.4-1.6,6.8-4.1,9.2c-2.4,2.4-6.4,3.4-9.3,1.7
		c-2.5-1.5-3.6-4.7-4.1-7.6"/>
	<path class="st2" d="M115.1,69.6c2.9,1.4,6.2,1.6,9.3,1.1s6.2-1.6,9.2-2.7c1.1-0.4,2.1-0.8,3.1-1.5c0.9-0.7,1.6-1.7,1.7-2.8"/>
	<path class="st2" d="M122.4,79.4c2.9,0.6,5.9-0.1,8.7-0.8c2.4-0.6,5-1.3,6.7-3.1c1.4-1.5,2-3.6,2-5.6s-0.5-4.2-1.3-6.1"/>
	<path class="st2" d="M120.3,71.2c1.7,2.2,2.5,5.1,2.2,7.8"/>
	<path class="st2" d="M126.5,72.8c1.1,0.8,2.5,0.4,3.8,0c3.1-1,6.1-2.1,9.1-3.4"/>
	<path class="st1" d="M132.9,35.8c-0.9-6.7-0.8-13.6,0.4-20.3c2.8,2.8,4.9,6.3,6,10.2c3.1-4.7,6.4-9.3,10-13.6
		c0.2,4.9-0.1,9.8-0.7,14.6c2.6-0.9,5.4-1.5,8.1-1.8c-2.4,5-5.7,9.6-9.5,13.7c-0.4,0.4-0.8,0.8-1.4,1.1c-1,0.4-2,0-3-0.3
		C139.5,38.1,136.3,37,132.9,35.8z"/>
	<path class="st6" d="M113.1,56c-1.1,1.8-1.8,2.8-2.6,4.7c1.3-0.1,2.7-0.1,4,0.1c-0.4,2.1-1.3,3.2-2.7,4.9"/>
	<path class="st6" d="M130.8,54.3c-1.1,1.8-1.8,2.8-2.6,4.7c1.3-0.1,2.7-0.1,4,0.1c-0.4,2.1-1.3,3.2-2.7,4.9"/>
</g>
<g id="Calque_7">
	<polygon class="st7" points="137.2,70.7 141.9,76.8 143.6,76 145,73.2 145.3,70.2 139.7,69.4 	"/>
	<polygon class="st7" points="148.1,70.9 147.6,74.6 145.9,77.2 144.3,78.2 147.7,80.3 153.9,82.9 153.4,80.7 154.1,78.5 
		155.6,76.5 157.1,75.3 158.8,74.7 154.4,72.9 149.2,71.2 	"/>
	<polygon class="st8" points="157.7,74.2 154.5,76.3 152.9,79.1 153.1,81.3 153.7,82.6 155.4,82.7 157.7,80.4 159.5,77.2 
		159.8,74.9 158.4,74 	"/>
</g>
<g id="Calque_5">
	<path class="st9" d="M139,69.5c7.4,0.5,20.6,4.3,21,5.8c0.4,2.4-3,6.7-3.9,7.2c-0.7,0.5-1.7,0.3-2.6,0.1c-6.9-1.6-13-6.2-16.6-12.3
		C137.7,70.1,138.3,69.8,139,69.5z"/>
	<path class="st2" d="M144.3,78.2c1.6-0.1,2.2-1.2,2.9-2.7c0.7-1.4,0.8-2.6,0.9-4.2"/>
	<path class="st10" d="M142.3,76.6c1.2-0.1,1.9-1,2.4-2.3c0.5-1.3,0.6-2.3,0.7-3.7"/>
	<path class="st11" d="M159.7,75.2c-0.1-0.5-0.5-0.8-1-0.9c-0.4-0.1-0.9-0.1-1.3,0.1c-1.5,0.5-2.7,1.9-3.5,3.3
		c-0.4,0.7-0.7,1.3-0.9,2.1c-0.1,0.8,0,1.6,0.4,2.2c0.5,0.6,1.3,0.9,2,0.7"/>
	<path class="st12" d="M161.7,79.9c4.5-1.8,7.3-7.2,6.1-11.9c-1.1-4.4-5-7.9-5.4-12.4c-0.3-3.5,1.7-6.8,3.9-9.5
		c2.2-2.7,4.8-5.3,6.1-8.6c1.3-3.3,0.9-7.5-1.9-9.6c3.2,2.3,4.3,6.5,4.4,10.3c0.2,3.8-1.1,7.7-3.5,10.6c-1.3,1.5-2.9,3-3.2,4.9
		c-0.5,2.8,1.9,5.3,3.3,7.8c2,3.6,2,8.2,0,11.7C169.4,76.9,165.6,79.3,161.7,79.9z"/>
	<path class="st12" d="M163.5,72.2c0.7-1.4,0.4-3.1-0.2-4.5c-0.6-1.4-1.6-2.6-2.5-3.9c-2.5-3.4-4.6-7.2-5-11.4
		c-0.4-4.2,1.2-8.7,4.8-10.9c-2.6,4.3-3,9.7-1.2,14.3c1.1,2.7,2.9,5.1,4,7.8C164.6,66.4,165.1,69.7,163.5,72.2z"/>
	<path class="st12" d="M162.6,45.2c2.9-2.4,4.3-6.3,3.7-10c-0.4-2.4-1.7-4.5-2.1-6.9c-0.6-2.9,0.1-6,1.7-8.4
		c-3.2,2.3-5.1,6.5-4.7,10.4c0.2,2.6,1.4,5,2,7.6S163.8,43.3,162.6,45.2z"/>
	<rect x="38" y="137.9" class="st7" width="45.1" height="53.5"/>
	<rect x="105.4" y="102.8" class="st7" width="45.1" height="88.6"/>
</g>
<g id="Calque_8">
	<g>
		<path class="st8" d="M63.8,171.8c0,0.6-0.1,1.2-0.3,1.8s-0.5,1.1-0.9,1.6c-0.4,0.5-0.8,0.9-1.3,1.4c-0.5,0.4-0.9,0.8-1.4,1.1h3.7
			l-0.3,4.8l-10.9-0.4v-4.2c0.4-0.1,0.8-0.3,1.3-0.5c0.5-0.2,0.9-0.4,1.3-0.7c0.4-0.3,0.9-0.5,1.2-0.9s0.7-0.7,1-1s0.5-0.8,0.7-1.2
			s0.3-0.9,0.3-1.4c0-0.3-0.1-0.6-0.2-0.8c-0.1-0.2-0.3-0.4-0.4-0.6c-0.2-0.2-0.4-0.3-0.6-0.3c-0.2-0.1-0.5-0.1-0.8-0.1
			c-0.2,0-0.5,0-0.7,0.1c-0.2,0.1-0.5,0.1-0.7,0.2c-0.2,0.1-0.5,0.2-0.7,0.3c-0.2,0.1-0.4,0.3-0.6,0.5l-1-4.6c0.3-0.3,0.6-0.5,1-0.7
			c0.4-0.2,0.8-0.4,1.2-0.5c0.4-0.1,0.8-0.2,1.3-0.3c0.4-0.1,0.8-0.1,1.3-0.1c0.9,0,1.8,0.2,2.6,0.5c0.8,0.3,1.5,0.8,2.1,1.4
			c0.6,0.6,1,1.3,1.4,2.1C63.6,170,63.8,170.9,63.8,171.8z"/>
		<path class="st8" d="M73.1,169.3c0,0.4,0,0.8-0.1,1.2c-0.8,0.1-1.5,0.1-2.3,0.2c-0.8,0.1-1.5,0.2-2.3,0.3c0.1,0.3,0.3,0.6,0.6,0.8
			c0.3,0.2,0.6,0.3,0.9,0.3c0.2,0,0.4,0,0.6-0.1c0.2-0.1,0.4-0.2,0.6-0.3c0.2-0.1,0.4-0.2,0.6-0.3c0.2-0.1,0.4-0.2,0.5-0.3l-0.3,3.1
			c-0.2,0.1-0.4,0.3-0.6,0.3c-0.2,0.1-0.4,0.2-0.6,0.2c-0.2,0.1-0.4,0.1-0.7,0.1c-0.2,0-0.4,0-0.7,0c-0.4,0-0.9-0.1-1.2-0.2
			c-0.4-0.1-0.7-0.3-1-0.5c-0.3-0.2-0.6-0.5-0.8-0.8c-0.2-0.3-0.4-0.6-0.6-1c-0.1-0.4-0.3-0.7-0.3-1.1c-0.1-0.4-0.1-0.8-0.1-1.2
			c0-0.4,0-0.8,0.1-1.3c0.1-0.4,0.2-0.8,0.4-1.2c0.2-0.4,0.4-0.8,0.6-1.1c0.2-0.3,0.5-0.6,0.8-0.9c0.3-0.2,0.7-0.4,1.1-0.6
			c0.4-0.1,0.8-0.2,1.3-0.2c0.4,0,0.8,0.1,1.1,0.2c0.3,0.1,0.6,0.3,0.9,0.5c0.3,0.2,0.5,0.4,0.7,0.7c0.2,0.3,0.4,0.6,0.5,0.9
			c0.1,0.3,0.2,0.7,0.3,1C73,168.6,73.1,169,73.1,169.3z M70.4,169c0-0.1,0-0.3,0-0.4c0-0.1-0.1-0.3-0.1-0.4s-0.1-0.2-0.2-0.3
			c-0.1-0.1-0.2-0.1-0.4-0.1c-0.2,0-0.3,0-0.5,0.1c-0.1,0.1-0.3,0.2-0.4,0.4c-0.1,0.1-0.2,0.3-0.2,0.5c-0.1,0.2-0.1,0.3-0.1,0.5
			l2-0.2V169z"/>
	</g>
	<g>
		<path class="st8" d="M123.9,165.6l-0.7,16.6l-5.1-0.2l0.3-11l-1.9,1.3l-1.7-4l3.8-2.8L123.9,165.6z"/>
		<path class="st8" d="M133.3,168.9c0,0.4,0,0.8-0.1,1.2c-0.8,0.1-1.5,0.1-2.3,0.2c-0.8,0.1-1.5,0.2-2.3,0.3
			c0.1,0.3,0.3,0.6,0.6,0.8c0.3,0.2,0.6,0.3,0.9,0.3c0.2,0,0.4,0,0.6-0.1c0.2-0.1,0.4-0.2,0.6-0.3c0.2-0.1,0.4-0.2,0.6-0.3
			c0.2-0.1,0.4-0.2,0.5-0.3l-0.3,3.1c-0.2,0.1-0.4,0.3-0.6,0.3c-0.2,0.1-0.4,0.2-0.6,0.2s-0.4,0.1-0.7,0.1c-0.2,0-0.4,0-0.7,0
			c-0.4,0-0.9-0.1-1.2-0.2s-0.7-0.3-1-0.5c-0.3-0.2-0.6-0.5-0.8-0.8c-0.2-0.3-0.4-0.6-0.6-1c-0.1-0.4-0.3-0.7-0.3-1.1
			c-0.1-0.4-0.1-0.8-0.1-1.2c0-0.4,0-0.8,0.1-1.3c0.1-0.4,0.2-0.8,0.4-1.2c0.2-0.4,0.4-0.8,0.6-1.1c0.2-0.3,0.5-0.6,0.8-0.9
			c0.3-0.2,0.7-0.4,1.1-0.6c0.4-0.1,0.8-0.2,1.3-0.2c0.4,0,0.8,0.1,1.1,0.2c0.3,0.1,0.6,0.3,0.9,0.5c0.3,0.2,0.5,0.4,0.7,0.7
			c0.2,0.3,0.4,0.6,0.5,0.9s0.2,0.7,0.3,1C133.2,168.1,133.3,168.5,133.3,168.9z M130.6,168.5c0-0.1,0-0.3,0-0.4
			c0-0.1-0.1-0.3-0.1-0.4s-0.1-0.2-0.2-0.3c-0.1-0.1-0.2-0.1-0.4-0.1c-0.2,0-0.3,0-0.5,0.1c-0.1,0.1-0.3,0.2-0.4,0.4
			c-0.1,0.1-0.2,0.3-0.2,0.5c-0.1,0.2-0.1,0.3-0.1,0.5l2-0.2V168.5z"/>
		<path class="st8" d="M141.7,167.8c0,0.4,0,0.7-0.1,1c-0.1,0.3-0.2,0.6-0.3,0.8c-0.1,0.2-0.3,0.5-0.5,0.7c-0.2,0.2-0.5,0.4-0.8,0.6
			l1.6,2.9l-3.1,0.6l-1-2.9l-0.8,0l-0.1,2.8h-2.9c0-1,0-2.1,0.1-3.1c0-1,0-2.1,0.1-3.1c0-0.5,0-1,0-1.5c0-0.5,0-1,0.1-1.5
			c0.3-0.1,0.6-0.2,0.9-0.3c0.3-0.1,0.6-0.1,0.9-0.2c0.3,0,0.6-0.1,0.9-0.1c0.3,0,0.6,0,1,0c0.5,0,1,0.1,1.5,0.2
			c0.5,0.1,0.9,0.4,1.3,0.6c0.4,0.3,0.7,0.6,0.9,1.1C141.6,166.8,141.7,167.3,141.7,167.8z M138.6,168c0-0.2,0-0.4-0.1-0.5
			c-0.1-0.2-0.1-0.3-0.2-0.4c-0.1-0.1-0.2-0.2-0.4-0.3c-0.2-0.1-0.3-0.1-0.5-0.1c-0.1,0-0.2,0-0.3,0c-0.1,0-0.2,0-0.3,0.1l-0.1,2.5
			h0.2c0.2,0,0.4,0,0.6-0.1s0.4-0.1,0.5-0.2c0.2-0.1,0.3-0.2,0.4-0.4C138.6,168.5,138.6,168.3,138.6,168z"/>
	</g>
</g>
</svg>
