<?xml version="1.0" encoding="utf-8"?>
<!-- Generator: Adobe Illustrator 25.2.3, SVG Export Plug-In . SVG Version: 6.00 Build 0)  -->
<svg version="1.1" xmlns="http://www.w3.org/2000/svg" xmlns:xlink="http://www.w3.org/1999/xlink" x="0px" y="0px"
	 viewBox="0 0 200 200" style="enable-background:new 0 0 200 200;" xml:space="preserve">
<style type="text/css">
	.st0{fill:#FFAC2F;}
	.st1{fill:none;stroke:#003769;stroke-width:5;stroke-linecap:round;stroke-linejoin:round;stroke-miterlimit:10;}
	.st2{fill:#FFFFFF;stroke:#003769;stroke-width:5;stroke-linecap:round;stroke-linejoin:round;stroke-miterlimit:10;}
	.st3{fill:#003769;stroke:#003769;stroke-width:5;stroke-linecap:round;stroke-linejoin:round;stroke-miterlimit:10;}
	.st4{fill:#FE450E;stroke:#FE450E;stroke-width:5;stroke-linecap:round;stroke-linejoin:round;stroke-miterlimit:10;}
	.st5{fill:#FFFFFF;}
	.st6{fill:#FE450E;stroke:#003769;stroke-width:5;stroke-linecap:round;stroke-linejoin:round;stroke-miterlimit:10;}
	.st7{fill:#003769;}
	.st8{fill:#FE450E;}
	.st9{fill:#FF0000;}
	.st10{fill:#FFE500;}
	.st11{fill:#A100FF;}
	.st12{fill:#04B846;}
	.st13{fill:#4092E8;}
	.st14{fill:#B05B00;}
	.st15{fill:#89E2F5;}
	.st16{fill:#FF87A9;}
	.st17{fill:none;stroke:#003769;stroke-width:3;stroke-linecap:round;stroke-linejoin:round;stroke-miterlimit:10;}
	.st18{fill:#FFFFFF;stroke:#003769;stroke-width:3;stroke-linecap:round;stroke-linejoin:round;stroke-miterlimit:10;}
	.st19{fill:none;stroke:#FFFFFF;stroke-width:4;stroke-linecap:round;stroke-linejoin:round;stroke-miterlimit:10;}
	.st20{fill:none;stroke:#003769;stroke-width:4;stroke-linecap:round;stroke-linejoin:round;stroke-miterlimit:10;}
</style>
<g id="Calque_2">
	<g id="Calque_5">
	</g>
</g>
<g id="Calque_4">
</g>
<g id="Calque_24">
</g>
<g id="Calque_25">
</g>
<g id="Calque_26">
</g>
<g id="Calque_27">
</g>
<g id="Calque_28">
</g>
<g id="Calque_29">
	<path class="st1" d="M167.7,123.3c0.3,9.2,0.5,18.5,0.8,27.7c0.1,4.2,0.5,8.9,3.8,11.4c1.9,1.4,4.5,1.8,6.7,1c2.2-0.8,4-2.7,4.6-5"
		/>
	<path class="st1" d="M168.8,170c-0.1-6.1-0.3-12.2-0.7-18.9c1.8,2,5.1,2.2,7.5,1c2.4-1.2,4.2-3.5,5.6-5.8"/>
	<path class="st1" d="M32.1,124.5c0.8,11,1.6,22,2.4,33.1c0.3,4.3,0.5,9-2.3,12.2c-1.7,2-4.4,3-7,2.7s-5-1.9-6.2-4.2"/>
	<path class="st1" d="M21.7,154.7c0.2,3,2.3,5.7,5.1,6.8s6.2,0.5,8.5-0.6c-0.7,6.2-0.4,12.5,0.9,18.6"/>
	<path class="st1" d="M93.4,163.3c1,9.3,1.7,18.7,2.1,28.1c-8.8,2.7-18.2,3.5-27.3,2.4"/>
	<path class="st1" d="M115.1,161.7c0.6,8.6,1.2,17.3,1.9,25.9c0.1,1.4,0.2,2.9,1.1,3.9c1.1,1.3,3,1.5,4.7,1.6
		c10.6,0.8,21.1,1.4,31.7,1.8"/>
</g>
<g id="Calque_30">
</g>
<g id="Calque_31">
</g>
<g id="Calque_32">
</g>
<g id="Calque_33">
</g>
<g id="Calque_34">
</g>
<g id="Calque_35">
</g>
<g id="Calque_7">
</g>
<g id="Calque_10">
</g>
<g id="Calque_11">
</g>
<g id="Calque_12">
</g>
<g id="Calque_13">
</g>
<g id="Calque_3">
</g>
<g id="Calque_14">
</g>
<g id="Calque_15">
</g>
<g id="Calque_16">
</g>
<g id="Calque_19">
</g>
<g id="Calque_20">
</g>
<g id="Calque_17">
</g>
<g id="Calque_6">
</g>
<g id="Calque_9">
</g>
<g id="Calque_8">
</g>
<g id="Calque_18">
</g>
<g id="Calque_21">
</g>
<g id="Calque_22">
</g>
<g id="Calque_23">
</g>
</svg>
