<?xml version="1.0" encoding="utf-8"?>
<!-- Generator: Adobe Illustrator 25.2.3, SVG Export Plug-In . SVG Version: 6.00 Build 0)  -->
<svg version="1.1" xmlns="http://www.w3.org/2000/svg" xmlns:xlink="http://www.w3.org/1999/xlink" x="0px" y="0px"
	 viewBox="0 0 200 200" style="enable-background:new 0 0 200 200;" xml:space="preserve">
<style type="text/css">
	.st0{fill:#FFAC2F;}
	.st1{fill:none;stroke:#003769;stroke-width:5;stroke-linecap:round;stroke-linejoin:round;stroke-miterlimit:10;}
	.st2{fill:#FFFFFF;stroke:#003769;stroke-width:5;stroke-linecap:round;stroke-linejoin:round;stroke-miterlimit:10;}
	.st3{fill:#003769;stroke:#003769;stroke-width:5;stroke-linecap:round;stroke-linejoin:round;stroke-miterlimit:10;}
	.st4{fill:#FE450E;stroke:#FE450E;stroke-width:5;stroke-linecap:round;stroke-linejoin:round;stroke-miterlimit:10;}
	.st5{fill:#FFFFFF;}
	.st6{fill:#FE450E;stroke:#003769;stroke-width:5;stroke-linecap:round;stroke-linejoin:round;stroke-miterlimit:10;}
	.st7{fill:#003769;}
	.st8{fill:#FE450E;}
	.st9{fill:#FF0000;}
	.st10{fill:#FFE500;}
	.st11{fill:#A100FF;}
	.st12{fill:#04B846;}
	.st13{fill:#4092E8;}
	.st14{fill:#B05B00;}
	.st15{fill:#89E2F5;}
	.st16{fill:#FF87A9;}
	.st17{fill:none;stroke:#003769;stroke-width:3;stroke-linecap:round;stroke-linejoin:round;stroke-miterlimit:10;}
	.st18{fill:#FFFFFF;stroke:#003769;stroke-width:3;stroke-linecap:round;stroke-linejoin:round;stroke-miterlimit:10;}
	.st19{fill:none;stroke:#FFFFFF;stroke-width:4;stroke-linecap:round;stroke-linejoin:round;stroke-miterlimit:10;}
	.st20{fill:none;stroke:#003769;stroke-width:4;stroke-linecap:round;stroke-linejoin:round;stroke-miterlimit:10;}
</style>
<g id="Calque_2">
	<g id="Calque_5">
	</g>
</g>
<g id="Calque_4">
</g>
<g id="Calque_24">
</g>
<g id="Calque_25">
</g>
<g id="Calque_26">
</g>
<g id="Calque_27">
</g>
<g id="Calque_28">
</g>
<g id="Calque_29">
</g>
<g id="Calque_30">
</g>
<g id="Calque_31">
	<path class="st1" d="M74.3,158.5c-2.9,1.5-4.1,5.3-3.4,8.5c0.6,3.2,2.6,6,4.5,8.7c3.2,4.5,6.5,9,9.7,13.5
		c-12.4,1.7-24.8,3.3-37.2,5"/>
	<path class="st1" d="M132.7,158.9c5.3,6.3,10.7,12.6,16,18.9c11.9-11.2,24.5-21.7,37.6-31.4"/>
	<path class="st1" d="M31.2,97.8c-9-0.1-16.9,6.6-20.7,14.7s-4,17.4-3.4,26.4c0.5,7.4,1.6,15.2,6,21.1c4.4,5.9,13.2,9.3,19.6,5.5"/>
	<path class="st1" d="M14.2,160c3.2,0.1,6.5,0.2,9.6-0.9c3-1.1,5.7-3.7,6-6.9"/>
	<path class="st1" d="M14.2,159.9c0-6,1.8-12,5.2-17"/>
	<path class="st1" d="M170.7,92.6c3.4,4.8,7.6,9.1,12.3,12.7c1.3,0.9,2.9,1.8,4.3,1.1c1.2-0.7,1.4-2.3,1.4-3.7
		c0.8-20.7-1.4-41.6-6.9-60.8c3.4-6.8,5.8-14.1,6.9-21.6"/>
	<path class="st1" d="M182.2,43.3c-4.8-5.2-9.2-10.7-13-16.6"/>
	<path class="st1" d="M177.4,17.9c1.2,7.9,2.9,15.8,4.8,23.6"/>
</g>
<g id="Calque_32">
</g>
<g id="Calque_33">
</g>
<g id="Calque_34">
</g>
<g id="Calque_35">
</g>
<g id="Calque_7">
</g>
<g id="Calque_10">
</g>
<g id="Calque_11">
</g>
<g id="Calque_12">
</g>
<g id="Calque_13">
</g>
<g id="Calque_3">
</g>
<g id="Calque_14">
</g>
<g id="Calque_15">
</g>
<g id="Calque_16">
</g>
<g id="Calque_19">
</g>
<g id="Calque_20">
</g>
<g id="Calque_17">
</g>
<g id="Calque_6">
</g>
<g id="Calque_9">
</g>
<g id="Calque_8">
</g>
<g id="Calque_18">
</g>
<g id="Calque_21">
</g>
<g id="Calque_22">
</g>
<g id="Calque_23">
</g>
</svg>
