<?xml version="1.0" encoding="utf-8"?>
<!-- Generator: Adobe Illustrator 25.2.3, SVG Export Plug-In . SVG Version: 6.00 Build 0)  -->
<svg version="1.1" xmlns="http://www.w3.org/2000/svg" xmlns:xlink="http://www.w3.org/1999/xlink" x="0px" y="0px"
	 viewBox="0 0 200 200" style="enable-background:new 0 0 200 200;" xml:space="preserve">
<style type="text/css">
	.st0{display:none;}
	.st1{fill:#FFBF2F;}
	.st2{fill:none;stroke:#003769;stroke-width:5;stroke-linecap:round;stroke-linejoin:round;stroke-miterlimit:10;}
	.st3{fill:#FE450E;stroke:#FE450E;stroke-width:5;stroke-linecap:round;stroke-linejoin:round;stroke-miterlimit:10;}
	.st4{fill:#003769;stroke:#003769;stroke-width:5;stroke-linecap:round;stroke-linejoin:round;stroke-miterlimit:10;}
	.st5{fill:none;stroke:#FFFFFF;stroke-width:5;stroke-linecap:round;stroke-linejoin:round;stroke-miterlimit:10;}
	.st6{fill:#FE450E;}
	.st7{fill:#003769;}
</style>
<g id="Calque_1" class="st0">
</g>
<g id="Calque_2">
	<g id="Calque_5">
	</g>
</g>
<g id="Calque_6">
</g>
<g id="Calque_3">
</g>
<g id="Calque_4">
	<path class="st2" d="M139.9,150.2c3.1,4.5,6.2,9.1,9.3,13.6c0.5,0.7,1.1,1.6,2,1.7c0.8,0.1,1.4-0.4,2-0.9
		c7.4-5.7,14.9-11.4,22.3-17.1"/>
	<path class="st2" d="M65,154.9c-1.8,5.6-3.6,11.2-5.5,16.8c-0.2,0.5-0.3,1-0.8,1.3c-0.5,0.3-1.1,0.2-1.7,0.1
		c-9.2-2-18.3-3.9-27.5-5.9"/>
	<path class="st2" d="M166.5,71.7c13.8-10.6,20.3-29.7,15.9-46.5"/>
	<path class="st2" d="M168.5,30.1c6.5,2.6,11.8,8.4,15,15.5c5.3-4.4,8.8-10.9,9.6-17.8"/>
	<path class="st2" d="M33.8,77C20.6,65.5,14.9,46,19.8,29.1"/>
	<path class="st2" d="M33,27.4c-6.3,4.9-11.2,11.7-14.5,18.9c-4.7-5.4-7.4-12.5-7.6-19.6"/>
</g>
</svg>
