<?xml version="1.0" encoding="utf-8"?>
<!-- Generator: Adobe Illustrator 25.2.3, SVG Export Plug-In . SVG Version: 6.00 Build 0)  -->
<svg version="1.1" xmlns="http://www.w3.org/2000/svg" xmlns:xlink="http://www.w3.org/1999/xlink" x="0px" y="0px"
	 viewBox="0 0 200 200" style="enable-background:new 0 0 200 200;" xml:space="preserve">
<style type="text/css">
	.st0{fill:#FFAC2F;}
	.st1{fill:none;stroke:#003769;stroke-width:5;stroke-linecap:round;stroke-linejoin:round;stroke-miterlimit:10;}
	.st2{fill:#FFFFFF;stroke:#003769;stroke-width:5;stroke-linecap:round;stroke-linejoin:round;stroke-miterlimit:10;}
	.st3{fill:#003769;stroke:#003769;stroke-width:5;stroke-linecap:round;stroke-linejoin:round;stroke-miterlimit:10;}
	.st4{fill:#FE450E;stroke:#FE450E;stroke-width:5;stroke-linecap:round;stroke-linejoin:round;stroke-miterlimit:10;}
	.st5{fill:#FFFFFF;}
	.st6{fill:#FE450E;stroke:#003769;stroke-width:5;stroke-linecap:round;stroke-linejoin:round;stroke-miterlimit:10;}
	.st7{fill:#003769;}
	.st8{fill:#FE450E;}
	.st9{fill:#FF0000;}
	.st10{fill:#FFE500;}
	.st11{fill:#A100FF;}
	.st12{fill:#04B846;}
	.st13{fill:#4092E8;}
	.st14{fill:#B05B00;}
	.st15{fill:#89E2F5;}
	.st16{fill:#FF87A9;}
	.st17{fill:none;stroke:#003769;stroke-width:3;stroke-linecap:round;stroke-linejoin:round;stroke-miterlimit:10;}
	.st18{fill:#FFFFFF;stroke:#003769;stroke-width:3;stroke-linecap:round;stroke-linejoin:round;stroke-miterlimit:10;}
	.st19{fill:none;stroke:#FFFFFF;stroke-width:4;stroke-linecap:round;stroke-linejoin:round;stroke-miterlimit:10;}
	.st20{fill:none;stroke:#003769;stroke-width:4;stroke-linecap:round;stroke-linejoin:round;stroke-miterlimit:10;}
</style>
<g id="Calque_2">
	<g id="Calque_5">
	</g>
</g>
<g id="Calque_4">
</g>
<g id="Calque_24">
</g>
<g id="Calque_25">
</g>
<g id="Calque_26">
</g>
<g id="Calque_27">
</g>
<g id="Calque_28">
</g>
<g id="Calque_29">
</g>
<g id="Calque_30">
</g>
<g id="Calque_31">
</g>
<g id="Calque_32">
</g>
<g id="Calque_33">
</g>
<g id="Calque_34">
	<path class="st1" d="M31.9,96.7c-2.3-4.2-7.9-6-12.5-4.5s-8.1,5.4-9.8,9.9c-1.7,4.5-1.9,9.4-1.6,14.2c1.1,16.6,7.9,32.3,14.6,47.6
		c-4.8-1.4-10.4,0.7-13,4.9c-2.6,4.2-2,10.2,1.5,13.8"/>
	<path class="st1" d="M28.9,179.5c-3.4,0.1-6.7-2.1-7.7-5.3c-1.1-3.2,0.3-7,3.1-9.8c-0.5,0.4-0.4,1.2-0.1,1.8
		c0.3,0.5,0.9,0.9,1.5,1.2c2.9,1.7,5.9,3.5,9.3,4.1"/>
	<path class="st1" d="M168.9,96.8c3.4-3.7,9.6-4.5,13.9-1.8c4.5,2.9,6.3,8.6,7.1,13.9c3.2,21.6-5.3,44.5-21.8,58.8
		c6.7,0.4,12.5,6.9,12.1,13.6"/>
	<path class="st1" d="M167.2,169c2.2,2.1,3.4,5.3,3,8.3c-0.4,3-2.3,5.8-4.9,7.3"/>
	<path class="st1" d="M167,167.6c-2.9,4-7.9,6.4-12.9,6.2c0,0.1-0.1,0.3-0.1,0.4"/>
	<path class="st1" d="M77.2,158c-9.6,4.1-17.8,11.3-23.1,20.2c-0.8,1.3-1.5,2.8-1.4,4.3c0.2,3.3,4.1,5.1,7.4,5.6s7.1,0.9,9,3.7
		c-10.7,4.9-23.1,6-34.5,3.3"/>
	<path class="st1" d="M122.3,161.8c0.9,2.6,3.3,4.3,5.2,6.2c2,1.9,3.7,4.7,2.7,7.3c-0.5,1.4-1.7,2.4-2.8,3.3
		c-5.9,5-11.8,10.1-17.7,15.1c13.2,1.7,26.6,2.5,39.9,2.4"/>
</g>
<g id="Calque_35">
</g>
<g id="Calque_7">
</g>
<g id="Calque_10">
</g>
<g id="Calque_11">
</g>
<g id="Calque_12">
</g>
<g id="Calque_13">
</g>
<g id="Calque_3">
</g>
<g id="Calque_14">
</g>
<g id="Calque_15">
</g>
<g id="Calque_16">
</g>
<g id="Calque_19">
</g>
<g id="Calque_20">
</g>
<g id="Calque_17">
</g>
<g id="Calque_6">
</g>
<g id="Calque_9">
</g>
<g id="Calque_8">
</g>
<g id="Calque_18">
</g>
<g id="Calque_21">
</g>
<g id="Calque_22">
</g>
<g id="Calque_23">
</g>
</svg>
