<?xml version="1.0" encoding="utf-8"?>
<!-- Generator: Adobe Illustrator 25.2.3, SVG Export Plug-In . SVG Version: 6.00 Build 0)  -->
<svg version="1.1" xmlns="http://www.w3.org/2000/svg" xmlns:xlink="http://www.w3.org/1999/xlink" x="0px" y="0px"
	 viewBox="0 0 200 200" style="enable-background:new 0 0 200 200;" xml:space="preserve">
<style type="text/css">
	.st0{fill:#FFAC2F;}
	.st1{fill:none;stroke:#003769;stroke-width:5;stroke-linecap:round;stroke-linejoin:round;stroke-miterlimit:10;}
	.st2{fill:#FFFFFF;stroke:#003769;stroke-width:5;stroke-linecap:round;stroke-linejoin:round;stroke-miterlimit:10;}
	.st3{fill:#003769;stroke:#003769;stroke-width:5;stroke-linecap:round;stroke-linejoin:round;stroke-miterlimit:10;}
	.st4{fill:#FE450E;stroke:#FE450E;stroke-width:5;stroke-linecap:round;stroke-linejoin:round;stroke-miterlimit:10;}
	.st5{fill:#FFFFFF;}
	.st6{fill:#FE450E;stroke:#003769;stroke-width:5;stroke-linecap:round;stroke-linejoin:round;stroke-miterlimit:10;}
	.st7{fill:#003769;}
	.st8{fill:#FE450E;}
	.st9{fill:#FF0000;}
	.st10{fill:#FFE500;}
	.st11{fill:#A100FF;}
	.st12{fill:#04B846;}
	.st13{fill:#4092E8;}
	.st14{fill:#B05B00;}
	.st15{fill:#89E2F5;}
	.st16{fill:#FF87A9;}
	.st17{fill:none;stroke:#003769;stroke-width:3;stroke-linecap:round;stroke-linejoin:round;stroke-miterlimit:10;}
	.st18{fill:#FFFFFF;stroke:#003769;stroke-width:3;stroke-linecap:round;stroke-linejoin:round;stroke-miterlimit:10;}
	.st19{fill:none;stroke:#FFFFFF;stroke-width:4;stroke-linecap:round;stroke-linejoin:round;stroke-miterlimit:10;}
	.st20{fill:none;stroke:#003769;stroke-width:4;stroke-linecap:round;stroke-linejoin:round;stroke-miterlimit:10;}
</style>
<g id="Calque_2">
	<g id="Calque_5">
	</g>
</g>
<g id="Calque_4">
</g>
<g id="Calque_24">
</g>
<g id="Calque_25">
</g>
<g id="Calque_26">
</g>
<g id="Calque_27">
</g>
<g id="Calque_28">
</g>
<g id="Calque_29">
</g>
<g id="Calque_30">
</g>
<g id="Calque_31">
</g>
<g id="Calque_32">
	<path class="st1" d="M33.6,97c-10.6,4.1-19.3,13.4-21.8,24.6s1.5,23.7,10.5,30.6c9,7,22.7,7.5,31.9,0.8"/>
	<path class="st1" d="M170.3,94.3c9.1,5.7,16.2,14.9,18.3,25.4s-1.7,22.3-10.3,28.7c-8.6,6.4-21.9,6.2-28.9,1.9
		c-3.4,6.4-2.4,14.8,2.3,20.2c0.1-0.5,0.2-1,0.3-1.6"/>
	<path class="st1" d="M150.7,151.3c-0.3,3.7,1,7.6,3.6,10.3s6.4,4.2,10.1,4.1"/>
	<path class="st1" d="M44.7,176.3c0.1,0.5,0.1,0.9,0.2,1.4c7.1-4.4,10.6-13.9,7-21.4c-3.3,6.5-9.6,11.3-16.7,12.8"/>
	<path class="st1" d="M53.6,155.5c2.2,0.6,4,2.1,5.4,3.9c3.3,4.2,4.3,10.1,2.7,15.1"/>
	<path class="st1" d="M146,153.2c-3.6,1.9-6.4,5.3-7.6,9.1s-1.1,8.2,0.6,11.9"/>
	<path class="st1" d="M91,166.5c0.1,5.3,0.3,10.7,0.4,16c0,1,0,2.1-0.7,2.8c-0.5,0.5-1.3,0.7-2,0.8c-8.7,1.5-17.4,3-26,4.4"/>
	<path class="st1" d="M112,170.4c0,7.3,0.9,14.7,2.7,21.8c10-1.5,19.9-3.9,29.5-7.4"/>
</g>
<g id="Calque_33">
</g>
<g id="Calque_34">
</g>
<g id="Calque_35">
</g>
<g id="Calque_7">
</g>
<g id="Calque_10">
</g>
<g id="Calque_11">
</g>
<g id="Calque_12">
</g>
<g id="Calque_13">
</g>
<g id="Calque_3">
</g>
<g id="Calque_14">
</g>
<g id="Calque_15">
</g>
<g id="Calque_16">
</g>
<g id="Calque_19">
</g>
<g id="Calque_20">
</g>
<g id="Calque_17">
</g>
<g id="Calque_6">
</g>
<g id="Calque_9">
</g>
<g id="Calque_8">
</g>
<g id="Calque_18">
</g>
<g id="Calque_21">
</g>
<g id="Calque_22">
</g>
<g id="Calque_23">
</g>
</svg>
