<?xml version="1.0" encoding="utf-8"?>
<!-- Generator: Adobe Illustrator 25.2.3, SVG Export Plug-In . SVG Version: 6.00 Build 0)  -->
<svg version="1.1" xmlns="http://www.w3.org/2000/svg" xmlns:xlink="http://www.w3.org/1999/xlink" x="0px" y="0px"
	 viewBox="0 0 200 200" style="enable-background:new 0 0 200 200;" xml:space="preserve">
<style type="text/css">
	.st0{fill:#FFAC2F;}
	.st1{fill:none;stroke:#003769;stroke-width:5;stroke-linecap:round;stroke-linejoin:round;stroke-miterlimit:10;}
	.st2{fill:#FFFFFF;stroke:#003769;stroke-width:5;stroke-linecap:round;stroke-linejoin:round;stroke-miterlimit:10;}
	.st3{fill:#003769;stroke:#003769;stroke-width:5;stroke-linecap:round;stroke-linejoin:round;stroke-miterlimit:10;}
	.st4{fill:#FE450E;stroke:#FE450E;stroke-width:5;stroke-linecap:round;stroke-linejoin:round;stroke-miterlimit:10;}
	.st5{fill:#FFFFFF;}
	.st6{fill:#FE450E;stroke:#003769;stroke-width:5;stroke-linecap:round;stroke-linejoin:round;stroke-miterlimit:10;}
	.st7{fill:#003769;}
	.st8{fill:#FE450E;}
	.st9{fill:#FF0000;}
	.st10{fill:#FFE500;}
	.st11{fill:#A100FF;}
	.st12{fill:#04B846;}
	.st13{fill:#4092E8;}
	.st14{fill:#B05B00;}
	.st15{fill:#89E2F5;}
	.st16{fill:#FF87A9;}
	.st17{fill:none;stroke:#003769;stroke-width:3;stroke-linecap:round;stroke-linejoin:round;stroke-miterlimit:10;}
	.st18{fill:#FFFFFF;stroke:#003769;stroke-width:3;stroke-linecap:round;stroke-linejoin:round;stroke-miterlimit:10;}
	.st19{fill:none;stroke:#FFFFFF;stroke-width:4;stroke-linecap:round;stroke-linejoin:round;stroke-miterlimit:10;}
	.st20{fill:none;stroke:#003769;stroke-width:4;stroke-linecap:round;stroke-linejoin:round;stroke-miterlimit:10;}
</style>
<g id="Calque_2">
	<g id="Calque_5">
	</g>
</g>
<g id="Calque_4">
</g>
<g id="Calque_24">
</g>
<g id="Calque_25">
</g>
<g id="Calque_26">
	<path class="st1" d="M35.4,70.7c-5.9,0.8-12.2-2-15.6-7c-3.4-4.9-3.8-11.8-1-17.1c1.3-2.4,3.3-4.8,3-7.6c-0.3-2.6-2.5-4.6-4.8-5.9
		c-2.3-1.3-4.9-2.3-6.6-4.2c-2.7-3.1-2.6-8.3,0.3-11.2s8.1-3,11.2-0.2c2,1.8,3.9,4.8,6.4,4c2.9-0.9,2.1-5.1,2.8-8
		c0.7-2.8,3.4-4.8,6.3-4.8c2.8,0.1,5.5,2.3,6,5.1"/>
	<path class="st1" d="M170.2,66c4.6-2.2,9.2-4.6,12.5-8.6s4.6-9.8,1.9-14.2c-1.8-2.9-5.2-4.9-6-8.2c-0.9-3.7,2-7.2,4.8-9.9
		s5.8-5.9,5.4-9.7c-0.4-3.6-4.1-6.3-7.8-6.2c-3.7,0.2-6.9,2.7-8.7,5.9c-1.9,3.3-2.7,7.5-5.9,9.3c-3.7,2.1-8.7-0.5-10.3-4.3
		c-1.7-3.9,2.6-8.2,1.2-12.2c-2-5.6-12.4-0.7-15.9,4.1"/>
	<path class="st1" d="M67.5,156c-2.1,2.8,0,6.7,2.4,9.3c2.3,2.6,5.2,5.6,4.4,8.9c-0.8,3.8-5.5,5.2-9.5,5.5c-4.4,0.3-9.3,0.1-12.5-3
		c-3.1-3-3.6-7.8-5.6-11.7c-2.7-5.2-8.4-8.7-14.3-8.6c-5.3,0.1-11,3.9-11.2,9.2c-0.2,5.7,5.7,9.7,11.1,11.6c3.1,1.1,6.9,2.6,7.4,5.9
		c0.4,3.2-2.8,5.7-5.9,6.5c-4.5,1.3-9.5,0.6-13.5-1.8"/>
	<path class="st1" d="M130.4,157c2,0.9,4.1,1.9,5.7,3.5s2.7,3.8,2.2,6c-0.8,3.7-5.4,5.5-6.9,9c-1.4,3.4,1,7.7,4.6,8.7
		s7.5-0.9,9.5-4.1c2.7-4.4,1.6-10.2,3.5-15c1.7-4.2,5.8-7.3,10.3-7.4c4.5-0.1,9,3.1,10,7.4c1.2,4.9-1.7,9.8-5.3,13.3
		c-1.6,1.6-3.6,3.3-3.6,5.6c-0.1,3.5,4.1,5.5,7.6,5.3c8-0.3,15.2-7.7,15.1-15.8"/>
</g>
<g id="Calque_27">
</g>
<g id="Calque_28">
</g>
<g id="Calque_29">
</g>
<g id="Calque_30">
</g>
<g id="Calque_31">
</g>
<g id="Calque_32">
</g>
<g id="Calque_33">
</g>
<g id="Calque_34">
</g>
<g id="Calque_35">
</g>
<g id="Calque_7">
</g>
<g id="Calque_10">
</g>
<g id="Calque_11">
</g>
<g id="Calque_12">
</g>
<g id="Calque_13">
</g>
<g id="Calque_3">
</g>
<g id="Calque_14">
</g>
<g id="Calque_15">
</g>
<g id="Calque_16">
</g>
<g id="Calque_19">
</g>
<g id="Calque_20">
</g>
<g id="Calque_17">
</g>
<g id="Calque_6">
</g>
<g id="Calque_9">
</g>
<g id="Calque_8">
</g>
<g id="Calque_18">
</g>
<g id="Calque_21">
</g>
<g id="Calque_22">
</g>
<g id="Calque_23">
</g>
</svg>
