<?xml version="1.0" encoding="utf-8"?>
<!-- Generator: Adobe Illustrator 25.2.3, SVG Export Plug-In . SVG Version: 6.00 Build 0)  -->
<svg version="1.1" xmlns="http://www.w3.org/2000/svg" xmlns:xlink="http://www.w3.org/1999/xlink" x="0px" y="0px"
	 viewBox="0 0 200 200" style="enable-background:new 0 0 200 200;" xml:space="preserve">
<style type="text/css">
	.st0{display:none;}
	.st1{fill:#FFBF2F;}
	.st2{fill:none;stroke:#003769;stroke-width:5;stroke-linecap:round;stroke-linejoin:round;stroke-miterlimit:10;}
	.st3{fill:#FE450E;stroke:#FE450E;stroke-width:5;stroke-linecap:round;stroke-linejoin:round;stroke-miterlimit:10;}
	.st4{fill:#003769;stroke:#003769;stroke-width:5;stroke-linecap:round;stroke-linejoin:round;stroke-miterlimit:10;}
	.st5{fill:none;stroke:#FFFFFF;stroke-width:5;stroke-linecap:round;stroke-linejoin:round;stroke-miterlimit:10;}
	.st6{fill:#FE450E;}
	.st7{fill:#003769;}
</style>
<g id="Calque_1" class="st0">
</g>
<g id="Calque_2">
	<g id="Calque_5">
	</g>
</g>
<g id="Calque_6">
</g>
<g id="Calque_3">
</g>
<g id="Calque_4">
	<path class="st2" d="M168.3,104.8c7.2,0.6,13.9,5.5,16.6,12.3c2.7,6.7,1.1,14.9-3.7,20.3s-12.9,7.6-19.9,5.5"/>
	<path class="st2" d="M165.1,131.4c3,1.1,5.8,2.6,8.4,4.4c1.7,1.2,3.5,2.7,3.7,4.8c0.2,1.5-0.4,3.1-1.1,4.4
		c-2.2,4.4-5.2,8.4-8.8,11.8"/>
	<path class="st2" d="M120.7,160.5c3.3-0.2,6.4,2.5,7.2,5.7c0.9,3.2-0.2,6.7-2.1,9.4c-1.9,2.7-4.7,4.7-7.5,6.5
		c-2.8,1.8-5.8,3.3-8.4,5.4c7,2.3,14.3,3.5,21.6,3.5"/>
	<path class="st2" d="M63.4,155c-4-0.3-7.6,3.3-8.3,7.3c-0.8,4,0.7,8,2.6,11.6c2,3.5,4.5,6.7,6.2,10.4c-7.4-1.1-15-0.6-22.2,1.3"/>
	<path class="st2" d="M24,86.5c-3.6,1.1-7.4-0.8-10.2-3.3c-6.4-5.8-9.1-15.5-6.5-23.8s10.3-14.7,18.9-15.8"/>
	<path class="st2" d="M16.5,33.7c-3.4,5.9-4.8,13-3.9,19.8c4.8,2.3,10,3.5,15.3,3.5"/>
</g>
</svg>
