<?xml version="1.0" encoding="utf-8"?>
<!-- Generator: Adobe Illustrator 25.2.3, SVG Export Plug-In . SVG Version: 6.00 Build 0)  -->
<svg version="1.1" xmlns="http://www.w3.org/2000/svg" xmlns:xlink="http://www.w3.org/1999/xlink" x="0px" y="0px"
	 viewBox="0 0 200 200" style="enable-background:new 0 0 200 200;" xml:space="preserve">
<style type="text/css">
	.st0{display:none;}
	.st1{fill:#FFBF2F;}
	.st2{fill:none;stroke:#003769;stroke-width:5;stroke-linecap:round;stroke-linejoin:round;stroke-miterlimit:10;}
	.st3{fill:#FE450E;stroke:#FE450E;stroke-width:5;stroke-linecap:round;stroke-linejoin:round;stroke-miterlimit:10;}
	.st4{fill:#003769;stroke:#003769;stroke-width:5;stroke-linecap:round;stroke-linejoin:round;stroke-miterlimit:10;}
	.st5{fill:none;stroke:#FFFFFF;stroke-width:5;stroke-linecap:round;stroke-linejoin:round;stroke-miterlimit:10;}
	.st6{fill:#FE450E;}
	.st7{fill:#003769;}
</style>
<g id="Calque_1" class="st0">
</g>
<g id="Calque_2">
	<g id="Calque_5">
	</g>
</g>
<g id="Calque_6">
</g>
<g id="Calque_3">
</g>
<g id="Calque_4">
	<path class="st2" d="M34,118.7c-0.5,16.3-3.3,32.5-8.5,48"/>
	<path class="st2" d="M30.4,148.5c-2.7,5.6-7.5,10-13.3,12.2"/>
	<path class="st2" d="M30.7,146.4c-4.4,2.1-9.8,2.1-14.2,0"/>
	<path class="st2" d="M168.4,121.4c-1.4,7.6-0.4,15.3-0.8,23s-2.4,15.8-8.3,20.8"/>
	<path class="st2" d="M177.4,164.5c-5.5-2.3-9.7-7.6-10.4-14.1c3.8,3.1,9.8,3.4,13.8,0.6"/>
	<path class="st2" d="M94,163.8c0.3,8.4-0.5,16.9-2.4,25.1c-8.2,0-16.4-1.6-24-4.6"/>
	<path class="st2" d="M122.8,162.7c-0.1,8.7-0.1,17.3-0.2,26c8.9,1.3,18,1.3,26.9-0.2"/>
</g>
</svg>
