<?xml version="1.0" encoding="utf-8"?>
<!-- Generator: Adobe Illustrator 25.2.3, SVG Export Plug-In . SVG Version: 6.00 Build 0)  -->
<svg version="1.1" xmlns="http://www.w3.org/2000/svg" xmlns:xlink="http://www.w3.org/1999/xlink" x="0px" y="0px"
	 viewBox="0 0 200 200" style="enable-background:new 0 0 200 200;" xml:space="preserve">
<style type="text/css">
	.st0{fill:#FFAC2F;}
	.st1{fill:none;stroke:#003769;stroke-width:5;stroke-linecap:round;stroke-linejoin:round;stroke-miterlimit:10;}
	.st2{fill:#FFFFFF;stroke:#003769;stroke-width:5;stroke-linecap:round;stroke-linejoin:round;stroke-miterlimit:10;}
	.st3{fill:#003769;stroke:#003769;stroke-width:5;stroke-linecap:round;stroke-linejoin:round;stroke-miterlimit:10;}
	.st4{fill:#FE450E;stroke:#FE450E;stroke-width:5;stroke-linecap:round;stroke-linejoin:round;stroke-miterlimit:10;}
	.st5{fill:#FFFFFF;}
	.st6{fill:#FE450E;stroke:#003769;stroke-width:5;stroke-linecap:round;stroke-linejoin:round;stroke-miterlimit:10;}
	.st7{fill:#003769;}
	.st8{fill:#FE450E;}
	.st9{fill:#FF0000;}
	.st10{fill:#FFE500;}
	.st11{fill:#A100FF;}
	.st12{fill:#04B846;}
	.st13{fill:#4092E8;}
	.st14{fill:#B05B00;}
	.st15{fill:#89E2F5;}
	.st16{fill:#FF87A9;}
	.st17{fill:none;stroke:#003769;stroke-width:3;stroke-linecap:round;stroke-linejoin:round;stroke-miterlimit:10;}
	.st18{fill:#FFFFFF;stroke:#003769;stroke-width:3;stroke-linecap:round;stroke-linejoin:round;stroke-miterlimit:10;}
	.st19{fill:none;stroke:#FFFFFF;stroke-width:4;stroke-linecap:round;stroke-linejoin:round;stroke-miterlimit:10;}
	.st20{fill:none;stroke:#003769;stroke-width:4;stroke-linecap:round;stroke-linejoin:round;stroke-miterlimit:10;}
</style>
<g id="Calque_2">
	<g id="Calque_5">
	</g>
</g>
<g id="Calque_4">
</g>
<g id="Calque_24">
</g>
<g id="Calque_25">
</g>
<g id="Calque_26">
</g>
<g id="Calque_27">
</g>
<g id="Calque_28">
</g>
<g id="Calque_29">
</g>
<g id="Calque_30">
</g>
<g id="Calque_31">
</g>
<g id="Calque_32">
</g>
<g id="Calque_33">
</g>
<g id="Calque_34">
</g>
<g id="Calque_35">
</g>
<g id="Calque_7">
</g>
<g id="Calque_10">
</g>
<g id="Calque_11">
</g>
<g id="Calque_12">
</g>
<g id="Calque_13">
</g>
<g id="Calque_3">
</g>
<g id="Calque_14">
</g>
<g id="Calque_15">
</g>
<g id="Calque_16">
</g>
<g id="Calque_19">
</g>
<g id="Calque_20">
</g>
<g id="Calque_17">
</g>
<g id="Calque_6">
</g>
<g id="Calque_9">
</g>
<g id="Calque_8">
</g>
<g id="Calque_18">
	<path class="st1" d="M64.2,174.7c-0.4,3.1-0.3,6.2,0.3,9.3"/>
	<path class="st1" d="M73.6,176.8c-0.8,3.2-0.7,6.6,0.4,9.7"/>
	<path class="st1" d="M83.6,176.6c-0.2,3.2,0.2,6.5,1.4,9.5"/>
	<path class="st1" d="M94.2,174.3c0.2,3.2,1,6.4,2.4,9.3"/>
	<path class="st6" d="M102.6,101.7c6.7-2.6,14.1-1.8,21.2-1.8c16.7-0.1,33.3-5.4,47-14.9c1.2-0.9,2.5-1.8,3.9-2.2s3.2-0.4,4.3,0.6
		c0.8,0.7,1.3,1.8,1.6,2.8c3.8,10.6,4.3,22.3,1.4,33.2c-1.3,4.9-3.6,10-8.1,12.5c-2.5,1.4-5.5,1.8-8.3,2.2
		c-7.3,0.9-14.6,1.9-21.9,2.8c-12.8,1.6-26.1,3.2-38.4-0.7C105.6,124.3,104.8,112.7,102.6,101.7z"/>
	<path class="st6" d="M78.6,103.8c-17-5.2-34.1-10.4-51.1-15.7c-2.2,6.8-4.4,13.6-5.2,20.7s0.1,14.6,3.6,20.7
		c7.1,1.8,13.7,5.5,20.7,7.8c7,2.3,15.2,2.9,21.8,0.2C70.6,125.9,72.7,114,78.6,103.8z"/>
	<path class="st6" d="M101.4,99.3c-7.1,1.3-15.3-1.7-21.3,2.4c-4.9,3.4-6,10.1-6.8,16.1c-2.3,16.5-6.3,32.7-11.8,48.4
		c-0.6,1.8-1.3,3.9-0.5,5.7c1,2.1,3.6,2.7,5.9,3.1c9,1.3,18.2,0.9,27-1.2c2.2-0.5,4.5-1.2,6-2.9c1.5-1.7,1.9-4.2,2.2-6.5
		C104.9,142.7,107.7,120.3,101.4,99.3z"/>
	<path class="st9" d="M29.1,90.7c14.9,5,28.7,9.5,44.9,14c-0.7,2.3-1.5,4.6-2.2,6.9c-15.3-2.2-30.7-6.7-44.9-12.8
		C27.4,96.3,28.6,93.6,29.1,90.7z"/>
	<path class="st9" d="M86.1,102.1c-2.9,4.8-3.6,10.6-4.3,16.2c-2,16.8-4.7,33.8-11.9,49.2c-0.7,1.5-1.9,5.1-1.9,5.1
		s-4.6-0.6-5.3-2.1c2.2-14.6,9.7-28.1,11.6-42.7c0.9-7.1,0.6-14.6,4.1-20.8C80.1,104.3,83,101.7,86.1,102.1z"/>
	<path class="st0" d="M26.9,98.7c14.3,6,29.6,10.8,45.1,12.4c-0.5,2.3-0.9,4-1.7,6.5c-7.8,0.5-15.7-0.9-23.2-3.2
		c-7.5-2.3-14.7-5.6-21.8-8.8C25.8,102.8,26.3,100.5,26.9,98.7z"/>
	<path class="st0" d="M86.1,102.1c-5,9.9-6,20.7-7.5,31.7c-1.9,13.4-6.3,22-10.6,38.8c3.1,0.9,7.3,0.6,7.3,0.6s4.4-11.9,8.2-38.8
		c1.6-11.2,1.9-22.3,6.6-32.6C88.9,101.8,87.6,101.9,86.1,102.1z"/>
	<path class="st10" d="M25.2,104.8c14.7,7.1,27,10.1,45.1,12.5c-0.2,1.6-1.7,5.8-1.7,5.8s-8.5,0-20.1-2.5c-13.2-2.9-24-9.4-24-9.4
		S24.6,106.6,25.2,104.8z"/>
	<path class="st10" d="M90.2,101.8c-5.8,12.1-5.6,24.6-7.3,37.3c-1.6,11.9-4.3,21.7-7.5,34.1c3.9,0,6.1,0,9.2-0.3
		c1-11.3,2.1-22.6,3.1-33.8c1.2-12.5,2.3-25,5.7-37.1C92.3,101.9,91,102.2,90.2,101.8z"/>
	<path class="st11" d="M25.6,122.3c5.9-0.3,11.3,3.3,16.7,5.6c7.8,3.4,16.5,4.3,24.8,2.7c-0.2,1.8-0.8,5.3-0.8,5.3s-3.1,0.9-4.7,1.2
		c-4.8,0.9-9.8-0.2-14.5-1.8c-4.6-1.6-9.1-3.8-13.7-5.4c-1.9-0.7-6-2.5-6-2.5S26.3,124.8,25.6,122.3z"/>
	<path class="st11" d="M99.7,102c-4.1,21.3-4.4,45.6-2.6,68.2c2-1.4,2.2-4,2.6-6.8c1.9-12.7,3.4-20.4,3.4-33.9
		C103.1,121.8,102.4,108.9,99.7,102z"/>
	<path class="st12" d="M24.9,117.8c6,0.7,11.5,3.7,17.1,5.9c8.3,3.1,17.3,4.4,26.1,3.6c0.3-1.5,0.5-3,0.8-4.6
		c-7.8,0.3-15.5-1.2-22.9-3.6s-14.5-5.6-21.5-8.9C24.2,112.8,24.3,115.5,24.9,117.8z"/>
	<path class="st13" d="M24.6,117.3c8.4,0.6,15.2,5.1,23.3,7.6c6.5,2,13.4,2.7,20.1,2c-0.2,2-0.8,4.3-0.8,4.3s-4.4,1.7-14.7,0.4
		c-4.6-0.6-9.6-3.2-13.9-5.2s-8-2.7-12.7-2.5C25.3,121.9,25.1,120,24.6,117.3z"/>
	<path class="st9" d="M175.6,84.6c-27.1,23-65.5,15.6-70.2,18.9c0.2,3.2-0.1,2.7,0.7,5.1c24.3,1.2,52-8.2,75-11.3
		C180.6,94.8,179.4,83.4,175.6,84.6z"/>
	<path class="st0" d="M181.1,97.3c-24.4,1.8-50.2,13.1-74.7,11.4c0.4,2.4-0.5,2.6,0.3,5.1c12.2,2.2,28.7-1.7,40.8-2.4
		c12.1-0.7,22.8-5.3,34.5-7C181.4,101.5,181.7,99.2,181.1,97.3z"/>
	<path class="st10" d="M182,104.1c-24.1,3.8-46.8,11.2-75.6,9.7c0.1,1.6,0.6,4.8,0.6,4.8s21.8,2.8,40-0.4
		c21.3-3.6,34.1-7.8,34.1-7.8S182.7,106.1,182,104.1z"/>
	<path class="st11" d="M176.8,126.6c-9.2-1.5-16.7,1.5-25.4,2.7c-12.6,1.7-31.8-0.2-43.7-0.7c0,1.8,0,5.7,0,5.7s6.3,1.5,8.9,1.7
		c9.5,1,17.8-0.3,25.3-0.9c7.5-0.6,12.8-1.3,20.3-1.9c3.1-0.2,11-2.5,11-2.5S175.4,128.9,176.8,126.6z"/>
	<path class="st12" d="M179.9,118.3c-9.5-0.7-16.5,4.4-25.6,5.3c-13.4,1.3-32.7,2.7-46.5,0c-0.2-1.6-0.6-3.4-0.8-4.9
		c7.3,0,25.4,0.4,37.3-0.3c11.9-0.8,25.3-6.3,36.8-8C181.1,113,181,116.2,179.9,118.3z"/>
	<path class="st13" d="M179.9,118.5c-5.4-2.3-22.9,4.9-35.8,5.7c-10.4,0.6-25.9,1.6-36.4-0.6c0,2,0.2,5,0.2,5s9,1.2,25.2,2.1
		c7.4,0.4,15.8-0.6,22.7-1.7c6.9-1.1,13.8-3.7,21.1-2.4C178.9,124.5,178.8,121.1,179.9,118.5z"/>
	<path class="st12" d="M93.4,102c-4.5,15.7-7.8,47.1-9,71.1c2.2,0.1,7.3-1,7.3-1s0.2-4.2,0.2-6.8c0.1-21.3,1.6-42.1,4.9-63.2
		C95.3,102,95,102,93.4,102z"/>
	<path class="st13" d="M99.7,102.1c-2,9.9-2.6,20.5-2.9,30.5c-0.3,12.5-0.6,25.1,0.3,37.6c-1.9,0.8-3.6,1.5-5.6,1.8
		c-0.3-23.4,1.7-46.7,5.1-69.8C97.8,102.2,98.5,102.2,99.7,102.1z"/>
	<path class="st7" d="M29.7,89.3c7.5,9.7,13.5,21.2,20.9,30.8c-8.3,4-15.7,5.4-25,7.8c-4.4-6-5.2-13.1-3.9-19.8S26.3,95.1,29.7,89.3
		z"/>
	<path class="st14" d="M28.4,91.5C32,101,37.6,110,44.9,118c-6.8,2.3-10.5,3.6-18.7,6C20.9,113,22.2,101.7,28.4,91.5z"/>
	<path class="st14" d="M102,95.9c-0.3,0.1-0.7-0.1-0.8-0.4"/>
	<path class="st15" d="M26.7,94.8c2.2,7.4,7.2,15,13.2,21c-5.2,2.1-8.7,2.8-15,4.3C21.4,111.9,22.2,102.6,26.7,94.8z"/>
	<path class="st16" d="M25.2,98.1c2.1,5.5,5.1,10.9,8.7,16c-3.5,0.5-6.9,1-10.4,1.4C22.1,109.8,22.6,103.7,25.2,98.1z"/>
	<path class="st5" d="M23.6,102.7c1.3,3.2,3.2,6.3,5.7,9.1c-2.1,0.2-4.3,0.4-6.3,0.8C22.5,109.2,22.9,105.7,23.6,102.7z"/>
</g>
<g id="Calque_21">
</g>
<g id="Calque_22">
</g>
<g id="Calque_23">
</g>
</svg>
