<?xml version="1.0" encoding="utf-8"?>
<!-- Generator: Adobe Illustrator 25.2.3, SVG Export Plug-In . SVG Version: 6.00 Build 0)  -->
<svg version="1.1" xmlns="http://www.w3.org/2000/svg" xmlns:xlink="http://www.w3.org/1999/xlink" x="0px" y="0px"
	 viewBox="0 0 200 200" style="enable-background:new 0 0 200 200;" xml:space="preserve">
<style type="text/css">
	.st0{display:none;}
	.st1{fill:#FFBF2F;}
	.st2{fill:none;stroke:#003769;stroke-width:5;stroke-linecap:round;stroke-linejoin:round;stroke-miterlimit:10;}
	.st3{fill:#FE450E;stroke:#FE450E;stroke-width:5;stroke-linecap:round;stroke-linejoin:round;stroke-miterlimit:10;}
	.st4{fill:#003769;stroke:#003769;stroke-width:5;stroke-linecap:round;stroke-linejoin:round;stroke-miterlimit:10;}
	.st5{fill:none;stroke:#FFFFFF;stroke-width:5;stroke-linecap:round;stroke-linejoin:round;stroke-miterlimit:10;}
	.st6{fill:#FE450E;}
	.st7{fill:#003769;}
</style>
<g id="Calque_1" class="st0">
</g>
<g id="Calque_2">
	<g id="Calque_5">
	</g>
</g>
<g id="Calque_6">
</g>
<g id="Calque_3">
</g>
<g id="Calque_4">
	<path class="st3" d="M104.3,105.4c-3.2,1-9.2,1.8-13.5,0c-4.3-1.8-7.9-4.8-11.4-7.8c-2.4-2-4.7-4.1-7.6-5.4c-2.8-1.3-6.3-1.6-9-0.2
		c-2.6,1.4-4.2,4.3-4.6,7.2s0.4,5.9,1.6,8.6c3.3,7.1,9.7,12.4,16.9,15.4s15.2,3.8,23,3.7c8.9-0.2,17.9-1.6,25.7-5.8
		c7.8-4.2,14.2-11.5,15.9-20.2c0.7-3.8,0.3-8.2-2.4-10.9c-3.3-3.3-9-3.1-13.1-0.8c-4.1,2.2-7.2,6-10.3,9.5
		C112.2,101.9,107.4,104.4,104.3,105.4z"/>
	<path class="st2" d="M70.4,105.7c7.7,8.5,19.4,13.2,30.8,12.3c11.4-0.9,22.3-7.3,28.5-16.9"/>
	<path class="st6" d="M90.4,67.4c-4.3,2.5-9.1,11.7-7.3,18.6c1.8,6.9,8.4,12.2,15.5,12.4s14-5.1,15.7-12c0.9-3.9,0.3-9.2-0.9-11.9
		C108.4,63.9,96.4,63.9,90.4,67.4z"/>
</g>
</svg>
