<?xml version="1.0" encoding="utf-8"?>
<!-- Generator: Adobe Illustrator 25.2.3, SVG Export Plug-In . SVG Version: 6.00 Build 0)  -->
<svg version="1.1" xmlns="http://www.w3.org/2000/svg" xmlns:xlink="http://www.w3.org/1999/xlink" x="0px" y="0px"
	 viewBox="0 0 200 200" style="enable-background:new 0 0 200 200;" xml:space="preserve">
<style type="text/css">
	.st0{display:none;}
	.st1{fill:#FFBF2F;}
	.st2{fill:none;stroke:#003769;stroke-width:5;stroke-linecap:round;stroke-linejoin:round;stroke-miterlimit:10;}
	.st3{fill:#FE450E;stroke:#FE450E;stroke-width:5;stroke-linecap:round;stroke-linejoin:round;stroke-miterlimit:10;}
	.st4{fill:#003769;stroke:#003769;stroke-width:5;stroke-linecap:round;stroke-linejoin:round;stroke-miterlimit:10;}
	.st5{fill:none;stroke:#FFFFFF;stroke-width:5;stroke-linecap:round;stroke-linejoin:round;stroke-miterlimit:10;}
	.st6{fill:#FE450E;}
	.st7{fill:#003769;}
</style>
<g id="Calque_1" class="st0">
</g>
<g id="Calque_2">
	<g id="Calque_5">
	</g>
</g>
<g id="Calque_6">
	<path class="st2" d="M67.6,111.6c-0.4,5.7,2.7,11.5,7.7,14.2c5,2.7,11.5,2.3,16.1-1.1s6.8-9.6,6.5-14.9c-1.9,5.3-1,11.6,2.6,16
		c3.6,4.4,9.7,6.6,15.2,5.3s10.1-6.2,10.8-11.8"/>
	<path class="st2" d="M124.3,102.7c6.5-4,14.3-5.9,21.9-5.2"/>
	<path class="st2" d="M128.9,109.5c5.8-1.9,12.3-1.2,17.6,1.8"/>
	<path class="st2" d="M76,96.7c-4.3-6.2-12.8-9.3-20.1-7.2"/>
	<path class="st2" d="M70,100.4c-6.8-1.4-14.1-0.9-20.6,1.5"/>
	<path class="st3" d="M97.2,110.3c-3.3-6.2-7.2-12-11.7-17.4c9.3,0.1,18.6,1.4,27.7,3.6C108.3,101.7,102.8,106.4,97.2,110.3z"/>
</g>
<g id="Calque_3">
</g>
<g id="Calque_4">
</g>
</svg>
