<?xml version="1.0" encoding="utf-8"?>
<!-- Generator: Adobe Illustrator 25.2.3, SVG Export Plug-In . SVG Version: 6.00 Build 0)  -->
<svg version="1.1" xmlns="http://www.w3.org/2000/svg" xmlns:xlink="http://www.w3.org/1999/xlink" x="0px" y="0px"
	 viewBox="0 0 200 200" style="enable-background:new 0 0 200 200;" xml:space="preserve">
<style type="text/css">
	.st0{fill:#FFAC2F;}
	.st1{fill:none;stroke:#003769;stroke-width:5;stroke-linecap:round;stroke-linejoin:round;stroke-miterlimit:10;}
	.st2{fill:#FFFFFF;stroke:#003769;stroke-width:5;stroke-linecap:round;stroke-linejoin:round;stroke-miterlimit:10;}
	.st3{fill:#003769;stroke:#003769;stroke-width:5;stroke-linecap:round;stroke-linejoin:round;stroke-miterlimit:10;}
	.st4{fill:#FE450E;stroke:#FE450E;stroke-width:5;stroke-linecap:round;stroke-linejoin:round;stroke-miterlimit:10;}
	.st5{fill:#FFFFFF;}
	.st6{fill:#FE450E;stroke:#003769;stroke-width:5;stroke-linecap:round;stroke-linejoin:round;stroke-miterlimit:10;}
	.st7{fill:#003769;}
	.st8{fill:#FE450E;}
	.st9{fill:#FF0000;}
	.st10{fill:#FFE500;}
	.st11{fill:#A100FF;}
	.st12{fill:#04B846;}
	.st13{fill:#4092E8;}
	.st14{fill:#B05B00;}
	.st15{fill:#89E2F5;}
	.st16{fill:#FF87A9;}
	.st17{fill:none;stroke:#003769;stroke-width:3;stroke-linecap:round;stroke-linejoin:round;stroke-miterlimit:10;}
	.st18{fill:#FFFFFF;stroke:#003769;stroke-width:3;stroke-linecap:round;stroke-linejoin:round;stroke-miterlimit:10;}
	.st19{fill:none;stroke:#FFFFFF;stroke-width:4;stroke-linecap:round;stroke-linejoin:round;stroke-miterlimit:10;}
	.st20{fill:none;stroke:#003769;stroke-width:4;stroke-linecap:round;stroke-linejoin:round;stroke-miterlimit:10;}
</style>
<g id="Calque_2">
	<g id="Calque_5">
	</g>
</g>
<g id="Calque_4">
</g>
<g id="Calque_24">
</g>
<g id="Calque_25">
</g>
<g id="Calque_26">
</g>
<g id="Calque_27">
</g>
<g id="Calque_28">
</g>
<g id="Calque_29">
</g>
<g id="Calque_30">
</g>
<g id="Calque_31">
</g>
<g id="Calque_32">
</g>
<g id="Calque_33">
</g>
<g id="Calque_34">
</g>
<g id="Calque_35">
</g>
<g id="Calque_7">
</g>
<g id="Calque_10">
</g>
<g id="Calque_11">
</g>
<g id="Calque_12">
</g>
<g id="Calque_13">
</g>
<g id="Calque_3">
</g>
<g id="Calque_14">
</g>
<g id="Calque_15">
</g>
<g id="Calque_16">
</g>
<g id="Calque_19">
</g>
<g id="Calque_20">
	<path class="st5" d="M92.3,117.8c-1.1,3.8-2.7,7.5-4.9,10.9c-0.3,0.5-0.8,1-1.3,1c-0.6,0-1-0.6-1.3-1.1c-2.4-4-4.1-8.5-4.8-13.4
		C84.2,115.7,88.4,116.2,92.3,117.8z"/>
	<path class="st5" d="M111.8,117.8c1.1,3.8,2.7,7.5,4.9,10.9c0.3,0.5,0.8,1,1.3,1c0.6,0,1-0.6,1.3-1.1c2.4-4,4.1-8.5,4.8-13.4
		C119.9,115.7,115.7,116.2,111.8,117.8z"/>
	<path class="st1" d="M68.5,107.7c-0.9,2,0.4,4.4,2.3,5.5s4.1,1.2,6.3,1.3c16.2,0.7,32.5,1.4,48.6-0.7c2.5-0.3,5.1-0.8,7-2.3
		c2-1.6,3-4.6,1.5-6.6"/>
</g>
<g id="Calque_17">
</g>
<g id="Calque_6">
</g>
<g id="Calque_9">
</g>
<g id="Calque_8">
</g>
<g id="Calque_18">
</g>
<g id="Calque_21">
</g>
<g id="Calque_22">
</g>
<g id="Calque_23">
</g>
</svg>
