<?xml version="1.0" encoding="utf-8"?>
<!-- Generator: Adobe Illustrator 25.2.3, SVG Export Plug-In . SVG Version: 6.00 Build 0)  -->
<svg version="1.1" xmlns="http://www.w3.org/2000/svg" xmlns:xlink="http://www.w3.org/1999/xlink" x="0px" y="0px"
	 viewBox="0 0 200 200" style="enable-background:new 0 0 200 200;" xml:space="preserve">
<style type="text/css">
	.st0{fill:#FFAC2F;}
	.st1{fill:none;stroke:#003769;stroke-width:5;stroke-linecap:round;stroke-linejoin:round;stroke-miterlimit:10;}
	.st2{fill:#FFFFFF;stroke:#003769;stroke-width:5;stroke-linecap:round;stroke-linejoin:round;stroke-miterlimit:10;}
	.st3{fill:#003769;stroke:#003769;stroke-width:5;stroke-linecap:round;stroke-linejoin:round;stroke-miterlimit:10;}
	.st4{fill:#FE450E;stroke:#FE450E;stroke-width:5;stroke-linecap:round;stroke-linejoin:round;stroke-miterlimit:10;}
	.st5{fill:#FFFFFF;}
	.st6{fill:#FE450E;stroke:#003769;stroke-width:5;stroke-linecap:round;stroke-linejoin:round;stroke-miterlimit:10;}
	.st7{fill:#003769;}
	.st8{fill:#FE450E;}
	.st9{fill:#FF0000;}
	.st10{fill:#FFE500;}
	.st11{fill:#A100FF;}
	.st12{fill:#04B846;}
	.st13{fill:#4092E8;}
	.st14{fill:#B05B00;}
	.st15{fill:#89E2F5;}
	.st16{fill:#FF87A9;}
	.st17{fill:none;stroke:#003769;stroke-width:3;stroke-linecap:round;stroke-linejoin:round;stroke-miterlimit:10;}
	.st18{fill:#FFFFFF;stroke:#003769;stroke-width:3;stroke-linecap:round;stroke-linejoin:round;stroke-miterlimit:10;}
	.st19{fill:none;stroke:#FFFFFF;stroke-width:4;stroke-linecap:round;stroke-linejoin:round;stroke-miterlimit:10;}
	.st20{fill:none;stroke:#003769;stroke-width:4;stroke-linecap:round;stroke-linejoin:round;stroke-miterlimit:10;}
</style>
<g id="Calque_2">
	<g id="Calque_5">
	</g>
</g>
<g id="Calque_4">
</g>
<g id="Calque_24">
</g>
<g id="Calque_25">
</g>
<g id="Calque_26">
</g>
<g id="Calque_27">
</g>
<g id="Calque_28">
</g>
<g id="Calque_29">
</g>
<g id="Calque_30">
</g>
<g id="Calque_31">
</g>
<g id="Calque_32">
</g>
<g id="Calque_33">
</g>
<g id="Calque_34">
</g>
<g id="Calque_35">
</g>
<g id="Calque_7">
</g>
<g id="Calque_10">
</g>
<g id="Calque_11">
</g>
<g id="Calque_12">
</g>
<g id="Calque_13">
</g>
<g id="Calque_3">
</g>
<g id="Calque_14">
</g>
<g id="Calque_15">
</g>
<g id="Calque_16">
</g>
<g id="Calque_19">
</g>
<g id="Calque_20">
</g>
<g id="Calque_17">
</g>
<g id="Calque_6">
</g>
<g id="Calque_9">
</g>
<g id="Calque_8">
</g>
<g id="Calque_18">
</g>
<g id="Calque_21">
</g>
<g id="Calque_22">
</g>
<g id="Calque_23">
	<path class="st18" d="M90.7,101.7c9.2-3.6,20.3-2.3,27.8,4c3.1,2.6,5.5,5.9,7.7,9.3c1.9,3,3.6,6.2,4.3,9.6
		c1.6,8.1-3.3,12.5-6.5,12.7c-9.1,0.6-11.8-6.1-14.3-8.9c-1.9-2.1-3.8-4.5-6.6-5.1c-2.1-0.5-4.3,0.2-6.1,1.3
		c-1.8,1.1-3.4,2.5-5.2,3.7c-4,2.7-8.8,4.3-13.7,4.4c-7.1,0.1-9.8-4.7-9.8-8.8C68.3,110.8,81.6,105.3,90.7,101.7z"/>
	<path class="st17" d="M75.8,110.1c3.1,7.4,6.1,13.7,10.1,20.5"/>
	<path class="st17" d="M87.9,103.8c1.9,7.3,4.3,14.5,6.9,21.6"/>
	<path class="st17" d="M105.8,101.2c0-0.4,0-0.8,0-1.2c-1.7,7.3-3.1,14.7-4.4,22"/>
	<path class="st17" d="M119.3,107.5c-3.6,6.4-7.1,12.8-10.7,19.3"/>
	<path class="st17" d="M128.2,119.4c-3.6,5.2-7.5,10.1-11.7,14.8"/>
	<path class="st17" d="M70.3,128.7c6.3-5.7,13-13.3,21.1-16c8.8-2.9,14.8-1.8,22.6,3.8c5.9,4.2,10.3,10.8,13.8,17.2"/>
</g>
</svg>
