<?xml version="1.0" encoding="utf-8"?>
<!-- Generator: Adobe Illustrator 25.2.3, SVG Export Plug-In . SVG Version: 6.00 Build 0)  -->
<svg version="1.1" xmlns="http://www.w3.org/2000/svg" xmlns:xlink="http://www.w3.org/1999/xlink" x="0px" y="0px"
	 viewBox="0 0 200 200" style="enable-background:new 0 0 200 200;" xml:space="preserve">
<style type="text/css">
	.st0{fill:#FFAC2F;}
	.st1{fill:none;stroke:#003769;stroke-width:5;stroke-linecap:round;stroke-linejoin:round;stroke-miterlimit:10;}
	.st2{fill:#FFFFFF;stroke:#003769;stroke-width:5;stroke-linecap:round;stroke-linejoin:round;stroke-miterlimit:10;}
	.st3{fill:#003769;stroke:#003769;stroke-width:5;stroke-linecap:round;stroke-linejoin:round;stroke-miterlimit:10;}
	.st4{fill:#FE450E;stroke:#FE450E;stroke-width:5;stroke-linecap:round;stroke-linejoin:round;stroke-miterlimit:10;}
	.st5{fill:#FFFFFF;}
	.st6{fill:#FE450E;stroke:#003769;stroke-width:5;stroke-linecap:round;stroke-linejoin:round;stroke-miterlimit:10;}
	.st7{fill:#003769;}
	.st8{fill:#FE450E;}
	.st9{fill:#FF0000;}
	.st10{fill:#FFE500;}
	.st11{fill:#A100FF;}
	.st12{fill:#04B846;}
	.st13{fill:#4092E8;}
	.st14{fill:#B05B00;}
	.st15{fill:#89E2F5;}
	.st16{fill:#FF87A9;}
	.st17{fill:none;stroke:#003769;stroke-width:3;stroke-linecap:round;stroke-linejoin:round;stroke-miterlimit:10;}
	.st18{fill:#FFFFFF;stroke:#003769;stroke-width:3;stroke-linecap:round;stroke-linejoin:round;stroke-miterlimit:10;}
	.st19{fill:none;stroke:#FFFFFF;stroke-width:4;stroke-linecap:round;stroke-linejoin:round;stroke-miterlimit:10;}
	.st20{fill:none;stroke:#003769;stroke-width:4;stroke-linecap:round;stroke-linejoin:round;stroke-miterlimit:10;}
</style>
<g id="Calque_2">
	<g id="Calque_5">
	</g>
</g>
<g id="Calque_4">
</g>
<g id="Calque_24">
</g>
<g id="Calque_25">
</g>
<g id="Calque_26">
</g>
<g id="Calque_27">
</g>
<g id="Calque_28">
</g>
<g id="Calque_29">
</g>
<g id="Calque_30">
</g>
<g id="Calque_31">
</g>
<g id="Calque_32">
</g>
<g id="Calque_33">
</g>
<g id="Calque_34">
</g>
<g id="Calque_35">
</g>
<g id="Calque_7">
</g>
<g id="Calque_10">
</g>
<g id="Calque_11">
</g>
<g id="Calque_12">
</g>
<g id="Calque_13">
</g>
<g id="Calque_3">
</g>
<g id="Calque_14">
</g>
<g id="Calque_15">
</g>
<g id="Calque_16">
</g>
<g id="Calque_19">
</g>
<g id="Calque_20">
</g>
<g id="Calque_17">
</g>
<g id="Calque_6">
</g>
<g id="Calque_9">
</g>
<g id="Calque_8">
</g>
<g id="Calque_18">
</g>
<g id="Calque_21">
</g>
<g id="Calque_22">
	<path class="st6" d="M74.5,125.2c-2.7-1.9-7.2-6.3-7.6-10.9c-0.4-4.6,2.8-9.6,7.4-10.1c3.6-0.4,6.9,1.8,10.1,3.3
		c10.3,5,23.1,4.3,32.7-1.7c3.1-1.9,6.2-4.4,9.8-4.2c4.4,0.3,7.6,4.9,8,9.3c0.5,6-2.7,11.9-7.4,15.6c-4.8,3.7-12.4,5.6-16.8,5.7
		C101.4,132.4,82.3,130.7,74.5,125.2z"/>
	<path class="st5" d="M77.8,106.1c-0.7,3-1.2,5.4-1.4,8.5c2.3,0.5,4.7,0.7,7.1,0.7c0.3-1.8,0.4-2.7,0.7-4.5c0.1-0.4,0.4-1.2,0.2-1.6
		c-0.2-0.4-0.9-0.6-1.3-0.8C81.3,107.7,80.4,106.9,77.8,106.1z"/>
	<path class="st5" d="M94.1,111.9c-0.1,2.3-0.1,4.3-0.2,6.6c2.7-0.1,5.4-0.1,8.1-0.2c-0.1-2-0.2-3-0.3-5c0-0.3,0.2-1.1,0-1.3
		c-0.2-0.1-1.1,0-1.3,0C98.3,112.3,97.2,112.5,94.1,111.9z"/>
	<path class="st5" d="M110.3,110.8c0.6,2.3,1.1,4.5,1.7,6.8c1.9-0.7,3.8-1.4,5.8-2.1c0.3-0.1,0.7-0.3,0.9-0.5c0.3-0.4,0.1-1,0-1.5
		c-0.4-1.3-0.8-2.7-1.2-4c-0.2-0.6-0.5-1.3-1.1-1.3c-0.3,0-0.5,0.1-0.8,0.2C113.8,109.1,112.1,109.9,110.3,110.8z"/>
	<path class="st5" d="M122,104.6c0.3,2.5,0.6,5.1,0.9,7.6c2.4-0.4,4.7-0.7,7.1-1.1c0-2.5,0-4,0.1-6.4c0-0.2,0-0.4-0.1-0.5
		c-0.2-0.2-0.5-0.1-0.8-0.3c-1-0.8-2.6-1.2-3.9-1C124,103,122.7,103.6,122,104.6z"/>
	<path class="st5" d="M128.2,124.8c-0.6-1.8-1.3-3.7-1.9-5.5c-0.1-0.4-0.3-0.7-0.6-1c-0.4-0.3-0.9-0.2-1.4-0.1
		c-1.1,0.2-2.2,0.5-3.3,0.9c-0.9,0.3-1.8,0.7-2.2,1.6c-0.2,0.6-0.1,1.3,0,1.9c0.4,2.1,0.8,4.2,1.3,6.3
		C123.1,128.1,126,126.8,128.2,124.8z"/>
	<path class="st5" d="M103.5,130.5c0.1-2.3,0.1-5.1,0.2-7.4c2.7-0.1,5.3-0.1,8,0.2c0.3,2.4,0.4,5.1,0.4,7.5
		C109.1,131.1,106.8,131.1,103.5,130.5z"/>
	<path class="st5" d="M83.8,127.6c0.2-2.6,0.9-5.1,1.9-7.5c2,0.4,4,0.9,6.1,1.3c0.3,0.1,0.7,0.1,0.9,0.4c0.4,0.4,0.4,1,0.3,1.6
		c-0.2,2.2-0.4,3.7-0.6,5.9C89.3,129,86.8,128.7,83.8,127.6z"/>
	<path class="st5" d="M71.6,120.2c0.6-1,1.2-2,1.8-3c1.1,1,2.6,1.7,4.2,1.9c0.7,0.1,1.6,0.2,1.9,0.9c0.1,0.4,0,0.8-0.1,1.1
		c-0.5,1.4-1,2.8-1.6,4.2c-1.3-0.5-2.6-1-3.7-1.8C72.9,122.8,71.9,121.7,71.6,120.2z"/>
</g>
<g id="Calque_23">
</g>
</svg>
