<?xml version="1.0" encoding="utf-8"?>
<!-- Generator: Adobe Illustrator 25.2.3, SVG Export Plug-In . SVG Version: 6.00 Build 0)  -->
<svg version="1.1" xmlns="http://www.w3.org/2000/svg" xmlns:xlink="http://www.w3.org/1999/xlink" x="0px" y="0px"
	 viewBox="0 0 200 200" style="enable-background:new 0 0 200 200;" xml:space="preserve">
<style type="text/css">
	.st0{fill:#FFAC2F;}
	.st1{fill:none;stroke:#003769;stroke-width:5;stroke-linecap:round;stroke-linejoin:round;stroke-miterlimit:10;}
	.st2{fill:#FFFFFF;stroke:#003769;stroke-width:5;stroke-linecap:round;stroke-linejoin:round;stroke-miterlimit:10;}
	.st3{fill:#003769;stroke:#003769;stroke-width:5;stroke-linecap:round;stroke-linejoin:round;stroke-miterlimit:10;}
	.st4{fill:#FE450E;stroke:#FE450E;stroke-width:5;stroke-linecap:round;stroke-linejoin:round;stroke-miterlimit:10;}
	.st5{fill:#FFFFFF;}
	.st6{fill:#FE450E;stroke:#003769;stroke-width:5;stroke-linecap:round;stroke-linejoin:round;stroke-miterlimit:10;}
	.st7{fill:#003769;}
	.st8{fill:#FE450E;}
	.st9{fill:#FF0000;}
	.st10{fill:#FFE500;}
	.st11{fill:#A100FF;}
	.st12{fill:#04B846;}
	.st13{fill:#4092E8;}
	.st14{fill:#B05B00;}
	.st15{fill:#89E2F5;}
	.st16{fill:#FF87A9;}
	.st17{fill:none;stroke:#003769;stroke-width:3;stroke-linecap:round;stroke-linejoin:round;stroke-miterlimit:10;}
	.st18{fill:#FFFFFF;stroke:#003769;stroke-width:3;stroke-linecap:round;stroke-linejoin:round;stroke-miterlimit:10;}
	.st19{fill:none;stroke:#FFFFFF;stroke-width:4;stroke-linecap:round;stroke-linejoin:round;stroke-miterlimit:10;}
	.st20{fill:none;stroke:#003769;stroke-width:4;stroke-linecap:round;stroke-linejoin:round;stroke-miterlimit:10;}
</style>
<g id="Calque_2">
	<g id="Calque_5">
	</g>
</g>
<g id="Calque_4">
</g>
<g id="Calque_24">
</g>
<g id="Calque_25">
</g>
<g id="Calque_26">
</g>
<g id="Calque_27">
</g>
<g id="Calque_28">
</g>
<g id="Calque_29">
</g>
<g id="Calque_30">
</g>
<g id="Calque_31">
</g>
<g id="Calque_32">
</g>
<g id="Calque_33">
</g>
<g id="Calque_34">
</g>
<g id="Calque_35">
</g>
<g id="Calque_7">
</g>
<g id="Calque_10">
</g>
<g id="Calque_11">
</g>
<g id="Calque_12">
</g>
<g id="Calque_13">
</g>
<g id="Calque_3">
</g>
<g id="Calque_14">
</g>
<g id="Calque_15">
</g>
<g id="Calque_16">
</g>
<g id="Calque_19">
</g>
<g id="Calque_20">
</g>
<g id="Calque_17">
	<path class="st6" d="M131.4,105.1c-0.1,7.3-2.3,14.7-6.8,20.5c-4.5,5.8-11.3,9.9-18.6,10.4c-8.2,0.6-16.2-3.3-22.2-9
		c-5.9-5.7-10-13-13.7-21.4C91,106.3,111.9,106,131.4,105.1z"/>
	<path class="st7" d="M80.9,123.9c1.3-5.3,5.1-9.7,9.9-12.2s10.4-3.2,15.8-2.4c3,0.4,5.9,1.3,8.6,2.8c4.5,2.5,8,6.6,11,10.9
		c2.3-4.4,3.9-9.2,4.5-14.1c0.1-0.6,0.1-1.1,0-1.7c-0.3-1-1.4-1.5-2.4-1.6c-1-0.1-2,0.2-3,0.5c-6.1,1.6-12.5,1.5-18.8,1.4
		c-11.3-0.2-22.6-0.4-33.9-0.6c-0.5,0-1,0-1.2,0.5c-0.1,0.3,0,0.7,0.2,1c2.8,4.9,5.6,9.8,8.3,14.7c0.1,0.2,0.3,0.5,0.6,0.6
		S81,123.6,80.9,123.9z"/>
</g>
<g id="Calque_6">
</g>
<g id="Calque_9">
</g>
<g id="Calque_8">
</g>
<g id="Calque_18">
</g>
<g id="Calque_21">
</g>
<g id="Calque_22">
</g>
<g id="Calque_23">
</g>
</svg>
