<?xml version="1.0" encoding="utf-8"?>
<!-- Generator: Adobe Illustrator 25.2.3, SVG Export Plug-In . SVG Version: 6.00 Build 0)  -->
<svg version="1.1" xmlns="http://www.w3.org/2000/svg" xmlns:xlink="http://www.w3.org/1999/xlink" x="0px" y="0px"
	 viewBox="0 0 200 200" style="enable-background:new 0 0 200 200;" xml:space="preserve">
<style type="text/css">
	.st0{fill:#FFAC2F;}
	.st1{fill:none;stroke:#003769;stroke-width:5;stroke-linecap:round;stroke-linejoin:round;stroke-miterlimit:10;}
	.st2{fill:#FFFFFF;stroke:#003769;stroke-width:5;stroke-linecap:round;stroke-linejoin:round;stroke-miterlimit:10;}
	.st3{fill:#003769;stroke:#003769;stroke-width:5;stroke-linecap:round;stroke-linejoin:round;stroke-miterlimit:10;}
	.st4{fill:#FE450E;stroke:#FE450E;stroke-width:5;stroke-linecap:round;stroke-linejoin:round;stroke-miterlimit:10;}
	.st5{fill:#FFFFFF;}
	.st6{fill:#FE450E;stroke:#003769;stroke-width:5;stroke-linecap:round;stroke-linejoin:round;stroke-miterlimit:10;}
	.st7{fill:#003769;}
	.st8{fill:#FE450E;}
	.st9{fill:#FF0000;}
	.st10{fill:#FFE500;}
	.st11{fill:#A100FF;}
	.st12{fill:#04B846;}
	.st13{fill:#4092E8;}
	.st14{fill:#B05B00;}
	.st15{fill:#89E2F5;}
	.st16{fill:#FF87A9;}
	.st17{fill:none;stroke:#003769;stroke-width:3;stroke-linecap:round;stroke-linejoin:round;stroke-miterlimit:10;}
	.st18{fill:#FFFFFF;stroke:#003769;stroke-width:3;stroke-linecap:round;stroke-linejoin:round;stroke-miterlimit:10;}
	.st19{fill:none;stroke:#FFFFFF;stroke-width:4;stroke-linecap:round;stroke-linejoin:round;stroke-miterlimit:10;}
	.st20{fill:none;stroke:#003769;stroke-width:4;stroke-linecap:round;stroke-linejoin:round;stroke-miterlimit:10;}
</style>
<g id="Calque_2">
	<g id="Calque_5">
	</g>
</g>
<g id="Calque_4">
</g>
<g id="Calque_24">
</g>
<g id="Calque_25">
</g>
<g id="Calque_26">
</g>
<g id="Calque_27">
</g>
<g id="Calque_28">
</g>
<g id="Calque_29">
</g>
<g id="Calque_30">
</g>
<g id="Calque_31">
</g>
<g id="Calque_32">
</g>
<g id="Calque_33">
</g>
<g id="Calque_34">
</g>
<g id="Calque_35">
</g>
<g id="Calque_7">
</g>
<g id="Calque_10">
</g>
<g id="Calque_11">
</g>
<g id="Calque_12">
</g>
<g id="Calque_13">
</g>
<g id="Calque_3">
	<path class="st2" d="M78.6,53.4c5.5,2.9,8.6,9.6,7.5,15.7c-1.1,6.1-6.4,11.2-12.5,12S61,78.5,58.3,72.9c-2.7-5.6-1.4-12.8,3-17.1
		S73,50.4,78.6,53.4z"/>
	<path class="st2" d="M134.6,53.4c-5.4-2.1-12.8-0.8-16.9,3.4c-4.4,4.5-5.4,12-2.4,17.5c3.1,5.5,10,8.6,16.2,7.2
		c6.2-1.4,11.1-7.2,11.4-13.5S139.8,55.4,134.6,53.4z"/>
	<path class="st1" d="M69.4,81.4c-0.6,2.7-1.3,5.5-1.9,8.2"/>
	<path class="st1" d="M63.4,79.2c-1.5,2.4-3.1,4.8-4.6,7.2"/>
	<path class="st1" d="M59.2,75.4c-2.3,1.5-4.6,2.9-7,4.4"/>
	<path class="st1" d="M133.8,82.2c1.4,2.2,2.8,4.4,4.2,6.6"/>
	<path class="st1" d="M139.3,78.4c2,1.5,4,2.9,6,4.4"/>
	<path class="st1" d="M142.2,73.9c2.8,0.5,5.6,1.1,8.3,1.6"/>
	<path class="st3" d="M84.8,62.4c-8.9,0.2-17.8,0.3-26.8,0.2c1.5-5.5,7.2-9.4,12.9-9.3S82.1,56.8,84.8,62.4z"/>
	<path class="st3" d="M114.5,63.2c9,0.1,18.1,0.3,27.1,0.4c-1.1-3.1-2.3-6.4-4.9-8.4c-2.8-2.2-6.6-2.4-10.2-1.9
		c-2.8,0.3-5.6,1.1-7.9,2.7C116.4,57.6,114.7,60.3,114.5,63.2z"/>
	<path class="st3" d="M66.6,64.3c-0.1,1.5-0.1,3,0.2,4.5c0.4,1.5,1.2,2.9,2.6,3.5c2.1,1,4.8-0.1,6.2-2s1.7-4.4,1.7-6.7
		C74,63.8,70.7,64,66.6,64.3z"/>
	<path class="st3" d="M123.8,66.1c0.4,2.5,1.2,5.4,3.5,6.2c1.9,0.7,4.1-0.5,5.3-2.2c1.2-1.7,1.6-3.8,1.9-5.8
		C131,64.6,127.4,64.7,123.8,66.1z"/>
</g>
<g id="Calque_14">
</g>
<g id="Calque_15">
</g>
<g id="Calque_16">
</g>
<g id="Calque_19">
</g>
<g id="Calque_20">
</g>
<g id="Calque_17">
</g>
<g id="Calque_6">
</g>
<g id="Calque_9">
</g>
<g id="Calque_8">
</g>
<g id="Calque_18">
</g>
<g id="Calque_21">
</g>
<g id="Calque_22">
</g>
<g id="Calque_23">
</g>
</svg>
