<?xml version="1.0" encoding="utf-8"?>
<!-- Generator: Adobe Illustrator 25.2.3, SVG Export Plug-In . SVG Version: 6.00 Build 0)  -->
<svg version="1.1" xmlns="http://www.w3.org/2000/svg" xmlns:xlink="http://www.w3.org/1999/xlink" x="0px" y="0px"
	 viewBox="0 0 200 200" style="enable-background:new 0 0 200 200;" xml:space="preserve">
<style type="text/css">
	.st0{display:none;}
	.st1{fill:#FFBF2F;}
	.st2{fill:none;stroke:#003769;stroke-width:5;stroke-linecap:round;stroke-linejoin:round;stroke-miterlimit:10;}
	.st3{fill:#FE450E;stroke:#FE450E;stroke-width:5;stroke-linecap:round;stroke-linejoin:round;stroke-miterlimit:10;}
	.st4{fill:#003769;stroke:#003769;stroke-width:5;stroke-linecap:round;stroke-linejoin:round;stroke-miterlimit:10;}
	.st5{fill:none;stroke:#FFFFFF;stroke-width:5;stroke-linecap:round;stroke-linejoin:round;stroke-miterlimit:10;}
	.st6{fill:#FE450E;}
	.st7{fill:#003769;}
</style>
<g id="Calque_1" class="st0">
</g>
<g id="Calque_2">
	<g id="Calque_5">
	</g>
</g>
<g id="Calque_6">
</g>
<g id="Calque_3">
</g>
<g id="Calque_4">
	<path class="st4" d="M156.1,70.4c-31.6-11.7-66-16.1-99.4-11.9C53.6,66,53.6,74.9,57,82.3s10.3,13.3,18.3,14.9
		c8,1.7,16.9-1.1,22.2-7.2c5.4-6.2,6.9-14.8,7.9-23.2c1.1,1.1,2.8,1.5,4.5,1c-0.6,5.3-1,10.7-0.2,15.9s3,10.5,7,14
		c5,4.3,12.4,5.5,18.7,3.6c6.3-1.9,11.6-6.6,15-12.4C153.7,83.3,155.2,76.6,156.1,70.4z"/>
	<path class="st5" d="M79.6,59.9c-3.5,6.4-5.5,9.7-8.1,16.5c4.1-0.4,8.3-0.3,12.4,0.4C82.6,84.1,79.8,88,75.5,94"/>
	<path class="st5" d="M134,65.6c-3.5,6.4-5.5,9.7-8.1,16.5c4.1-0.4,8.3-0.3,12.4,0.4c-1.4,7.2-4.1,11.1-8.4,17.1"/>
</g>
</svg>
