<?xml version="1.0" encoding="utf-8"?>
<!-- Generator: Adobe Illustrator 25.2.3, SVG Export Plug-In . SVG Version: 6.00 Build 0)  -->
<svg version="1.1" xmlns="http://www.w3.org/2000/svg" xmlns:xlink="http://www.w3.org/1999/xlink" x="0px" y="0px"
	 viewBox="0 0 200 200" style="enable-background:new 0 0 200 200;" xml:space="preserve">
<style type="text/css">
	.st0{fill:#FFAC2F;}
	.st1{fill:none;stroke:#003769;stroke-width:5;stroke-linecap:round;stroke-linejoin:round;stroke-miterlimit:10;}
	.st2{fill:#FFFFFF;stroke:#003769;stroke-width:5;stroke-linecap:round;stroke-linejoin:round;stroke-miterlimit:10;}
	.st3{fill:#003769;stroke:#003769;stroke-width:5;stroke-linecap:round;stroke-linejoin:round;stroke-miterlimit:10;}
	.st4{fill:#FE450E;stroke:#FE450E;stroke-width:5;stroke-linecap:round;stroke-linejoin:round;stroke-miterlimit:10;}
	.st5{fill:#FFFFFF;}
	.st6{fill:#FE450E;stroke:#003769;stroke-width:5;stroke-linecap:round;stroke-linejoin:round;stroke-miterlimit:10;}
	.st7{fill:#003769;}
	.st8{fill:#FE450E;}
	.st9{fill:#FF0000;}
	.st10{fill:#FFE500;}
	.st11{fill:#A100FF;}
	.st12{fill:#04B846;}
	.st13{fill:#4092E8;}
	.st14{fill:#B05B00;}
	.st15{fill:#89E2F5;}
	.st16{fill:#FF87A9;}
	.st17{fill:none;stroke:#003769;stroke-width:3;stroke-linecap:round;stroke-linejoin:round;stroke-miterlimit:10;}
	.st18{fill:#FFFFFF;stroke:#003769;stroke-width:3;stroke-linecap:round;stroke-linejoin:round;stroke-miterlimit:10;}
	.st19{fill:none;stroke:#FFFFFF;stroke-width:4;stroke-linecap:round;stroke-linejoin:round;stroke-miterlimit:10;}
	.st20{fill:none;stroke:#003769;stroke-width:4;stroke-linecap:round;stroke-linejoin:round;stroke-miterlimit:10;}
</style>
<g id="Calque_2">
	<g id="Calque_5">
	</g>
</g>
<g id="Calque_4">
</g>
<g id="Calque_24">
</g>
<g id="Calque_25">
</g>
<g id="Calque_26">
</g>
<g id="Calque_27">
</g>
<g id="Calque_28">
</g>
<g id="Calque_29">
</g>
<g id="Calque_30">
</g>
<g id="Calque_31">
</g>
<g id="Calque_32">
</g>
<g id="Calque_33">
</g>
<g id="Calque_34">
</g>
<g id="Calque_35">
</g>
<g id="Calque_7">
</g>
<g id="Calque_10">
</g>
<g id="Calque_11">
</g>
<g id="Calque_12">
</g>
<g id="Calque_13">
	<path class="st2" d="M66.7,46.7c-5.9,2.1-11.3,13.3-12.3,22c-0.7,5.9-0.1,12.4,3.8,16.8c2.7,3,6.8,4.7,10.9,5.1
		c7.4,0.7,15-2.4,19.7-8.2c4.7-5.7,6.3-13.9,4.1-20.9S82.1,41.3,66.7,46.7z"/>
	<path class="st2" d="M119.4,46.1c-7.4,3.4-11,12.5-12.4,20.5c-1.4,8,1.4,17,8,21.6c7.3,5.1,18.2,3.8,24.7-2.4
		c6.5-6.2,8.6-16.2,6.2-24.8C143.9,53.7,132,40.3,119.4,46.1z"/>
	<path class="st3" d="M92.1,60.4c-1.5-3.7-5.9-5.8-9.8-5.2c-3.9,0.6-7.3,3.6-8.9,7.2s-1.7,7.8-0.8,11.7c1,4.1,3.4,8.2,7.4,9.5
		c3.5,1.1,7.5-0.3,10-3c2.5-2.7,3.7-6.4,3.9-10.1C94,66.9,93.3,63.2,92.1,60.4z"/>
	<path class="st3" d="M117.6,57.3c-2.9-1.1-6.3,0.2-8.3,2.5c-2,2.3-2.8,5.5-2.9,8.5c-0.2,4.2,0.8,8.4,2.8,12.1
		c0.9,1.8,2.2,3.5,4.1,4.2c2.4,0.9,5.1-0.1,7.1-1.6c4.5-3.3,6.9-9.1,6.1-14.6C125.8,63.1,121.6,58.9,117.6,57.3z"/>
</g>
<g id="Calque_3">
</g>
<g id="Calque_14">
</g>
<g id="Calque_15">
</g>
<g id="Calque_16">
</g>
<g id="Calque_19">
</g>
<g id="Calque_20">
</g>
<g id="Calque_17">
</g>
<g id="Calque_6">
</g>
<g id="Calque_9">
</g>
<g id="Calque_8">
</g>
<g id="Calque_18">
</g>
<g id="Calque_21">
</g>
<g id="Calque_22">
</g>
<g id="Calque_23">
</g>
</svg>
