<?xml version="1.0" encoding="utf-8"?>
<!-- Generator: Adobe Illustrator 25.2.3, SVG Export Plug-In . SVG Version: 6.00 Build 0)  -->
<svg version="1.1" xmlns="http://www.w3.org/2000/svg" xmlns:xlink="http://www.w3.org/1999/xlink" x="0px" y="0px"
	 viewBox="0 0 200 200" style="enable-background:new 0 0 200 200;" xml:space="preserve">
<style type="text/css">
	.st0{display:none;}
	.st1{fill:#FFBF2F;}
	.st2{fill:none;stroke:#003769;stroke-width:5;stroke-linecap:round;stroke-linejoin:round;stroke-miterlimit:10;}
	.st3{fill:#FE450E;stroke:#FE450E;stroke-width:5;stroke-linecap:round;stroke-linejoin:round;stroke-miterlimit:10;}
	.st4{fill:#003769;stroke:#003769;stroke-width:5;stroke-linecap:round;stroke-linejoin:round;stroke-miterlimit:10;}
	.st5{fill:none;stroke:#FFFFFF;stroke-width:5;stroke-linecap:round;stroke-linejoin:round;stroke-miterlimit:10;}
	.st6{fill:#FE450E;}
	.st7{fill:#003769;}
</style>
<g id="Calque_1" class="st0">
</g>
<g id="Calque_2">
	<g id="Calque_5">
	</g>
</g>
<g id="Calque_6">
</g>
<g id="Calque_3">
</g>
<g id="Calque_4">
	<path class="st7" d="M59.8,52.3C57,51,54.1,52.8,53,54.4c-1.1,1.6-1.6,3.6-1.7,5.5c-0.2,2.9,0.6,6.3,3.2,7.7
		c2.9,1.6,7.6-1.2,8.2-3.3C63.7,61.1,65.1,54.7,59.8,52.3z"/>
	<path class="st7" d="M118.6,56.6c-1.3,0.3-3,1.8-4,3.3c-1.3,2.1-2,4.9-0.9,7.1c1.4,2.8,5.3,3.8,8,2.4c2.8-1.4,4.7-5.7,4.1-7.8
		C125.2,59.5,123.1,55.4,118.6,56.6z"/>
	<path class="st2" d="M53.1,73.2c2,1.4,4.5,1.8,6.9,1.2s4.4-2.2,5.4-4.4"/>
	<path class="st2" d="M109.7,70.1c1.2,2.3,3.4,4.1,6,4.9c2.6,0.8,5.6,0.7,8.1-0.4"/>
</g>
</svg>
